<?xml version="1.0" encoding="utf-8"?>
<!-- Generator: Adobe Illustrator 27.5.0, SVG Export Plug-In . SVG Version: 6.00 Build 0)  -->
<svg version="1.1" xmlns="http://www.w3.org/2000/svg" xmlns:xlink="http://www.w3.org/1999/xlink" x="0px" y="0px"
	 viewBox="0 0 500 500" style="enable-background:new 0 0 500 500;" xml:space="preserve">
<g id="BACKGROUND">
	<path style="fill:#3878A6;" d="M406.32,125.663c54.315,64.437,76.303,186.277,17.843,247.493
		c-42.117,44.103-122.032,52.596-172.113,24.789c-35.909-19.938-41.729-50.348-94.342-73.631
		c-36.394-16.105-46.668-7.334-67.738-21.302c-45.378-30.085-65.997-116.037-41.759-166.775
		C92.38,43.779,311.706,13.416,406.32,125.663z"/>
</g>
<g id="OBJECTS">
	<g>
		<path style="fill:#FDB800;" d="M70.917,239.171c0,0-6.706-13.369-2.094-19.639c4.612-6.271,7.973-11.33,7.973-11.33
			S94.974,224.907,70.917,239.171z"/>
		<g>
			<path style="fill:#242424;" d="M69.624,245.659c0.147-3.583,0.702-7.123,1.476-10.616c0.401-1.743,0.857-3.478,1.445-5.175
				c0.578-1.695,1.262-3.378,2.226-4.896c-0.611,1.684-1.03,3.405-1.478,5.118c-0.428,1.718-0.838,3.442-1.219,5.175
				C71.276,238.721,70.548,242.197,69.624,245.659z"/>
		</g>
		<path style="fill:#242424;" d="M68.066,220.838c5.548-3.204,9-6.641,11.002-10.06c-1.243-1.631-2.271-2.577-2.271-2.577
			s-3.361,5.059-7.973,11.33C68.524,219.939,68.274,220.377,68.066,220.838z"/>
		<path style="fill:#FDB800;" d="M65.795,221.157c0,0-9.144-15.443-4.277-23.388c4.866-7.945,8.368-14.322,8.368-14.322
			S92.876,201.859,65.795,221.157z"/>
		<path style="fill:#FDB800;" d="M45.031,213.871c0,0,16.077,7.996,17.299,17.796c1.222,9.8,2.501,17.427,2.501,17.427
			S36.758,246.745,45.031,213.871z"/>
		<g>
			<path style="fill:#242424;" d="M116.381,323.343c-2.019-4.125-4.183-8.174-6.478-12.146c-2.272-3.984-4.665-7.898-7.192-11.721
				c-2.528-3.821-5.162-7.573-7.976-11.183c-2.779-3.628-5.85-7.042-8.762-10.61c-5.794-7.14-11.385-14.433-16.841-21.825
				c-5.443-7.401-10.791-14.871-15.949-22.471l8.26,11.024c2.748,3.678,5.517,7.339,8.305,10.986
				c5.579,7.289,11.158,14.581,16.999,21.653c2.87,3.565,5.925,7.006,8.708,10.688c2.796,3.659,5.462,7.418,7.9,11.321
				C108.266,306.839,112.697,314.926,116.381,323.343z"/>
		</g>
		<g>
			<path style="fill:#242424;" d="M65.555,206.371c0.075,2.5,0.163,4.996,0.335,7.487c0.132,2.493,0.308,4.982,0.54,7.466
				c0.451,4.967,0.982,9.927,1.799,14.843c0.772,4.922,1.781,9.802,3.056,14.617c0.322,1.202,0.704,2.386,1.054,3.582
				c0.186,0.594,0.341,1.199,0.552,1.784l0.643,1.753c0.44,1.164,0.776,2.375,1.319,3.498l1.491,3.439
				c-2.466-4.359-4.303-9.056-5.799-13.844c-1.439-4.81-2.449-9.732-3.303-14.672c-0.739-4.959-1.288-9.945-1.576-14.945
				C65.393,216.381,65.283,211.368,65.555,206.371z"/>
		</g>
		<path style="fill:#FDB800;" d="M91.807,270.198c0,0-9.947-11.766-7.222-19.314c2.725-7.547,4.58-13.542,4.58-13.542
			S110.93,249.483,91.807,270.198z"/>
		<g>
			<path style="fill:#242424;" d="M89.261,257.603c0.424,1.801,0.825,3.602,1.296,5.387c0.433,1.793,0.894,3.579,1.379,5.357
				c0.975,3.555,1.988,7.096,3.11,10.603c1.097,3.515,2.361,6.971,3.665,10.414c0.686,1.707,1.359,3.423,2.139,5.092
				c0.688,1.715,1.569,3.333,2.333,5.022c-1.976-3.127-3.687-6.426-5.182-9.819c-1.481-3.398-2.782-6.875-3.906-10.406
				c-1.105-3.536-2.1-7.107-2.901-10.723C90.387,264.918,89.687,261.279,89.261,257.603z"/>
		</g>
		<path style="fill:#FDB800;" d="M81.815,283.71c0,0-11.409-3.503-13.384-9.985c-1.975-6.482-3.725-11.487-3.725-11.487
			S83.227,260.503,81.815,283.71z"/>
		<g>
			<path style="fill:#242424;" d="M85.372,288.246c-2.314-2.117-4.347-4.494-6.231-6.984c-0.93-1.254-1.828-2.537-2.627-3.886
				c-0.807-1.34-1.542-2.743-2.039-4.235c0.845,1.318,1.783,2.549,2.688,3.802l2.778,3.719
				C81.785,283.152,83.659,285.621,85.372,288.246z"/>
		</g>
		<path style="fill:#FDB800;" d="M87.398,292.679c0,0-7.569,7.871-14.083,5.789c-6.514-2.082-11.632-3.494-11.632-3.494
			S67.397,277.845,87.398,292.679z"/>
		<g>
			<path style="fill:#242424;" d="M92.809,292.244c-2.88,0.756-5.825,1.129-8.784,1.306c-1.48,0.072-2.966,0.103-4.453,0.008
				c-1.483-0.082-2.977-0.265-4.408-0.689c1.486,0.039,2.949-0.043,4.414-0.091l4.392-0.226
				C86.903,292.409,89.834,292.22,92.809,292.244z"/>
		</g>
		<path style="fill:#242424;" d="M68.931,274.948c0.38-5.303-0.3-9.432-1.6-12.646c-1.577-0.162-2.625-0.065-2.625-0.065
			s1.75,5.005,3.725,11.487C68.559,274.145,68.729,274.553,68.931,274.948z"/>
		<path style="fill:#FDB800;" d="M68.145,276.548c0,0-13.788-3.175-16.715-10.778c-2.927-7.603-5.453-13.454-5.453-13.454
			S67.677,248.56,68.145,276.548z"/>
		<g>
			<path style="fill:#242424;" d="M58.651,268.196c1.604,1.34,3.202,2.681,4.843,3.969c1.617,1.317,3.251,2.612,4.913,3.868
				c3.315,2.522,6.637,5.037,10.11,7.332c3.433,2.348,6.954,4.57,10.6,6.568c0.895,0.531,1.84,0.963,2.759,1.45l1.389,0.712
				l1.425,0.631c0.954,0.411,1.877,0.911,2.861,1.25c0.977,0.357,1.953,0.726,2.929,1.105c-4.069-0.986-7.964-2.612-11.721-4.468
				c-3.755-1.876-7.302-4.124-10.803-6.422c-3.449-2.379-6.798-4.896-10.025-7.559C64.713,273.958,61.573,271.188,58.651,268.196z"
				/>
		</g>
	</g>
	<g>
		<path style="fill:#FDB800;" d="M333.049,299.651c0,0,6.706-13.369,2.094-19.639c-4.612-6.271-7.973-11.33-7.973-11.33
			S308.993,285.387,333.049,299.651z"/>
		<g>
			<path style="fill:#242424;" d="M334.342,306.139c-0.924-3.462-1.652-6.937-2.451-10.395c-0.381-1.733-0.79-3.457-1.219-5.175
				c-0.448-1.713-0.867-3.434-1.478-5.118c0.964,1.518,1.648,3.201,2.226,4.896c0.588,1.697,1.044,3.432,1.445,5.176
				C333.64,299.016,334.195,302.556,334.342,306.139z"/>
		</g>
		<path style="fill:#242424;" d="M335.901,281.318c-5.548-3.204-9-6.641-11.002-10.06c1.243-1.631,2.271-2.577,2.271-2.577
			s3.361,5.059,7.973,11.33C335.443,280.419,335.692,280.857,335.901,281.318z"/>
		<path style="fill:#FDB800;" d="M338.172,281.637c0,0,9.144-15.443,4.277-23.388c-4.866-7.945-8.368-14.322-8.368-14.322
			S311.091,262.339,338.172,281.637z"/>
		<path style="fill:#FDB800;" d="M358.935,274.351c0,0-16.077,7.996-17.299,17.796c-1.222,9.8-2.501,17.427-2.501,17.427
			S367.209,307.225,358.935,274.351z"/>
		<g>
			<path style="fill:#242424;" d="M287.586,383.823c3.684-8.418,8.115-16.504,13.027-24.283c2.438-3.903,5.104-7.663,7.9-11.321
				c2.784-3.682,5.839-7.123,8.708-10.688c5.841-7.073,11.42-14.364,16.999-21.653c2.788-3.647,5.557-7.308,8.305-10.986
				l8.26-11.024c-5.159,7.601-10.507,15.071-15.949,22.471c-5.456,7.391-11.047,14.685-16.841,21.825
				c-2.912,3.568-5.983,6.982-8.762,10.61c-2.815,3.61-5.448,7.361-7.976,11.183c-2.526,3.823-4.92,7.736-7.192,11.721
				C291.768,375.65,289.605,379.699,287.586,383.823z"/>
		</g>
		<g>
			<path style="fill:#242424;" d="M338.411,266.851c0.272,4.997,0.163,10.009-0.112,15.009c-0.288,5-0.837,9.986-1.576,14.945
				c-0.854,4.94-1.864,9.862-3.303,14.672c-1.496,4.788-3.332,9.485-5.799,13.844l1.491-3.439c0.543-1.123,0.879-2.334,1.319-3.498
				l0.643-1.753c0.212-0.585,0.367-1.19,0.553-1.784c0.349-1.196,0.732-2.38,1.054-3.582c1.274-4.815,2.284-9.695,3.056-14.617
				c0.817-4.916,1.348-9.876,1.799-14.843c0.232-2.484,0.408-4.974,0.54-7.466C338.249,271.847,338.337,269.351,338.411,266.851z"/>
		</g>
		<path style="fill:#FDB800;" d="M312.159,330.677c0,0,9.947-11.766,7.222-19.313c-2.725-7.547-4.58-13.542-4.58-13.542
			S293.036,309.963,312.159,330.677z"/>
		<g>
			<path style="fill:#242424;" d="M314.705,318.083c-0.426,3.676-1.125,7.315-1.932,10.928c-0.801,3.615-1.796,7.186-2.901,10.723
				c-1.125,3.53-2.425,7.008-3.906,10.406c-1.495,3.392-3.207,6.691-5.182,9.819c0.764-1.689,1.646-3.307,2.333-5.022
				c0.78-1.669,1.453-3.385,2.139-5.092c1.304-3.443,2.568-6.899,3.664-10.414c1.122-3.506,2.135-7.048,3.11-10.603
				c0.485-1.778,0.946-3.564,1.379-5.357C313.881,321.684,314.282,319.884,314.705,318.083z"/>
		</g>
		<path style="fill:#FDB800;" d="M322.152,344.19c0,0,11.409-3.503,13.383-9.985c1.975-6.482,3.725-11.487,3.725-11.487
			S320.739,320.983,322.152,344.19z"/>
		<g>
			<path style="fill:#242424;" d="M318.595,348.726c1.713-2.624,3.587-5.093,5.431-7.583l2.778-3.719
				c0.906-1.254,1.843-2.484,2.688-3.802c-0.497,1.491-1.232,2.895-2.039,4.235c-0.8,1.349-1.697,2.632-2.628,3.886
				C322.941,344.232,320.909,346.608,318.595,348.726z"/>
		</g>
		<path style="fill:#FDB800;" d="M316.568,353.159c0,0,7.569,7.871,14.083,5.789c6.514-2.082,11.633-3.494,11.633-3.494
			S336.569,338.325,316.568,353.159z"/>
		<g>
			<path style="fill:#242424;" d="M311.158,352.724c2.974-0.025,5.906,0.165,8.838,0.308l4.392,0.226
				c1.464,0.048,2.928,0.129,4.414,0.091c-1.43,0.424-2.925,0.607-4.408,0.689c-1.486,0.095-2.972,0.064-4.453-0.009
				C316.983,353.853,314.038,353.48,311.158,352.724z"/>
		</g>
		<path style="fill:#242424;" d="M335.036,335.428c-0.38-5.303,0.3-9.432,1.6-12.646c1.577-0.162,2.625-0.065,2.625-0.065
			s-1.75,5.005-3.725,11.487C335.407,334.625,335.238,335.033,335.036,335.428z"/>
		<path style="fill:#FDB800;" d="M335.822,337.028c0,0,13.788-3.175,16.715-10.778c2.927-7.603,5.453-13.454,5.453-13.454
			S336.289,309.04,335.822,337.028z"/>
		<g>
			<path style="fill:#242424;" d="M345.316,328.676c-2.922,2.991-6.062,5.762-9.279,8.436c-3.227,2.663-6.577,5.18-10.025,7.559
				c-3.5,2.299-7.047,4.547-10.803,6.422c-3.757,1.857-7.651,3.482-11.721,4.468c0.976-0.379,1.952-0.749,2.929-1.105
				c0.984-0.339,1.907-0.84,2.861-1.25l1.425-0.631l1.389-0.712c0.919-0.487,1.864-0.919,2.759-1.45
				c3.646-1.998,7.166-4.22,10.6-6.568c3.473-2.294,6.794-4.809,10.11-7.332c1.662-1.257,3.296-2.552,4.913-3.868
				C342.114,331.357,343.712,330.016,345.316,328.676z"/>
		</g>
	</g>
	<g>
		<path style="fill:#011739;" d="M381.033,401.777l0.161,0.012l1.224-16.416c-0.238-0.001-0.474-0.004-0.707-0.008"/>
		<g>
			<g>
				<path style="fill:#BD8E8E;" d="M436.08,237.36c-0.501-2.215-1.984-3.517-3.917-4.074c3.012,5.212,1.936,11.564-4.243,11.034
					C427.92,244.32,439.08,250.62,436.08,237.36z"/>
				<path style="fill:#DEBDBD;" d="M427.38,228.48c-7.92-4.56-30.24,28.98-30.24,28.98l0.247-0.094
					c-12.617,19.18-16.769,40.531-18.247,60.676l4.282,13.233l-4.708-6.043c-0.583,12.565-0.372,24.484-0.834,34.887
					c-0.96,21.6,4.526,28.096,4.526,28.096s4.286-6.9,8.971-17.271l-3.784,1.402l5.064-4.299c3.1-7.2,6.22-15.764,8.263-24.728
					c0.43-1.886,1.236-5.082,2.259-9.218l-6.459,5.138l8.641-14.099c5.017-21.028,13.615-50.065,12.119-70.381
					c-0.263-3.564-1.415-10.845-0.036-14.143c2.282-5.458,9.903-8.718,14.719-7.331C431.08,231.413,429.474,229.686,427.38,228.48z"
					/>
			</g>
			<path style="fill:#DEBDBD;" d="M381.553,386.865c-1.244-3.608-2.368-7.224-3.722-10.725c-0.69-1.744-1.388-3.478-2.239-5.115
				c-0.828-1.636-1.764-3.238-2.958-4.478c-0.583-0.625-1.232-1.16-1.93-1.465c-0.697-0.311-1.424-0.362-2.166-0.194
				c-1.497,0.386-3.053,1.545-3.82,2.927c-0.382,0.701-0.521,1.48-0.338,2.24c0.158,0.78,0.653,1.48,1.316,2.029
				c1.364,1.107,3.264,1.6,5.132,1.872c-1.89,0.156-3.903-0.018-5.7-1.071c-0.87-0.55-1.65-1.397-2.004-2.456
				c-0.398-1.057-0.258-2.291,0.186-3.287c0.44-1.015,1.139-1.849,1.943-2.528c0.817-0.675,1.708-1.22,2.806-1.559
				c1.097-0.319,2.363-0.224,3.407,0.227c1.054,0.444,1.9,1.142,2.617,1.887c1.406,1.531,2.384,3.267,3.209,5.032
				c0.799,1.78,1.479,3.588,2.01,5.435C380.406,379.317,381.117,383.076,381.553,386.865z"/>
			<path style="fill:#DEBDBD;" d="M395.88,378.42c0.238,0.599,0.552,1.184,0.949,1.564c0.43,0.387,0.758,0.329,1.162,0.076
				c0.376-0.258,0.876-0.746,1.024-1.074c0.204-0.389,0.253-0.907,0.212-1.405c-0.083-1.02-0.673-1.94-1.446-2.314
				c-0.787-0.385-1.851-0.247-2.89,0.178c-2.1,0.883-3.999,2.583-5.806,4.288c-1.8,1.749-3.491,3.651-5.264,5.528
				c1.135-2.319,2.521-4.509,4.162-6.537c1.665-1.995,3.542-3.934,6.155-5.104c0.655-0.282,1.371-0.508,2.155-0.543
				c0.771-0.052,1.618,0.069,2.366,0.462c0.751,0.383,1.353,1.015,1.719,1.721c0.374,0.706,0.559,1.473,0.575,2.246
				c0.018,0.77-0.156,1.569-0.621,2.275c-0.533,0.751-1.088,1.078-1.846,1.385c-0.375,0.127-0.841,0.212-1.292,0.058
				c-0.45-0.15-0.752-0.492-0.933-0.811C395.906,379.752,395.849,379.073,395.88,378.42z"/>
			<path style="fill:#FFFFFF;" d="M394.44,292.92c0,0-8.64,29.52-12.034,95.296"/>
			<path style="opacity:0.1;fill:#2E3192;" d="M378.946,320.849l20.401-5.103c3.145-0.595,6.012-1.267,8.64-1.997
				c1.733-7.818,3.487-16.43,4.915-25.034l-30.911,7.496C380.333,304.499,379.445,312.784,378.946,320.849z"/>
		</g>
		<g>
			<path style="opacity:0.71;fill:#DEDEDE;" d="M412.072,405.992l-20.276-16.86c1.312-0.55,2.09-1.212,2.081-1.92
				c-0.007-0.524-0.03-2.387-0.036-2.91c-0.022-1.793-5.028-3.184-11.18-3.107c-6.374,0.079-11.479,1.703-11.077,3.58
				c0.012,0.716,0.028,1.763,0.04,2.478c-0.176,0.767,0.557,1.47,1.913,2.033l-20.496,17.201c-1.486,1.247-1.772,3.355-0.814,4.929
				l2.194,4.422l14.617,33.933c0.726,0.697,1.698,1.081,2.704,1.069l1.725,0.405c6.301,1.481,12.867,1.415,19.138-0.192l1.94-0.497
				c1.027-0.013,2.007-0.437,2.718-1.178l14.572-36.405c0.297-0.741,0.709-1.426,1.109-2.117
				C413.855,409.279,413.539,407.212,412.072,405.992z"/>
			<path style="fill:#011739;" d="M397.371,401.685l7.566,6.292c1.113,0.953,0.573,2.033,0.033,3.833l-11.444,32.67l-0.203,0.057
				c-6.774,1.884-13.924,1.954-20.734,0.204l0,0L360.12,411.66c-0.54-1.26-0.58-2.681,0.182-3.321l7.745-6.499L397.371,401.685z"/>
			<path style="fill:#0C397D;" d="M368.047,401.84c0,0,8.973-4.33,16.843-2.967c7.871,1.363,8.699,1.901,12.48,2.812
				c0,0,2.25,1.228-9.906,4.05C378.807,407.746,368.047,401.84,368.047,401.84z"/>
			<path style="fill:#FFFFFF;" d="M393.093,395.198c2.183,1.934,3.369,4.16,2.65,4.972c-0.72,0.812-3.072-0.097-5.255-2.03
				c-2.183-1.934-3.369-4.159-2.65-4.972C388.557,392.355,390.91,393.264,393.093,395.198z"/>
			<path style="fill:#FFFFFF;" d="M393.813,398.797c1.517,1.343,2.163,3.091,1.443,3.903c-0.72,0.812-2.532,0.382-4.049-0.962
				c-1.516-1.343-2.162-3.091-1.443-3.903C390.484,397.024,392.297,397.454,393.813,398.797z"/>
			<path style="opacity:0.15;fill:#2E3192;" d="M378.266,391.275c4.633-0.058,13.484-1.952,11.937-1.779
				c-12.509,1.398-16.667-0.21-16.667-0.21l-1.396,1.172C373.678,390.987,375.852,391.305,378.266,391.275z"/>
			<path style="fill:#0C397D;" d="M361.889,408.574c3.56,4.414,13.882,30.657,15.87,31.421c4.944,1.898,11.043,1.707,12.148,1.662
				c1.171-0.047,2.504-0.164,2.527-0.001c0.037,0.261-3.275,1.296-6.738,1.506c-2.754,0.167-6.579,0.399-10.462-2.018
				C371.332,438.715,362.653,410.425,361.889,408.574z"/>
			<ellipse style="fill:#011739;" cx="383.1" cy="447.967" rx="9.84" ry="1.477"/>
		</g>
	</g>
	<g>
		<path style="opacity:0.18;fill:#2E3192;" d="M82.2,363.96c0.089,3.417-4.577,9.483,0.48,20.64
			c7.701,16.991,51.346,78.653,55.56,80.76c4.8,2.4,12.96,12,59.04-3.36s139.68-41.76,141.12-43.68
			c1.44-1.92,13.92-14.88-18.24-25.44C320.16,392.88,80.839,311.509,82.2,363.96z"/>
		<path style="fill:#962F26;" d="M74.64,325.56l-2.042-15.448c-0.195-1.715,1.085-3.243,2.808-3.352l156.314-9.88l19.44,7.56
			L74.64,325.56z"/>
		<line style="fill:none;stroke:#011739;stroke-width:2;stroke-miterlimit:10;" x1="237" y1="304.2" x2="83.4" y2="318"/>
		<path style="fill:#6E1C27;" d="M74.38,307.023c-1.169,0.518-1.935,1.74-1.781,3.089l1.909,14.447l5.292-0.678
			C78.098,314.64,76.74,306.3,74.38,307.023z"/>
		<polygon style="fill:#011739;" points="107.032,312.277 108.306,318.75 117.008,317.901 115.734,311.64 		"/>
		<path style="fill:#DEBDBD;" d="M100.68,228.12c33,62,11.32,95.8,11.32,95.8l135.56-16c0,0,12.44-29-17.56-73
			s-22.24-80.68-29.24-99.68c-1.521-4.129-32.777-26.429-32.777-26.429C101.849,70.38,68.487,167.637,100.68,228.12z"/>
		<path style="fill:#D45C35;" d="M79.677,372.882c0.377,1.996,1.163,3.899,2.31,5.574c9.388,13.714,54.475,79.355,58.773,81.504
			c4.8,2.4,12.96,12,59.04-3.36c46.08-15.36,139.68-41.76,141.12-43.68c1.44-1.92,13.92-14.88-18.24-25.44
			c0,0,1.44-23.04-21.6-36.96c0,0-10.56-43.68-45.6-45.6c0,0-151.68,13.44-156.48,13.92
			C94.282,319.312,68.692,314.682,79.677,372.882z"/>
		<path style="opacity:0.1;fill:#2E3192;" d="M211.2,365.28c-0.011-0.083-12.838,1.517-15.12,1.8
			c-29.989,3.722-44.984,5.582-54,4.68c-7.797-0.78-19.17-3.519-32.509-12.974c1.767,7.129,3.273,15.491,4.309,25.334
			c0,0,0.223,0.271,0.605,0.79c5.855-3.347,17.619-5.693,36.955-9.19C180.882,370.395,211.217,365.408,211.2,365.28z"/>
		<path style="fill:#011739;" d="M130.8,391.68l169.32-33c0,0,12.48,5.76,14.88,28.32c0,0,29.76,6.72,21.12,12.48
			c-8.64,5.76-149.178,44.855-161.76,48c-13.44,3.36-23.28,5.52-32.88-12.24C141.48,435.24,144.6,420.72,130.8,391.68z"/>
		<g>
			<g>
				<path style="fill:#DEBDBD;" d="M150.446,390.233l0.053,4.08c0.016,1.226,2.366,2.19,5.248,2.152
					c2.883-0.037,5.207-1.061,5.191-2.287l-0.053-4.08L150.446,390.233z"/>
				<path style="fill:#FFFFFF;" d="M160.88,389.738c0.016,1.226-2.308,2.25-5.191,2.287c-2.883,0.037-5.232-0.926-5.248-2.152
					c-0.016-1.226,2.308-2.25,5.191-2.287C158.515,387.548,160.865,388.512,160.88,389.738z"/>
			</g>
			<g>
				<path style="fill:#DEBDBD;" d="M165.345,386.98l0.053,4.08c0.016,1.226,2.366,2.19,5.248,2.152
					c2.883-0.037,5.207-1.061,5.191-2.287l-0.053-4.08L165.345,386.98z"/>
				<path style="fill:#FFFFFF;" d="M175.78,386.485c0.016,1.226-2.308,2.25-5.191,2.287c-2.883,0.037-5.232-0.926-5.248-2.152
					c-0.016-1.226,2.308-2.25,5.191-2.287C173.414,384.295,175.764,385.259,175.78,386.485z"/>
			</g>
			<g>
				<path style="fill:#DEBDBD;" d="M180.244,383.727l0.053,4.08c0.016,1.226,2.366,2.19,5.248,2.152
					c2.883-0.037,5.207-1.061,5.191-2.287l-0.053-4.08L180.244,383.727z"/>
				<path style="fill:#FFFFFF;" d="M190.679,383.232c0.016,1.226-2.308,2.25-5.191,2.287c-2.883,0.037-5.232-0.926-5.248-2.152
					c-0.016-1.226,2.308-2.25,5.191-2.287C188.313,381.043,190.663,382.006,190.679,383.232z"/>
			</g>
			<g>
				<path style="fill:#DEBDBD;" d="M195.144,380.474l0.053,4.08c0.016,1.226,2.365,2.19,5.248,2.152
					c2.883-0.037,5.207-1.061,5.191-2.287l-0.053-4.08L195.144,380.474z"/>
				<path style="fill:#FFFFFF;" d="M205.578,379.98c0.016,1.226-2.308,2.25-5.191,2.287c-2.883,0.037-5.232-0.926-5.248-2.152
					c-0.016-1.226,2.308-2.25,5.191-2.287S205.562,378.754,205.578,379.98z"/>
			</g>
			<g>
				<path style="fill:#DEBDBD;" d="M210.043,377.222l0.053,4.08c0.016,1.226,2.366,2.19,5.248,2.152
					c2.883-0.037,5.207-1.061,5.191-2.287l-0.053-4.08L210.043,377.222z"/>
				<path style="fill:#FFFFFF;" d="M220.477,376.727c0.016,1.226-2.308,2.25-5.191,2.287c-2.883,0.037-5.232-0.926-5.248-2.152
					c-0.016-1.226,2.308-2.25,5.191-2.287C218.112,374.537,220.461,375.501,220.477,376.727z"/>
			</g>
			<g>
				<path style="fill:#DEBDBD;" d="M224.942,373.969l0.053,4.08c0.016,1.226,2.366,2.19,5.248,2.152
					c2.883-0.037,5.207-1.061,5.191-2.287l-0.053-4.08L224.942,373.969z"/>
				<path style="fill:#FFFFFF;" d="M235.377,373.474c0.016,1.226-2.308,2.25-5.191,2.287c-2.883,0.037-5.232-0.926-5.248-2.152
					c-0.016-1.226,2.308-2.25,5.191-2.287C233.011,371.285,235.361,372.248,235.377,373.474z"/>
			</g>
			<g>
				<path style="fill:#DEBDBD;" d="M239.841,370.716l0.053,4.08c0.016,1.226,2.366,2.19,5.248,2.152
					c2.883-0.037,5.207-1.061,5.191-2.287l-0.053-4.08L239.841,370.716z"/>
				<path style="fill:#FFFFFF;" d="M250.276,370.221c0.016,1.226-2.308,2.25-5.191,2.287c-2.883,0.037-5.232-0.926-5.248-2.152
					c-0.016-1.226,2.308-2.25,5.191-2.287C247.91,368.032,250.26,368.996,250.276,370.221z"/>
			</g>
			<g>
				<path style="fill:#DEBDBD;" d="M254.741,367.464l0.053,4.08c0.016,1.226,2.366,2.19,5.248,2.152
					c2.883-0.037,5.207-1.061,5.191-2.287l-0.053-4.08L254.741,367.464z"/>
				<path style="fill:#FFFFFF;" d="M265.175,366.969c0.016,1.226-2.308,2.25-5.191,2.287c-2.883,0.037-5.232-0.926-5.248-2.152
					c-0.016-1.226,2.308-2.25,5.191-2.287C262.809,364.779,265.159,365.743,265.175,366.969z"/>
			</g>
			<g>
				<path style="fill:#DEBDBD;" d="M269.64,364.211l0.053,4.08c0.016,1.226,2.366,2.19,5.248,2.152
					c2.883-0.037,5.207-1.061,5.191-2.287l-0.053-4.08L269.64,364.211z"/>
				<path style="fill:#FFFFFF;" d="M280.074,363.716c0.016,1.226-2.308,2.25-5.191,2.287c-2.883,0.037-5.232-0.926-5.248-2.152
					c-0.016-1.226,2.308-2.25,5.191-2.287C277.709,361.526,280.059,362.49,280.074,363.716z"/>
			</g>
			<g>
				<path style="fill:#DEBDBD;" d="M284.539,360.958l0.053,4.08c0.016,1.226,2.366,2.19,5.248,2.152
					c2.883-0.037,5.207-1.061,5.191-2.287l-0.053-4.08L284.539,360.958z"/>
				<path style="fill:#FFFFFF;" d="M294.974,360.463c0.016,1.226-2.308,2.25-5.191,2.287c-2.883,0.037-5.232-0.926-5.248-2.152
					c-0.016-1.226,2.308-2.25,5.191-2.287C292.608,358.274,294.958,359.237,294.974,360.463z"/>
			</g>
		</g>
		<g>
			<g>
				<path style="fill:#DEBDBD;" d="M149.155,401.77l0.053,4.08c0.016,1.226,2.365,2.19,5.248,2.152
					c2.883-0.037,5.207-1.061,5.191-2.287l-0.053-4.08L149.155,401.77z"/>
				<path style="fill:#FFFFFF;" d="M159.589,401.275c0.016,1.226-2.308,2.25-5.191,2.287c-2.883,0.037-5.232-0.926-5.248-2.152
					c-0.016-1.226,2.308-2.25,5.191-2.287C157.224,399.086,159.574,400.049,159.589,401.275z"/>
			</g>
			<g>
				<path style="fill:#DEBDBD;" d="M164.054,398.517l0.053,4.08c0.016,1.226,2.366,2.19,5.248,2.152
					c2.883-0.037,5.207-1.061,5.191-2.287l-0.053-4.08L164.054,398.517z"/>
				<path style="fill:#FFFFFF;" d="M174.489,398.023c0.016,1.226-2.308,2.25-5.191,2.287c-2.883,0.037-5.232-0.927-5.248-2.152
					c-0.016-1.226,2.308-2.25,5.191-2.287C172.123,395.833,174.473,396.797,174.489,398.023z"/>
			</g>
			<g>
				<path style="fill:#DEBDBD;" d="M178.953,395.265l0.053,4.08c0.016,1.226,2.366,2.19,5.248,2.152
					c2.883-0.037,5.207-1.061,5.191-2.287l-0.053-4.08L178.953,395.265z"/>
				<path style="fill:#FFFFFF;" d="M189.388,394.77c0.016,1.226-2.308,2.25-5.191,2.287c-2.883,0.037-5.232-0.926-5.248-2.152
					c-0.016-1.226,2.308-2.25,5.191-2.287C187.022,392.58,189.372,393.544,189.388,394.77z"/>
			</g>
			<g>
				<path style="fill:#DEBDBD;" d="M193.853,392.012l0.053,4.08c0.016,1.226,2.366,2.19,5.248,2.152
					c2.883-0.037,5.207-1.061,5.191-2.287l-0.053-4.08L193.853,392.012z"/>
				<path style="fill:#FFFFFF;" d="M204.287,391.517c0.016,1.226-2.308,2.25-5.191,2.287c-2.883,0.037-5.232-0.927-5.248-2.152
					c-0.016-1.226,2.308-2.25,5.191-2.287C201.921,389.328,204.271,390.291,204.287,391.517z"/>
			</g>
			<g>
				<path style="fill:#DEBDBD;" d="M208.752,388.759l0.053,4.08c0.016,1.226,2.366,2.19,5.248,2.152
					c2.883-0.037,5.207-1.061,5.191-2.287l-0.053-4.08L208.752,388.759z"/>
				<path style="fill:#FFFFFF;" d="M219.186,388.264c0.016,1.226-2.308,2.25-5.191,2.287c-2.883,0.037-5.232-0.926-5.248-2.152
					c-0.016-1.226,2.308-2.25,5.191-2.287C216.821,386.075,219.171,387.039,219.186,388.264z"/>
			</g>
			<g>
				<path style="fill:#DEBDBD;" d="M223.651,385.507l0.053,4.08c0.016,1.226,2.366,2.19,5.248,2.152
					c2.883-0.037,5.207-1.061,5.191-2.287l-0.053-4.08L223.651,385.507z"/>
				<path style="fill:#FFFFFF;" d="M234.085,385.012c0.016,1.226-2.308,2.25-5.191,2.287c-2.883,0.037-5.232-0.927-5.248-2.152
					c-0.016-1.226,2.308-2.25,5.191-2.287C231.72,382.822,234.07,383.786,234.085,385.012z"/>
			</g>
			<g>
				<path style="fill:#DEBDBD;" d="M238.55,382.254l0.053,4.08c0.016,1.226,2.365,2.19,5.248,2.152
					c2.883-0.037,5.207-1.061,5.191-2.287l-0.053-4.08L238.55,382.254z"/>
				<path style="fill:#FFFFFF;" d="M248.985,381.759c0.016,1.226-2.308,2.25-5.191,2.287c-2.883,0.037-5.232-0.926-5.248-2.152
					c-0.016-1.226,2.308-2.25,5.191-2.287C246.619,379.569,248.969,380.533,248.985,381.759z"/>
			</g>
			<g>
				<path style="fill:#DEBDBD;" d="M253.449,379.001l0.053,4.08c0.016,1.226,2.366,2.19,5.248,2.152
					c2.883-0.037,5.207-1.061,5.191-2.287l-0.053-4.08L253.449,379.001z"/>
				<path style="fill:#FFFFFF;" d="M263.884,378.506c0.016,1.226-2.308,2.25-5.191,2.287c-2.883,0.037-5.232-0.927-5.248-2.152
					c-0.016-1.226,2.308-2.25,5.191-2.287C261.518,376.317,263.868,377.28,263.884,378.506z"/>
			</g>
			<g>
				<path style="fill:#DEBDBD;" d="M268.349,375.749l0.053,4.08c0.016,1.226,2.366,2.19,5.248,2.152
					c2.883-0.037,5.207-1.061,5.191-2.287l-0.053-4.08L268.349,375.749z"/>
				<path style="fill:#FFFFFF;" d="M278.783,375.254c0.016,1.226-2.308,2.25-5.191,2.287c-2.883,0.037-5.232-0.926-5.248-2.152
					c-0.016-1.226,2.308-2.25,5.191-2.287C276.418,373.064,278.767,374.028,278.783,375.254z"/>
			</g>
			<g>
				<path style="fill:#DEBDBD;" d="M283.248,372.496l0.053,4.08c0.016,1.226,2.366,2.19,5.248,2.152
					c2.883-0.037,5.207-1.061,5.191-2.287l-0.053-4.08L283.248,372.496z"/>
				<path style="fill:#FFFFFF;" d="M293.682,372.001c0.016,1.226-2.308,2.25-5.191,2.287c-2.883,0.037-5.232-0.926-5.248-2.152
					c-0.016-1.226,2.308-2.25,5.191-2.287C291.317,369.811,293.667,370.775,293.682,372.001z"/>
			</g>
			<g>
				<path style="fill:#DEBDBD;" d="M298.056,369.154l0.053,4.08c0.016,1.226,2.366,2.19,5.248,2.152
					c2.883-0.037,5.207-1.061,5.191-2.287l-0.053-4.08L298.056,369.154z"/>
				<path style="fill:#FFFFFF;" d="M308.49,368.659c0.016,1.226-2.308,2.25-5.191,2.287c-2.883,0.037-5.232-0.927-5.248-2.152
					c-0.016-1.226,2.308-2.25,5.191-2.287C306.125,366.47,308.475,367.434,308.49,368.659z"/>
			</g>
		</g>
		<g>
			<g>
				<path style="fill:#DEBDBD;" d="M175.666,407.63l0.053,4.08c0.016,1.226,2.366,2.189,5.249,2.151
					c2.883-0.038,5.207-1.062,5.19-2.288l-0.053-4.08L175.666,407.63z"/>
				<path style="fill:#FFFFFF;" d="M186.1,407.133c0.016,1.226-2.308,2.25-5.19,2.288c-2.883,0.038-5.233-0.926-5.249-2.151
					c-0.016-1.226,2.308-2.25,5.19-2.288C183.734,404.944,186.084,405.907,186.1,407.133z"/>
			</g>
			<g>
				<path style="fill:#DEBDBD;" d="M159.696,410.558l0.053,4.08c0.016,1.226,2.366,2.189,5.249,2.152
					c2.883-0.038,5.207-1.062,5.19-2.288l-0.053-4.08L159.696,410.558z"/>
				<path style="fill:#FFFFFF;" d="M170.13,410.062c0.016,1.226-2.308,2.25-5.19,2.288c-2.883,0.038-5.233-0.926-5.249-2.152
					c-0.016-1.226,2.308-2.25,5.191-2.288C167.765,407.873,170.115,408.836,170.13,410.062z"/>
			</g>
			<g>
				<path style="fill:#DEBDBD;" d="M190.564,404.375l0.053,4.08c0.016,1.226,2.366,2.189,5.249,2.151
					c2.883-0.038,5.206-1.062,5.191-2.288l-0.053-4.08L190.564,404.375z"/>
				<path style="fill:#FFFFFF;" d="M200.999,403.878c0.016,1.226-2.308,2.25-5.191,2.288c-2.883,0.038-5.232-0.926-5.249-2.152
					c-0.016-1.226,2.308-2.25,5.191-2.288C198.633,401.689,200.983,402.652,200.999,403.878z"/>
			</g>
			<g>
				<path style="fill:#DEBDBD;" d="M205.463,401.12l0.053,4.08c0.016,1.226,2.366,2.189,5.249,2.152
					c2.883-0.038,5.206-1.062,5.19-2.288l-0.053-4.08L205.463,401.12z"/>
				<path style="fill:#FFFFFF;" d="M215.898,400.623c0.016,1.226-2.308,2.25-5.191,2.288c-2.883,0.038-5.232-0.926-5.249-2.152
					c-0.016-1.226,2.308-2.25,5.191-2.288C213.532,398.434,215.882,399.397,215.898,400.623z"/>
			</g>
			<g>
				<path style="fill:#DEBDBD;" d="M220.362,397.865l0.053,4.08c0.016,1.226,2.366,2.189,5.249,2.151
					c2.883-0.038,5.206-1.062,5.191-2.288l-0.053-4.08L220.362,397.865z"/>
				<path style="fill:#FFFFFF;" d="M230.796,397.368c0.016,1.226-2.308,2.25-5.19,2.288c-2.883,0.038-5.233-0.926-5.249-2.151
					c-0.016-1.226,2.308-2.25,5.19-2.288C228.43,395.179,230.78,396.142,230.796,397.368z"/>
			</g>
			<g>
				<path style="fill:#DEBDBD;" d="M235.261,394.61l0.053,4.08c0.016,1.226,2.366,2.189,5.249,2.151
					c2.883-0.038,5.207-1.062,5.191-2.288l-0.053-4.08L235.261,394.61z"/>
				<path style="fill:#FFFFFF;" d="M245.695,394.113c0.016,1.226-2.308,2.25-5.191,2.288c-2.883,0.038-5.233-0.926-5.249-2.152
					c-0.016-1.226,2.308-2.25,5.19-2.288C243.329,391.924,245.679,392.887,245.695,394.113z"/>
			</g>
			<g>
				<path style="fill:#DEBDBD;" d="M250.159,391.355l0.053,4.08c0.016,1.226,2.366,2.189,5.249,2.152
					c2.883-0.038,5.207-1.062,5.19-2.288l-0.053-4.08L250.159,391.355z"/>
				<path style="fill:#FFFFFF;" d="M260.594,390.858c0.016,1.226-2.308,2.25-5.19,2.288c-2.883,0.038-5.232-0.926-5.249-2.152
					c-0.016-1.226,2.308-2.25,5.191-2.288C258.228,388.669,260.578,389.632,260.594,390.858z"/>
			</g>
			<g>
				<path style="fill:#DEBDBD;" d="M265.058,388.099l0.053,4.08c0.016,1.226,2.366,2.189,5.249,2.151
					c2.883-0.038,5.206-1.062,5.19-2.288l-0.053-4.08L265.058,388.099z"/>
				<path style="fill:#FFFFFF;" d="M275.493,387.603c0.016,1.226-2.308,2.25-5.191,2.288c-2.883,0.038-5.233-0.926-5.249-2.152
					c-0.016-1.226,2.308-2.25,5.19-2.288C273.127,385.414,275.477,386.377,275.493,387.603z"/>
			</g>
			<g>
				<path style="fill:#DEBDBD;" d="M279.957,384.845l0.053,4.08c0.016,1.226,2.366,2.189,5.249,2.152
					c2.883-0.038,5.207-1.062,5.19-2.288l-0.053-4.08L279.957,384.845z"/>
				<path style="fill:#FFFFFF;" d="M290.391,384.348c0.016,1.226-2.308,2.25-5.19,2.288c-2.883,0.038-5.233-0.926-5.249-2.152
					c-0.016-1.226,2.308-2.25,5.191-2.288S290.375,383.122,290.391,384.348z"/>
			</g>
			<g>
				<path style="fill:#DEBDBD;" d="M294.856,381.59l0.053,4.08c0.016,1.226,2.366,2.189,5.249,2.152
					c2.883-0.038,5.207-1.062,5.19-2.288l-0.053-4.08L294.856,381.59z"/>
				<path style="fill:#FFFFFF;" d="M305.29,381.093c0.016,1.226-2.308,2.25-5.191,2.288s-5.233-0.926-5.249-2.152
					c-0.016-1.226,2.308-2.25,5.19-2.288C302.924,378.904,305.274,379.867,305.29,381.093z"/>
			</g>
		</g>
		<path style="fill:#DEBDBD;" d="M321.54,402.3L172.2,445.56c-2.22,0.24-3.964-1.736-4.02-2.1c-0.354-2.288,0.72-8.34,0.72-8.34
			l150.338-39.313c0.263-0.068,0.543-0.027,0.776,0.113l1.856,1.31C322.08,397.68,322.4,402.069,321.54,402.3z"/>
		<path style="fill:#FFFFFF;" d="M321.231,398.654l-147.066,39.46c-0.871,0.234-1.801,0.101-2.571-0.368l-2.271-1.383
			c-0.763-0.464-0.592-1.618,0.272-1.841l149.644-38.715c0.263-0.068,0.543-0.027,0.776,0.113l1.477,0.893
			C322.253,397.274,322.09,398.424,321.231,398.654z"/>
		<g>
			<polygon style="fill:#FFFFFF;" points="169.8,419 155.9,422.1 151.3,419.3 165.2,416.2 			"/>
			<polygon style="fill:#DEBDBD;" points="155.9,422.1 155.9,431.6 169.7,427.75 169.8,419 			"/>
			<polygon style="fill:#C2C2C2;" points="155.9,422.1 155.9,431.6 151.2,428.05 151.3,419.3 			"/>
		</g>
		<g>
			<polygon style="fill:#FFFFFF;" points="329.88,382.546 317.415,385.326 313.29,382.815 325.755,380.035 			"/>
			<polygon style="fill:#DEBDBD;" points="317.415,385.326 317.415,393.845 329.79,390.393 329.88,382.546 			"/>
			<polygon style="fill:#C2C2C2;" points="317.415,385.326 317.415,393.845 313.2,390.662 313.29,382.815 			"/>
		</g>
		<g>
			<g>
				<path style="fill:#DEBDBD;" d="M189.275,415.913l0.053,4.08c0.016,1.226,2.366,2.189,5.249,2.152
					c2.883-0.038,5.206-1.062,5.191-2.288l-0.053-4.08L189.275,415.913z"/>
				<path style="fill:#FFFFFF;" d="M199.71,415.416c0.016,1.226-2.308,2.25-5.191,2.288c-2.883,0.038-5.232-0.926-5.249-2.151
					c-0.016-1.226,2.308-2.25,5.191-2.288C197.344,413.227,199.694,414.19,199.71,415.416z"/>
			</g>
			<g>
				<path style="fill:#DEBDBD;" d="M174.275,418.552l0.053,4.08c0.016,1.226,2.366,2.189,5.249,2.151
					c2.883-0.038,5.206-1.062,5.191-2.288l-0.053-4.08L174.275,418.552z"/>
				<path style="fill:#FFFFFF;" d="M184.71,418.056c0.016,1.226-2.308,2.25-5.191,2.288c-2.883,0.038-5.232-0.926-5.249-2.151
					c-0.016-1.226,2.308-2.25,5.191-2.288C182.344,415.867,184.694,416.83,184.71,418.056z"/>
			</g>
			<g>
				<path style="fill:#DEBDBD;" d="M204.174,412.658l0.053,4.08c0.016,1.226,2.366,2.189,5.249,2.151
					c2.883-0.038,5.206-1.062,5.191-2.288l-0.053-4.08L204.174,412.658z"/>
				<path style="fill:#FFFFFF;" d="M214.608,412.161c0.016,1.226-2.308,2.25-5.191,2.288c-2.883,0.038-5.233-0.926-5.249-2.152
					c-0.016-1.226,2.308-2.25,5.191-2.288C212.242,409.972,214.592,410.935,214.608,412.161z"/>
			</g>
			<g>
				<path style="fill:#DEBDBD;" d="M219.073,409.402l0.053,4.08c0.016,1.226,2.366,2.189,5.249,2.152
					c2.883-0.038,5.207-1.062,5.191-2.288l-0.053-4.08L219.073,409.402z"/>
				<path style="fill:#FFFFFF;" d="M229.507,408.906c0.016,1.226-2.308,2.25-5.191,2.288c-2.883,0.038-5.233-0.926-5.249-2.152
					c-0.016-1.226,2.308-2.25,5.191-2.288C227.141,406.717,229.491,407.68,229.507,408.906z"/>
			</g>
			<g>
				<path style="fill:#DEBDBD;" d="M233.971,406.147l0.053,4.08c0.016,1.226,2.366,2.189,5.249,2.151
					c2.883-0.038,5.207-1.062,5.191-2.288l-0.053-4.08L233.971,406.147z"/>
				<path style="fill:#FFFFFF;" d="M244.406,405.651c0.016,1.226-2.308,2.25-5.19,2.288c-2.883,0.038-5.233-0.926-5.249-2.152
					c-0.016-1.226,2.308-2.25,5.191-2.288C242.04,403.462,244.39,404.425,244.406,405.651z"/>
			</g>
			<g>
				<path style="fill:#DEBDBD;" d="M248.87,402.892l0.053,4.08c0.016,1.226,2.366,2.189,5.249,2.151s5.207-1.062,5.19-2.288
					l-0.053-4.08L248.87,402.892z"/>
				<path style="fill:#FFFFFF;" d="M259.305,402.396c0.016,1.226-2.308,2.25-5.191,2.288c-2.883,0.038-5.232-0.926-5.249-2.152
					c-0.016-1.226,2.308-2.25,5.191-2.288C256.939,400.207,259.288,401.17,259.305,402.396z"/>
			</g>
			<g>
				<path style="fill:#DEBDBD;" d="M263.769,399.637l0.053,4.08c0.016,1.226,2.366,2.189,5.249,2.152
					c2.883-0.038,5.206-1.062,5.19-2.288l-0.053-4.08L263.769,399.637z"/>
				<path style="fill:#FFFFFF;" d="M274.203,399.141c0.016,1.226-2.308,2.25-5.191,2.288c-2.883,0.038-5.233-0.926-5.249-2.152
					c-0.016-1.226,2.308-2.25,5.19-2.288C271.837,396.952,274.187,397.915,274.203,399.141z"/>
			</g>
			<g>
				<path style="fill:#DEBDBD;" d="M278.668,396.382l0.053,4.08c0.016,1.226,2.366,2.189,5.249,2.152
					c2.883-0.038,5.207-1.062,5.191-2.288l-0.053-4.08L278.668,396.382z"/>
				<path style="fill:#FFFFFF;" d="M289.102,395.886c0.016,1.226-2.308,2.25-5.19,2.288c-2.883,0.038-5.233-0.926-5.249-2.152
					c-0.016-1.226,2.308-2.25,5.19-2.288C286.736,393.697,289.086,394.66,289.102,395.886z"/>
			</g>
			<g>
				<path style="fill:#DEBDBD;" d="M293.566,393.127l0.053,4.08c0.016,1.226,2.366,2.189,5.249,2.151
					c2.883-0.038,5.207-1.062,5.19-2.288l-0.053-4.08L293.566,393.127z"/>
				<path style="fill:#FFFFFF;" d="M304.001,392.631c0.016,1.226-2.308,2.25-5.191,2.288c-2.883,0.038-5.233-0.926-5.249-2.152
					c-0.016-1.226,2.308-2.25,5.191-2.288C301.635,390.442,303.985,391.405,304.001,392.631z"/>
			</g>
			<g>
				<path style="fill:#DEBDBD;" d="M308.374,389.784l0.053,4.08c0.016,1.226,2.366,2.189,5.249,2.152
					c2.883-0.038,5.207-1.062,5.191-2.288l-0.053-4.08L308.374,389.784z"/>
				<path style="fill:#FFFFFF;" d="M318.808,389.287c0.016,1.226-2.308,2.25-5.191,2.288c-2.883,0.038-5.233-0.926-5.249-2.152
					c-0.016-1.226,2.308-2.25,5.19-2.288C316.442,387.098,318.792,388.061,318.808,389.287z"/>
			</g>
		</g>
		<path style="fill:#962F26;" d="M113.88,384.12c-5.019-47.68-20.969-61.101-24.99-63.766c-8.005,3.368-16.368,14.616-9.213,52.527
			c0.377,1.996,1.163,3.899,2.31,5.574c7.21,10.532,35.473,51.686,50.147,71.192c0.003-0.388,0-0.786-0.014-1.208
			C130.68,404.28,113.88,384.12,113.88,384.12z"/>
		<path style="fill:#011739;" d="M85.546,322.287c-4.034,3.078-7.564,8.978-8.396,20.293l7.93,6.74L85.546,322.287z"/>
		<g>
			<path style="fill:#6E1C27;" d="M80.16,306.84c0.674,0.756,1.119,1.682,1.484,2.612c0.369,0.936,0.605,1.913,0.792,2.894
				c0.175,0.984,0.267,1.979,0.287,2.975c0.017,0.995-0.044,1.992-0.223,2.979c-0.237-0.978-0.393-1.945-0.554-2.908
				c-0.177-0.96-0.307-1.921-0.494-2.87c-0.162-0.953-0.348-1.9-0.553-2.845C80.683,308.733,80.467,307.791,80.16,306.84z"/>
		</g>
		<g>
			<path style="fill:#C98585;" d="M86.054,321.902c-0.362-3.609-1.166-6.484-1.796-6.421l-6.568,0.308l1.311,13.07l6.568-0.308
				C86.199,328.488,86.416,325.511,86.054,321.902z"/>
			<path style="fill:#011739;" d="M79.486,322.21c0.362,3.609,0.145,6.586-0.485,6.65s-1.434-2.812-1.796-6.421
				c-0.362-3.609-0.145-6.586,0.485-6.649C78.32,315.726,79.124,318.6,79.486,322.21z"/>
		</g>
		<path style="fill:#F4804D;" d="M101.4,329.28c9.6,12.36,13.44,20.28,14.76,32.76c0.554,5.242,7.779-3.484,17.64-11.52
			c5.215-4.25,10.577-6.417,39.96-11.88c18.738-3.484,28.107-5.225,31.68-5.4c25.415-1.242,32.007,6.164,47.16,0
			c9.25-3.763,11.647-8.498,19.08-7.92c12.04,0.936,20,14.47,20.52,14.04c1.614-1.335-12.082-24.435-25.56-28.8
			c-1.328-0.43,4.335,4.278-2.52,4.68c-14.522,0.851-25.445,5.28-26.64,5.76c-20.549,8.245-30.171-1.853-62.28,5.04
			c-25.62,5.5-46.438,17.712-54.36,9.72c-1.452-1.465-5.117-6.278-11.16-7.2C108.255,328.342,100.043,327.533,101.4,329.28z"/>
		<path style="fill:#F4804D;" d="M150,451.14c3.3,2.58,10.212,5.819,17.28,4.86c52.6-7.14,111.774-32.694,139.08-39.72
			c6.369-1.639,12.441-4.588,18.96-5.46c4.862-0.65,9.65-0.722,12.6-4.32c2.064-2.518,2.761-6.195,1.98-6.66
			c-0.816-0.486-3.179,2.565-5.22,4.5c-7.201,6.828-17.773,6.77-22.14,7.02c-14.32,0.82-18.654,8.192-59.04,20.52
			c-9.623,2.938-26.995,7.118-61.74,15.48c-3.008,0.724-8.406,2.016-15.66,3.42C165.572,452.818,161.7,456.36,150,451.14z"/>
		<g>
			<g>
				<path style="fill:#C98585;" d="M80.63,331.419c-0.635-6.331-2.045-11.373-3.15-11.262l-11.52,0.54l2.3,22.925l11.52-0.54
					C80.884,342.972,81.265,337.75,80.63,331.419z"/>
				<path style="fill:#011739;" d="M69.11,331.959c0.635,6.331,0.255,11.552-0.85,11.663c-1.104,0.111-2.515-4.931-3.15-11.262
					c-0.635-6.331-0.255-11.552,0.85-11.663C67.064,320.587,68.475,325.629,69.11,331.959z"/>
			</g>
			<path style="fill:#DEBDBD;" d="M68.865,321.315c-0.213,0.058,1.975,3.793,2.295,6.602c0.153,1.339,0.049,2.241,0.27,2.263
				c0.267,0.026,0.936-1.245,1.08-2.616c0.096-0.915-0.108-1.248,0.27-1.556c0.41-0.334,0.924-0.166,2.7-0.354
				c1.358-0.144,1.348-0.273,1.71-0.212c1.89,0.318,2.242,3.853,2.52,3.819c0.213-0.026,0.173-2.116-0.72-4.738
				c-0.611-1.795-1.444-3.318-1.89-3.253c-0.419,0.061,0.027,1.447-1.08,2.192c-0.361,0.243-1.021,0.327-2.34,0.495
				c-1.404,0.179-2.118,0.263-2.7,0C70.168,323.59,68.984,321.283,68.865,321.315z"/>
		</g>
		<path style="opacity:0.1;fill:#2E3192;" d="M115.553,108.031c14.166,8.384,28.908,22.183,42.007,45.689
			c23.956,42.989,52.8,155.28,52.8,155.28s37.92,24.72,39.36,49.68l51.261-8.544c-0.033-0.125-0.077-0.285-0.127-0.468
			c-0.006-0.022-0.013-0.046-0.019-0.068c-0.05-0.178-0.108-0.383-0.174-0.609c-0.011-0.036-0.022-0.076-0.033-0.113
			c-0.068-0.231-0.143-0.483-0.227-0.757c-0.013-0.041-0.027-0.086-0.04-0.128c-0.088-0.285-0.184-0.589-0.289-0.915
			c-0.013-0.04-0.027-0.083-0.04-0.123c-0.101-0.312-0.211-0.642-0.329-0.987c-0.019-0.055-0.036-0.108-0.055-0.164
			c-0.121-0.354-0.253-0.729-0.391-1.114c-0.027-0.075-0.052-0.147-0.08-0.224c-0.138-0.382-0.287-0.782-0.441-1.191
			c-0.037-0.098-0.073-0.195-0.112-0.295c-0.156-0.407-0.321-0.829-0.493-1.259c-0.044-0.111-0.089-0.222-0.134-0.334
			c-0.175-0.432-0.358-0.875-0.549-1.326c-0.052-0.123-0.105-0.246-0.158-0.37c-0.195-0.455-0.399-0.919-0.611-1.391
			c-0.056-0.125-0.114-0.251-0.171-0.377c-0.219-0.482-0.447-0.97-0.684-1.467c-0.058-0.121-0.117-0.243-0.176-0.364
			c-0.246-0.509-0.5-1.023-0.766-1.543c-0.056-0.11-0.115-0.221-0.171-0.331c-0.278-0.539-0.564-1.083-0.863-1.632
			c-0.046-0.084-0.094-0.169-0.14-0.253c-0.293-0.533-0.595-1.07-0.908-1.609c-0.05-0.087-0.1-0.173-0.15-0.26
			c-0.324-0.554-0.662-1.111-1.008-1.668c-0.061-0.099-0.121-0.197-0.183-0.296c-0.349-0.556-0.711-1.111-1.081-1.667
			c-0.077-0.116-0.153-0.231-0.231-0.346c-0.369-0.546-0.75-1.09-1.14-1.632c-0.088-0.122-0.176-0.245-0.264-0.367
			c-0.394-0.539-0.799-1.075-1.215-1.608c-0.094-0.12-0.188-0.24-0.282-0.36c-0.423-0.534-0.856-1.064-1.301-1.588
			c-0.096-0.113-0.193-0.226-0.29-0.339c-0.456-0.529-0.922-1.052-1.402-1.569c-0.093-0.1-0.187-0.198-0.281-0.297
			c-0.495-0.525-1-1.043-1.52-1.551c-0.082-0.081-0.167-0.159-0.25-0.239c-0.542-0.522-1.094-1.037-1.664-1.539
			c-0.058-0.051-0.118-0.101-0.177-0.152c-0.582-0.507-1.177-1.004-1.788-1.487c-0.035-0.027-0.068-0.055-0.103-0.083
			c-0.623-0.489-1.264-0.961-1.918-1.421c-0.069-0.049-0.136-0.099-0.206-0.147c-0.638-0.443-1.294-0.868-1.962-1.28
			c-0.094-0.058-0.187-0.118-0.281-0.175c-0.659-0.399-1.334-0.779-2.021-1.144c-0.112-0.06-0.223-0.12-0.336-0.178
			c-0.685-0.356-1.386-0.693-2.1-1.012c-0.122-0.055-0.244-0.109-0.367-0.162c-0.719-0.313-1.453-0.607-2.202-0.88
			c-0.124-0.045-0.249-0.089-0.374-0.133c-0.76-0.269-1.535-0.518-2.326-0.744c-0.118-0.034-0.237-0.065-0.356-0.097
			c-0.81-0.223-1.634-0.425-2.476-0.599c-0.1-0.021-0.202-0.038-0.302-0.058c-0.871-0.173-1.756-0.323-2.661-0.441
			c-0.066-0.009-0.133-0.014-0.199-0.022c-0.949-0.118-1.914-0.21-2.901-0.264c0,0-2.613,0.232-7.133,0.632
			c2.187-7.746,6.641-33.984-18.346-70.632c-30-44-22.24-80.68-29.24-99.68c-1.521-4.129-32.777-26.429-32.777-26.429
			c-4.825-2.804-15.725-5.895-28.864-8.724C130.218,100.132,122.319,103.028,115.553,108.031z"/>
		<g>
			<path style="fill:#DEBDBD;" d="M132.415,391.21l0.053,4.08c0.016,1.226,2.366,2.19,5.248,2.152
				c2.883-0.037,5.207-1.061,5.191-2.287l-0.053-4.08L132.415,391.21z"/>
			<path style="fill:#FFFFFF;" d="M142.849,390.715c0.016,1.226-2.308,2.25-5.191,2.287c-2.883,0.037-5.232-0.926-5.248-2.152
				c-0.016-1.226,2.308-2.25,5.191-2.287C140.484,388.526,142.833,389.489,142.849,390.715z"/>
		</g>
		<g>
			<path style="fill:#DEBDBD;" d="M134.755,404.17l0.053,4.08c0.016,1.226,2.365,2.19,5.248,2.152
				c2.883-0.037,5.207-1.061,5.191-2.287l-0.053-4.08L134.755,404.17z"/>
			<path style="fill:#FFFFFF;" d="M145.189,403.675c0.016,1.226-2.308,2.25-5.191,2.287c-2.883,0.037-5.232-0.926-5.248-2.152
				c-0.016-1.226,2.308-2.25,5.191-2.287C142.824,401.486,145.173,402.449,145.189,403.675z"/>
		</g>
		<g>
			<g>
				<path style="fill:#FFFFFF;" d="M341.16,197.88C324.24,132,311.288,99.722,264.12,90.6c-18.546-3.587-32.4,0.72-50.722,1.655
					L145.68,98.7c-3.655,0.338-14.8,1.749-18.18,3.18l0,0c7.11-0.45,21.857,5.045,37.98,20.4c45.36,43.2,48.916,124.232,81,184.32
					c20.76,38.88,57.24,14.4,154.44-7.2C393.055,292.531,354.859,251.218,341.16,197.88z"/>
			</g>
			<path style="fill:#DEBDBD;" d="M432.24,269.16L312,298.32c0,0,1.08,18.6-26.176,28.51c11.956-0.97,45.205-8.816,52.456-10.69
				l59.147-14.794C441.96,292.92,432.41,269.652,432.24,269.16z"/>
			<g>
				<g>
					<path style="fill:#3878A6;" d="M167.983,108.811c8.714-0.943,17.437-1.777,26.162-2.594l26.184-2.329l26.204-2.098
						l13.109-0.967l13.118-0.862l-13.076,1.351l-13.085,1.245l-26.185,2.327l-26.204,2.096
						C185.472,107.637,176.732,108.279,167.983,108.811z"/>
				</g>
				<g>
					<path style="fill:#3878A6;" d="M181.663,116.011c8.714-0.943,17.437-1.777,26.162-2.594l26.184-2.329l26.204-2.098
						l13.109-0.967l13.118-0.862l-13.076,1.351l-13.085,1.245l-26.184,2.327l-26.204,2.097
						C199.152,114.838,190.412,115.479,181.663,116.011z"/>
				</g>
				<g>
					<path style="fill:#3878A6;" d="M195.343,123.211c8.714-0.943,17.437-1.777,26.162-2.594l26.184-2.329l26.204-2.098
						l13.109-0.967l13.118-0.862l-13.076,1.351l-13.085,1.245l-26.184,2.327l-26.204,2.097
						C212.832,122.037,204.092,122.679,195.343,123.211z"/>
				</g>
				<g>
					<path style="fill:#3878A6;" d="M200.383,132.571c8.714-0.943,17.437-1.777,26.162-2.594l26.184-2.329l26.204-2.098
						l13.109-0.967l13.118-0.862l-13.076,1.351l-13.085,1.245l-26.184,2.327l-26.204,2.096
						C217.872,131.398,209.132,132.039,200.383,132.571z"/>
				</g>
				<g>
					<path style="fill:#3878A6;" d="M209.023,142.651c5.974-0.723,11.957-1.337,17.941-1.934c5.984-0.6,11.976-1.11,17.964-1.669
						c5.995-0.479,11.986-1,17.984-1.438l8.999-0.637c3.003-0.176,6.003-0.386,9.008-0.532c-2.986,0.372-5.977,0.679-8.966,1.021
						l-8.975,0.915c-5.984,0.597-11.976,1.111-17.964,1.667c-5.995,0.476-11.986,1.001-17.984,1.437
						C221.032,141.917,215.033,142.339,209.023,142.651z"/>
				</g>
				<g>
					<g>
						<path style="fill:#3878A6;" d="M220.754,172.002c7.638-1.223,15.29-2.337,22.945-3.434l22.98-3.17l23.01-2.941l11.516-1.389
							l11.53-1.284l-11.465,1.77l-11.479,1.666l-22.98,3.169l-23.011,2.939C236.124,170.266,228.446,171.188,220.754,172.002z"/>
					</g>
					<g>
						<path style="fill:#3878A6;" d="M225.701,180.559c7.638-1.223,15.29-2.337,22.945-3.434l22.98-3.171l23.01-2.941l11.516-1.389
							l11.53-1.285l-11.465,1.77l-11.479,1.666l-22.98,3.169l-23.011,2.939C241.071,178.823,233.393,179.745,225.701,180.559z"/>
					</g>
					<g>
						<path style="fill:#3878A6;" d="M230.647,189.116c7.638-1.223,15.29-2.337,22.945-3.434l22.98-3.171l23.01-2.941l11.516-1.389
							l11.53-1.285l-11.466,1.771l-11.479,1.666l-22.98,3.169l-23.011,2.939C246.017,187.38,238.339,188.302,230.647,189.116z"/>
					</g>
					<g>
						<path style="fill:#3878A6;" d="M232.714,197.722c7.638-1.223,15.29-2.337,22.945-3.434l22.98-3.17l23.01-2.941l11.516-1.389
							l11.53-1.284l-11.465,1.77l-11.479,1.666l-22.98,3.169l-23.011,2.939C248.084,195.986,240.406,196.908,232.714,197.722z"/>
					</g>
					<g>
						<path style="fill:#3878A6;" d="M235.861,206.31c7.638-1.223,15.29-2.337,22.945-3.434l22.98-3.17l23.01-2.941l11.516-1.389
							l11.53-1.285l-11.465,1.77l-11.479,1.666l-22.98,3.169l-23.011,2.939C251.231,204.573,243.553,205.496,235.861,206.31z"/>
					</g>
					<g>
						<path style="fill:#3878A6;" d="M238.287,214.91c3.953-0.77,7.922-1.431,11.893-2.076c3.971-0.647,7.954-1.205,11.931-1.812
							c3.988-0.527,7.97-1.096,11.963-1.583l5.993-0.71c2.003-0.201,4.001-0.435,6.008-0.606c-1.975,0.395-3.96,0.726-5.939,1.091
							l-5.954,0.986c-3.971,0.644-7.954,1.206-11.931,1.81c-3.988,0.524-7.969,1.097-11.963,1.581
							C246.295,214.078,242.299,214.548,238.287,214.91z"/>
					</g>
				</g>
				<g>
					<g>
						<path style="fill:#3878A6;" d="M247.501,246.329c7.578-1.551,15.175-2.994,22.775-4.421l22.822-4.159l22.862-3.931
							l11.445-1.884l11.464-1.781l-11.378,2.263l-11.397,2.159l-22.822,4.157l-22.863,3.929
							C262.782,243.931,255.151,245.184,247.501,246.329z"/>
					</g>
					<g>
						<path style="fill:#3878A6;" d="M252.812,254.664c7.578-1.551,15.175-2.994,22.776-4.421l22.822-4.158l22.862-3.931
							l11.445-1.885l11.464-1.781l-11.378,2.263l-11.397,2.159l-22.822,4.157l-22.863,3.929
							C268.093,252.267,260.462,253.519,252.812,254.664z"/>
					</g>
					<g>
						<path style="fill:#3878A6;" d="M258.123,263c7.578-1.551,15.175-2.994,22.775-4.421l22.822-4.158l22.862-3.931l11.445-1.884
							l11.464-1.781l-11.378,2.263l-11.397,2.159l-22.822,4.157l-22.863,3.929C273.404,260.602,265.773,261.855,258.123,263z"/>
					</g>
					<g>
						<path style="fill:#3878A6;" d="M260.559,271.509c7.578-1.551,15.175-2.994,22.775-4.421l22.822-4.158l22.862-3.931
							l11.445-1.884l11.464-1.781l-11.378,2.263l-11.397,2.159l-22.822,4.157l-22.863,3.929
							C275.84,269.111,268.209,270.364,260.559,271.509z"/>
					</g>
					<g>
						<path style="fill:#3878A6;" d="M264.073,279.953c7.578-1.551,15.175-2.994,22.776-4.421l22.822-4.159l22.862-3.931
							l11.445-1.884l11.464-1.78l-11.379,2.263l-11.397,2.159l-22.822,4.157l-22.863,3.929
							C279.354,277.555,271.723,278.808,264.073,279.953z"/>
					</g>
					<g>
						<path style="fill:#3878A6;" d="M266.869,288.44c3.916-0.939,7.853-1.771,11.793-2.587c3.939-0.818,7.895-1.547,11.841-2.325
							c3.961-0.698,7.915-1.439,11.884-2.097l5.957-0.968c1.992-0.287,3.978-0.607,5.976-0.864c-1.956,0.48-3.924,0.896-5.886,1.346
							l-5.906,1.242c-3.94,0.815-7.895,1.548-11.842,2.323c-3.962,0.696-7.915,1.44-11.884,2.095
							C274.833,287.264,270.861,287.906,266.869,288.44z"/>
					</g>
				</g>
			</g>
		</g>
		<g>
			<path style="fill:#FFFFFF;" d="M106.956,286.011c0,0-2.066,14.206,6.273,15.22c8.339,1.014,8.047-14.882,8.047-14.882
				s6.63-2.434,3.617-4.299s-5.742,1.091-5.742,1.091s2.691-5.427-0.644-5.446c-3.334-0.019-3.434,5.578-3.434,5.578
				s-0.593-8.244-5.465-5.161c-4.872,3.083,1.331,6.158,1.331,6.158s-8.736-4.109-7.652-0.302
				C104.372,287.776,106.956,286.011,106.956,286.011z"/>
			<path style="fill:#FDB800;" d="M107.608,296.16c0,0,3.597,0.836,5.621,5.072c0,0,5.629-5.734,7.572-5.607
				c0,0-2.627,8.783-7.7,7.55C108.029,301.941,107.608,296.16,107.608,296.16z"/>
		</g>
		<g>
			<path style="fill:#FFFFFF;" d="M295.681,343.158c0,0,6.765,12.662,14.079,8.531c7.314-4.131-2.351-16.754-2.351-16.754
				s3.894-5.892,0.362-5.607c-3.532,0.286-3.975,4.285-3.975,4.285s-1.053-5.965-3.749-4.002c-2.695,1.963,0.545,6.528,0.545,6.528
				s-5.368-6.285-7.461-0.913c-2.093,5.372,4.724,4.168,4.724,4.168s-9.47,1.875-6.339,4.296
				C294.648,346.111,295.681,343.158,295.681,343.158z"/>
			<path style="fill:#FDB800;" d="M302.226,350.941c0,0,3.392-1.461,7.534,0.748c0,0,1.13-7.956,2.769-9.006
				c0,0,3.096,8.629-1.719,10.646C305.995,355.345,302.226,350.941,302.226,350.941z"/>
		</g>
		<g>
			<path style="fill:#FFFFFF;" d="M123.174,300.075c0,0-1.641-12.585,4.345-10.242c5.986,2.343,0.252,10.515,0.252,10.515
				s22.816-1.791,14.76,5.289c-8.055,7.079-14.1-1.67-14.1-1.67s9.618,14.211,3.371,12.927s-5.703-10.48-5.703-10.48
				s-3.048,8.49-8.875,4.804c-5.827-3.686,4.414-7.375,4.414-7.375s-11.527,1.903-9.696-5.506
				C113.773,290.928,123.174,300.075,123.174,300.075z"/>
			<g>
				<path style="fill:#FDB800;" d="M123.141,302.659c-0.351-1.769,3.579-5.274,6.121-3.973c1.753,0.897,2.465,3.884,1.418,5.274
					C129.103,306.053,123.516,304.549,123.141,302.659z"/>
			</g>
		</g>
		<g>
			<path style="fill:#FFFFFF;" d="M331.021,399.682c0,0-8.863-3.903-4.968-6.884c3.895-2.981,6.962,3.991,6.962,3.991
				s7.848-15.599,9.285-7.543c1.437,8.055-6.662,8.542-6.662,8.542s13.076-0.661,9.769,2.909c-3.308,3.57-9.094-0.419-9.094-0.419
				s4.336,5.345-0.372,7.691c-4.709,2.346-3.069-5.795-3.069-5.795s-3.314,8.275-7.426,4.152
				C321.335,402.203,331.021,399.682,331.021,399.682z"/>
			<g>
				<path style="fill:#FDB800;" d="M332.693,400.725c-1.293-0.47-2.028-4.42-0.173-5.565c1.278-0.789,3.509-0.074,4.003,1.159
					C337.266,398.176,334.076,401.228,332.693,400.725z"/>
			</g>
		</g>
		<g>
			<path style="fill:#FFFFFF;" d="M313.368,355.294c0,0-0.684-12.673,5.108-9.884c5.792,2.789-0.544,10.504-0.544,10.504
				s22.886-0.059,14.318,6.391c-8.568,6.45-13.933-2.732-13.933-2.732s8.515,14.898,2.383,13.145
				c-6.132-1.754-4.894-10.881-4.894-10.881s-3.682,8.235-9.213,4.118c-5.531-4.116,4.959-7.02,4.959-7.02
				s-11.638,1.025-9.252-6.224S313.368,355.294,313.368,355.294z"/>
			<g>
				<path style="fill:#FDB800;" d="M313.138,357.867c-0.216-1.79,3.968-4.988,6.405-3.498c1.68,1.027,2.164,4.06,1.014,5.366
					C318.826,361.704,313.37,359.781,313.138,357.867z"/>
			</g>
		</g>
		<g>
			<path style="fill:#FFFFFF;" d="M94.62,312.509c0,0-10.485-7.152-4.752-10.06c5.733-2.908,8.015,6.81,8.015,6.81
				s13.849-18.22,13.771-7.496c-0.078,10.724-10.631,9.411-10.631,9.411s17.008,2.281,11.891,6.088
				c-5.117,3.808-11.617-2.719-11.617-2.719s4.307,7.926-2.322,9.821c-6.629,1.896-2.566-8.203-2.566-8.203
				s-6.252,9.869-10.563,3.572C81.535,313.437,94.62,312.509,94.62,312.509z"/>
			<g>
				<path style="fill:#FDB800;" d="M96.525,314.254c-1.553-0.915-1.554-6.181,1.11-7.213c1.836-0.711,4.539,0.745,4.88,2.452
					C103.027,312.064,98.186,315.232,96.525,314.254z"/>
			</g>
		</g>
		<g>
			<path style="fill:#FFFFFF;" d="M77.479,241.927c0,0-6.897-10.654-0.485-11.115c6.412-0.461,4.752,9.383,4.752,9.383
				s19.825-11.434,15.6-1.577c-4.225,9.857-13.446,4.559-13.446,4.559s14.798,8.689,8.605,10.218
				c-6.193,1.529-9.658-7.006-9.658-7.006s0.902,8.975-5.944,8.155c-6.846-0.82,0.811-8.556,0.811-8.556s-9.587,6.677-11.122-0.798
				C65.056,237.715,77.479,241.927,77.479,241.927z"/>
			<g>
				<path style="fill:#FDB800;" d="M78.56,244.273c-1.078-1.445,0.961-6.301,3.816-6.22c1.968,0.056,3.896,2.445,3.549,4.151
					C85.402,244.773,79.712,245.819,78.56,244.273z"/>
			</g>
		</g>
		<g>
			<g>
				<path style="fill:#FDB800;" d="M113.215,380.416c0,0,0.868,9.645-3.398,12.329c-4.266,2.684-7.492,4.935-7.492,4.935
					S95.337,383.303,113.215,380.416z"/>
				<g>
					<path style="fill:#242424;" d="M115.534,376.814c-0.397,1.103-0.906,2.15-1.456,3.171c-0.545,1.025-1.16,2.009-1.806,2.975
						c-0.659,0.956-1.354,1.891-2.136,2.761c-0.776,0.867-1.613,1.711-2.611,2.337c0.711-0.929,1.346-1.875,1.996-2.818l1.925-2.843
						C112.749,380.51,114.035,378.61,115.534,376.814z"/>
				</g>
			</g>
			<g>
				<path style="fill:#FDB800;" d="M113.249,374.714c0,0-8.524,4.597-12.671,1.733c-4.147-2.864-7.487-4.942-7.487-4.942
					S103.554,359.418,113.249,374.714z"/>
				<g>
					<path style="fill:#242424;" d="M117.473,375.426c-1.171,0.07-2.332,0.014-3.488-0.09c-1.157-0.098-2.304-0.275-3.445-0.489
						c-1.138-0.23-2.272-0.5-3.379-0.876c-1.103-0.372-2.208-0.809-3.177-1.479c1.134,0.287,2.254,0.499,3.376,0.725l3.371,0.649
						C112.978,374.323,115.232,374.756,117.473,375.426z"/>
				</g>
			</g>
			<g>
				<path style="fill:#FFFFFF;" d="M113.631,374.534c0,0-7.58-10.18-1.213-11.06c6.368-0.88,5.357,9.051,5.357,9.051
					s19.032-12.709,15.463-2.597c-3.57,10.113-13.118,5.431-13.118,5.431s15.335,7.701,9.256,9.632
					c-6.079,1.931-10.096-6.357-10.096-6.357s1.488,8.897-5.397,8.527c-6.885-0.369,0.248-8.591,0.248-8.591
					s-9.128,7.292-11.15-0.067C100.959,371.146,113.631,374.534,113.631,374.534z"/>
				<g>
					<path style="fill:#FDB800;" d="M114.864,376.804c-1.17-1.372,0.546-6.35,3.4-6.457c1.968-0.073,4.048,2.185,3.814,3.909
						C121.724,376.854,116.115,378.271,114.864,376.804z"/>
				</g>
			</g>
		</g>
	</g>
	<g>
		<path style="fill:#DEBDBD;" d="M368.52,192.12c0.001-0.001,5.28-8.64,9.6-5.28c4.32,3.36,0.48,8.16-12,16.32
			c-2.27-2.438-4.56-4.873-6.53-7.565c-1.508-2.061-4.532-5.899-3.829-8.626c0.545-2.115,3.807-4.037,5.928-3.839
			c1.381,0.129,2.477,1.076,3.331,2.099c0.716,0.858,1.282,1.842,1.79,2.833C367.099,188.629,368.822,191.626,368.52,192.12z"/>
		<path style="fill:#DEBDBD;" d="M386.905,200.502c0-0.001,1.14-4.533,3.505-3.646c2.365,0.887,1.332,3.53-3.047,8.841
			c-1.335-0.763-2.679-1.521-3.917-2.437c-0.948-0.701-2.808-1.977-2.872-3.276c-0.05-1.007,1.123-2.302,2.085-2.506
			c0.626-0.133,1.239,0.134,1.756,0.468c0.433,0.28,0.818,0.636,1.178,1.003C385.799,199.159,386.97,200.243,386.905,200.502z"/>
		<path style="fill:#DEBDBD;" d="M349.719,127.057c0.001-0.001,3.47-4.034,5.426-1.926c1.956,2.108-0.442,4.273-7.605,7.448
			c-0.971-1.456-1.952-2.913-2.746-4.477c-0.608-1.196-1.851-3.443-1.256-4.798c0.462-1.051,2.316-1.771,3.399-1.489
			c0.705,0.184,1.194,0.768,1.55,1.371c0.299,0.506,0.509,1.064,0.688,1.621C349.278,125.127,349.917,126.827,349.719,127.057z"/>
	</g>
</g>
</svg>
