<?xml version="1.0" encoding="UTF-8" standalone="no"?>
<!-- Generator: Adobe Illustrator 27.5.0, SVG Export Plug-In . SVG Version: 6.00 Build 0)  -->

<svg
   version="1.1"
   x="0px"
   y="0px"
   viewBox="0 0 500 500"
   style="enable-background:new 0 0 500 500;"
   xml:space="preserve"
   id="svg109"
   sodipodi:docname="4653787_2474858.svg"
   inkscape:export-filename="4653787_2474858.svg"
   inkscape:export-xdpi="96"
   inkscape:export-ydpi="96"
   inkscape:version="1.3.2 (091e20e, 2023-11-25)"
   xmlns:inkscape="http://www.inkscape.org/namespaces/inkscape"
   xmlns:sodipodi="http://sodipodi.sourceforge.net/DTD/sodipodi-0.dtd"
   xmlns="http://www.w3.org/2000/svg"
   xmlns:svg="http://www.w3.org/2000/svg"><defs
   id="defs109" /><sodipodi:namedview
   id="namedview109"
   pagecolor="#ffffff"
   bordercolor="#000000"
   borderopacity="0.25"
   inkscape:showpageshadow="2"
   inkscape:pageopacity="0.0"
   inkscape:pagecheckerboard="true"
   inkscape:deskcolor="#d1d1d1"
   showgrid="false"
   inkscape:zoom="1.268"
   inkscape:cx="249.60568"
   inkscape:cy="250"
   inkscape:window-width="1408"
   inkscape:window-height="847"
   inkscape:window-x="37"
   inkscape:window-y="25"
   inkscape:window-maximized="0"
   inkscape:current-layer="svg109" />
<g
   id="BACKGROUND"
   style="display:inline">
	
	<path
   style="display:inline;fill:#c2ede4"
   d="m 66.175,440.121 h 380.434 c 1.521,-1.107 3.032,-2.228 4.523,-3.38 11.853,-9.152 23.141,-20.35 27.216,-34.76 5.45,-19.271 -3.13,-39.604 -13.219,-56.904 -10.089,-17.3 -22.19,-34.415 -24.585,-54.298 -3.763,-31.242 17.017,-64.922 2.58,-92.883 C 431.85,176.06 404.788,169.155 382.218,159.434 361.054,150.319 341.746,136.921 325.799,120.286 315.125,109.152 305.921,96.571 294.274,86.458 273.25,68.202 244.567,59.065 216.857,61.798 c -13.509,1.332 -27.606,5.952 -35.876,16.716 -6.318,8.222 -8.376,18.827 -10.665,28.94 -5.095,22.508 -12.38,44.896 -25.359,63.979 -27.094,39.832 -75.677,60.859 -103.124,100.447 -19.908,28.715 -26.768,66.119 -18.345,100.03 5.778,23.263 21.374,52.412 42.687,68.211 z"
   id="path1"
   inkscape:label="path1" />
</g>
<g
   id="OBJECTS">
	<g
   id="g12">
		<g
   id="g3">
			<rect
   x="299.444"
   y="200.787"
   style="fill:#520025;"
   width="5"
   height="238.125"
   id="rect2" />
			<rect
   x="403.444"
   y="200.787"
   style="fill:#520025;"
   width="5"
   height="238.125"
   id="rect3" />
		</g>
		<g
   id="g7">
			<rect
   x="287.915"
   y="193.912"
   style="fill:#FFFFFF;"
   width="132.059"
   height="33.75"
   id="rect4" />
			<g
   id="g5">
				<path
   style="fill:#520025;"
   d="M377.134,214.815l-2.694-5.97c-0.261-0.579-0.01-1.26,0.565-1.53l0,0      c0.416-0.196,0.908-0.128,1.256,0.173l3.929,3.399l22.248-9.765c1.808-0.794,3.922-0.633,5.528,0.516      c0.434,0.311,0.785,0.665,0.949,1.057c0,0-4.906,3.945-10.469,5.967l-5.217,11.275c-0.488,1.054-1.292,1.931-2.301,2.507      l-1.281,0.732l2.124-11.429l-10.813,4.567c-0.597,0.252-1.26,0.3-1.886,0.137l0,0      C378.212,216.226,377.5,215.625,377.134,214.815z"
   id="path4" />
				<path
   style="fill:#520025;"
   d="M387.017,207.195l5.057-2.276l-7.145-2.355c-1.199-0.395-2.515-0.197-3.544,0.535l-0.285,0.202      L387.017,207.195z"
   id="path5" />
			</g>
			<g
   id="g6">
				<rect
   x="300.332"
   y="210.486"
   style="fill:#520025;"
   width="23.333"
   height="2.833"
   id="rect5" />
				<polygon
   style="fill:#520025;"
   points="326.937,211.894 318.042,203.015 316.038,205.019 322.922,211.902 316.038,218.786       318.042,220.789 324.925,213.906 324.934,213.914 326.937,211.911 326.929,211.902     "
   id="polygon5" />
			</g>
		</g>
		<g
   id="g11">
			<rect
   x="287.915"
   y="254.912"
   style="fill:#FFFFFF;"
   width="132.059"
   height="33.75"
   id="rect7" />
			<g
   id="g8">
				
					<rect
   x="303.604"
   y="271.178"
   transform="matrix(-1 -1.224647e-16 1.224647e-16 -1 630.5411 545.1898)"
   style="fill:#520025;"
   width="23.333"
   height="2.833"
   id="rect8" />
				<polygon
   style="fill:#520025;"
   points="300.332,272.586 309.227,263.708 311.231,265.711 304.347,272.595 311.231,279.478       309.227,281.482 302.344,274.598 302.335,274.607 300.332,272.603 300.34,272.595     "
   id="polygon8" />
			</g>
			<g
   id="g10">
				<g
   id="g9">
					<path
   style="fill:#520025;"
   d="M391.05,280.215v-2.67h0.856v-4.87h-0.856v-2.65h4.727v7.519h0.979v2.67H391.05z        M393.821,264.974c1.407,0,2.242,1.14,2.242,2.077c0,1.121-0.795,2.059-2.242,2.059c-1.283,0-2.2-1.08-2.2-2.059       C391.621,266.114,392.395,264.974,393.821,264.974z"
   id="path8" />
				</g>
				<circle
   style="fill:none;stroke:#520025;stroke-width:1.699;stroke-miterlimit:10;"
   cx="393.903"
   cy="272.595"
   r="11.875"
   id="circle9" />
			</g>
		</g>
	</g>
	<g
   id="g108">
		<g
   id="g29">
			<g
   id="g17">
				<path
   style="fill:#FFD27A;"
   d="M135.273,319.495l-24.469-10.527c-2.169-0.933-3.171-3.448-2.238-5.617l16.7-38.816      c0.933-2.169,3.448-3.171,5.617-2.238l24.469,10.527c2.169,0.933,3.171,3.448,2.238,5.617l-16.7,38.816      C139.956,319.426,137.442,320.428,135.273,319.495z"
   id="path12" />
				<g
   id="g16">
					<g
   id="g13">
						<path
   style="fill:#520025;"
   d="M125,267.25c2.424,0.8,4.805,1.7,7.18,2.616c2.379,0.905,4.728,1.883,7.077,2.861        c2.339,1,4.678,2.002,6.986,3.075l3.461,1.613c1.14,0.571,2.292,1.111,3.42,1.71c-1.216-0.39-2.407-0.84-3.611-1.259        l-3.57-1.356c-2.379-0.906-4.728-1.883-7.076-2.863c-2.339-1.001-4.678-2.003-6.986-3.076        C129.57,269.508,127.263,268.43,125,267.25z"
   id="path13" />
					</g>
					<g
   id="g14">
						<path
   style="fill:#520025;"
   d="M132.627,309.934c-0.064,0-0.129-0.013-0.191-0.037l-9.364-3.852        c-0.255-0.105-0.377-0.397-0.272-0.653l10.414-25.317c0.05-0.122,0.147-0.22,0.27-0.271c0.123-0.05,0.26-0.05,0.383-0.001        l9.364,3.852c0.255,0.105,0.377,0.398,0.272,0.653l-10.413,25.317c-0.05,0.122-0.148,0.22-0.27,0.272        C132.758,309.921,132.692,309.934,132.627,309.934z M123.916,305.31l8.439,3.472l10.033-24.393l-8.439-3.472L123.916,305.31z"
   id="path14" />
					</g>
					<g
   id="g15">
						
							<rect
   x="126.653"
   y="268.801"
   transform="matrix(0.9248 0.3804 -0.3804 0.9248 113.2924 -28.2144)"
   style="fill:#520025;"
   width="2.748"
   height="7.43"
   id="rect14" />
					</g>
				</g>
			</g>
			<g
   id="g28">
				<g
   id="g26">
					<path
   style="fill:#FF3B3B;"
   d="M137.409,320.541l-27.001-12.051c-3.451-1.54-7.508,0.013-9.049,3.464l-0.439,0.984l-4.34-1.937       c-2.061-0.92-4.478,0.005-5.397,2.066L53.66,397.145c-0.92,2.061,0.005,4.478,2.066,5.397l4.34,1.937l-1.912,4.285       c-1.54,3.451,0.013,7.508,3.464,9.049l27.001,12.051c3.451,1.54,7.508-0.013,9.049-3.464l43.206-96.809       C142.414,326.139,140.86,322.082,137.409,320.541z"
   id="path17" />
					<g
   id="g24">
						<path
   style="fill:#520025;"
   d="M108.669,401.736l-11.004,24.657c-1.54,3.451-5.598,5.004-9.049,3.464l-9.918-4.426        c-0.095-0.848,0.028-1.725,0.392-2.542l2.91-6.52c1.105-2.476,4.02-3.592,6.509-2.481c1.238,0.553,2.581,0.552,3.762,0.1        c1.181-0.452,2.181-1.348,2.74-2.6l3.921-8.785c1.105-2.476,4.02-3.592,6.509-2.481l2.2,0.982        C108.023,401.274,108.355,401.485,108.669,401.736z"
   id="path18" />
						<polygon
   style="fill:#520025;"
   points="139.868,331.842 137.67,336.768 125.815,331.478 131.811,318.043 135.816,319.83         132.018,328.339       "
   id="polygon18" />
						<g
   id="g19">
							<path
   style="fill:#520025;"
   d="M96.667,344.667c-4.041,9.576-8.181,19.107-12.337,28.631l-3.127,7.139l-1.576,3.564         l-0.788,1.782c-0.238,0.585-0.465,1.16-0.611,1.769c-0.623,2.413-0.361,5.036,0.717,7.279c1.061,2.251,2.942,4.1,5.217,5.103         c2.245,1.066,4.87,1.273,7.268,0.612c2.415-0.623,4.555-2.17,5.983-4.205c0.74-1,1.173-2.196,1.719-3.391l1.567-3.568         l3.158-7.125l6.356-14.233l6.453-14.191l-6.004,14.386l-6.1,14.344l-3.07,7.163l-1.547,3.577         c-0.264,0.598-0.501,1.189-0.788,1.792l-0.451,0.907l-0.544,0.855c-1.536,2.22-3.855,3.914-6.478,4.609         c-2.604,0.734-5.479,0.529-7.938-0.626c-2.477-1.11-4.521-3.145-5.661-5.601c-1.16-2.448-1.428-5.301-0.735-7.916         c0.162-0.656,0.414-1.289,0.671-1.906l0.798-1.777l1.596-3.555l3.216-7.099C87.932,363.527,92.249,354.074,96.667,344.667z"
   id="path19" />
						</g>
						<g
   id="g20">
							<path
   style="fill:#520025;"
   d="M60,404.833c-0.068,0-0.138-0.014-0.205-0.044c-0.252-0.113-0.364-0.409-0.251-0.661         l41-91.166c0.114-0.251,0.41-0.364,0.661-0.251c0.252,0.113,0.364,0.409,0.251,0.661l-41,91.166         C60.373,404.724,60.19,404.833,60,404.833z"
   id="path20" />
						</g>
						<g
   id="g23">
							<g
   id="g21">
								
									<rect
   x="102.778"
   y="328.218"
   transform="matrix(0.9248 0.3804 -0.3804 0.9248 134.1001 -14.6651)"
   style="fill:#520025;"
   width="2.748"
   height="7.43"
   id="rect20" />
							</g>
							<g
   id="g22">
								<path
   style="fill:#520025;"
   d="M102.833,327.417c3.968,1.191,7.821,2.663,11.647,4.204c3.814,1.569,7.6,3.208,11.27,5.129          c-3.969-1.189-7.822-2.661-11.647-4.204C110.29,330.976,106.504,329.336,102.833,327.417z"
   id="path21" />
							</g>
						</g>
					</g>
					<g
   id="g25">
						
							<ellipse
   transform="matrix(0.4471 -0.8945 0.8945 0.4471 -333.5417 321.1556)"
   style="fill:#520025;"
   cx="92.997"
   cy="430.364"
   rx="9.496"
   ry="9.495"
   id="ellipse24" />
						<path
   style="fill:#FFFFFF;"
   d="M98.156,432.667c-1.271,2.849-4.612,4.128-7.461,2.856c-2.849-1.272-4.128-4.612-2.856-7.461        c1.271-2.849,4.612-4.128,7.461-2.856S99.427,429.818,98.156,432.667z"
   id="path24" />
					</g>
				</g>
				<g
   id="g27">
					
						<rect
   x="151.268"
   y="245.081"
   transform="matrix(0.9132 0.4076 -0.4076 0.9132 131.2444 -37.4108)"
   style="fill:#FFFFFF;"
   width="4.327"
   height="88.532"
   id="rect26" />
					<path
   style="fill:#520025;"
   d="M170.601,257.577l-4.863-2.17l2.517-5.639c0.599-1.343,2.174-1.946,3.517-1.346l0,0       c1.343,0.599,1.946,2.174,1.346,3.517L170.601,257.577z"
   id="path26" />
				</g>
			</g>
		</g>
		<g
   id="g107">
			<g
   id="g61">
				<g
   id="g40">
					<g
   id="g30">
						<path
   style="fill:#FFA080;"
   d="M238.28,389.226l18.727,40.977l10.458-3.776c0,0-2.45-15.341-6.07-37.201H238.28z"
   id="path29" />
					</g>
					<g
   id="g39">
						<g
   id="g33">
							<path
   style="fill:#FFFFFF;"
   d="M293.986,428.368c-3.053,2.339-8.168,4.411-13.57,6.126         c-7.32,2.317-17.724,4.443-20.499,4.996c-0.524,0.104-1.051-0.128-1.343-0.576c-0.257-0.394-0.417-0.817-0.519-1.188         c0-0.01,0-0.02-0.01-0.03l-0.119-1.001l-0.069-0.535l24.919-8.723l9.952-3.469c0.853,0.486,1.437,1.358,1.804,2.082         C294.957,426.862,294.679,427.813,293.986,428.368z"
   id="path30" />
							<path
   style="fill:#FFFFFF;"
   d="M294.534,426.044c0.426,0.814,0.143,1.769-0.546,2.323c-3.054,2.338-8.174,4.411-13.576,6.126         c-0.989-1.444-0.085-4.663-0.085-4.663l2.449-2.397l9.953-3.468C293.581,424.449,294.165,425.324,294.534,426.044z"
   id="path31" />
							<path
   style="fill:#FFD27A;"
   d="M293.896,425.078c-1.913,1.19-5.382,2.577-9.446,3.945         c-11.062,3.826-26.554,7.622-26.554,7.622l-2.052-8.832c-0.575-2.527-2.181-4.668-4.302-6.145         c-0.644-0.466-1.1-0.942-1.051-1.398c0.238-2.121,11.349-2.825,11.567-2.825c0,0,0.188-3.796,1.863-4.778         c1.665-1.001,4.183,2.974,4.351,6.046c0,0,0.416,0.287,1.11,0.724c0.307,0.198,0.674,0.426,1.09,0.674         c0.268,0.169,0.545,0.337,0.853,0.515c0.327,0.188,0.674,0.387,1.031,0.595c0.337,0.188,0.674,0.377,1.021,0.555         c0.347,0.188,0.694,0.367,1.051,0.545c0.377,0.188,0.743,0.367,1.12,0.535c0.377,0.178,0.743,0.347,1.11,0.496         c1.407,0.585,2.765,1.011,3.885,1.1c1.239,0.109,2.825,0.03,4.44-0.069c0,0,0,0,0.03-0.01         c3.568-0.287,7.246-0.823,7.711-0.406C293.371,424.572,293.896,425.078,293.896,425.078z"
   id="path32" />
							<path
   style="fill:#FFFFFF;"
   d="M293.891,425.076c-1.91,1.193-5.38,2.574-9.438,3.947c-0.231-0.904-0.613-3.072,0.537-4.637         c0,0,0.033,0.017,0.025-0.008c3.564-0.294,7.248-0.823,7.714-0.412C293.368,424.572,293.891,425.076,293.891,425.076z"
   id="path33" />
						</g>
						<g
   id="g38">
							<g
   id="g34">
								<path
   style="fill:#FFFFFF;"
   d="M270.474,420.112c-2.012,0.268-2.805,3.479-2.815,3.509c-0.06,0.228-0.258,0.377-0.486,0.377          c-0.04,0-0.079,0-0.119-0.01c-0.258-0.069-0.426-0.337-0.357-0.595c0.03-0.149,0.734-2.984,2.686-3.955          C269.691,419.636,270.058,419.864,270.474,420.112z"
   id="path34" />
							</g>
							<g
   id="g35">
								<path
   style="fill:#FFFFFF;"
   d="M272.357,421.222c-1.754,0.555-2.458,3.4-2.468,3.43c-0.059,0.228-0.258,0.377-0.486,0.377          c-0.04,0-0.079,0-0.109-0.01c-0.268-0.059-0.436-0.327-0.367-0.595c0.03-0.129,0.664-2.706,2.399-3.796          C271.654,420.816,272.001,421.014,272.357,421.222z"
   id="path35" />
							</g>
							<g
   id="g36">
								<path
   style="fill:#FFFFFF;"
   d="M274.429,422.322c-1.635,0.664-2.3,3.33-2.309,3.36c-0.059,0.228-0.258,0.387-0.486,0.387          c-0.04,0-0.079-0.01-0.109-0.02c-0.268-0.06-0.436-0.327-0.367-0.595c0.03-0.129,0.625-2.528,2.22-3.677          C273.725,421.965,274.072,422.144,274.429,422.322z"
   id="path36" />
							</g>
							<g
   id="g37">
								<path
   style="fill:#FFFFFF;"
   d="M276.659,423.353c-1.636,0.664-2.3,3.331-2.31,3.37c-0.059,0.218-0.258,0.377-0.486,0.377          c-0.04,0-0.079-0.01-0.119-0.02c-0.258-0.059-0.426-0.327-0.357-0.595c0.03-0.129,0.605-2.468,2.161-3.628          C275.926,423.036,276.292,423.204,276.659,423.353z"
   id="path37" />
							</g>
						</g>
					</g>
				</g>
				<g
   id="g52">
					<g
   id="g41">
						<path
   style="fill:#FFA080;"
   d="M186.694,364.404l-21.466,33.049l8.507,6.455c0,0,12.718-8.965,29.164-23.3L186.694,364.404z"
   id="path40" />
						<path
   style="fill:#FFA080;"
   d="M173.921,403.784c0,0,9.83,15.085,12.321,20.436c0.265,0.568-0.416,1.103-0.912,0.72        l-25.667-19.792c-0.928-0.716-0.964-2.105-0.073-2.867l5.637-4.825L173.921,403.784z"
   id="path41" />
					</g>
					<g
   id="g51">
						<g
   id="g45">
							<path
   style="fill:#FFFFFF;"
   d="M184.602,428.396c-3.565-1.444-7.945-4.8-12.164-8.585         c-5.711-5.132-12.822-13.018-14.706-15.129c-0.356-0.399-0.423-0.971-0.185-1.45c0.209-0.422,0.492-0.774,0.76-1.05         c0.008-0.005,0.017-0.01,0.021-0.024l0.802-0.611l0.426-0.331l20.161,17.047l8.039,6.815         c0.014,0.981-0.441,1.927-0.878,2.611C186.393,428.468,185.432,428.712,184.602,428.396z"
   id="path42" />
							<path
   style="fill:#FFFFFF;"
   d="M186.883,427.689c-0.485,0.78-1.452,1.021-2.279,0.708c-3.564-1.445-7.949-4.806-12.168-8.59         c0.743-1.585,3.975-2.439,3.975-2.439l3.308,0.894l8.039,6.817C187.774,426.058,187.317,427.006,186.883,427.689z"
   id="path43" />
							<path
   style="fill:#FFD27A;"
   d="M187.392,426.649c-1.996-1.045-4.952-3.33-8.192-6.138         c-8.91-7.591-20.042-19.014-20.042-19.014l6.569-6.249c1.886-1.778,2.916-4.248,3.113-6.825         c0.074-0.792,0.253-1.426,0.671-1.615c1.949-0.871,8.193,8.346,8.304,8.534c0,0,3.367-1.764,5.063-0.819         c1.708,0.927-0.44,5.113-3.002,6.818c0,0-0.036,0.505-0.06,1.324c-0.015,0.365-0.025,0.797-0.028,1.282         c-0.009,0.316-0.014,0.641-0.012,0.996c0.004,0.377,0.009,0.777,0.011,1.19c0.009,0.386,0.018,0.772,0.04,1.161         c0.014,0.395,0.036,0.784,0.063,1.182c0.029,0.42,0.061,0.827,0.107,1.237c0.037,0.415,0.078,0.817,0.136,1.208         c0.21,1.509,0.532,2.896,1.023,3.906c0.535,1.123,1.408,2.449,2.313,3.791c0,0,0,0,0.024,0.021         c2.058,2.929,4.385,5.826,4.263,6.439C187.561,425.94,187.392,426.649,187.392,426.649z"
   id="path44" />
							<path
   style="fill:#FFFFFF;"
   d="M187.391,426.644c-1.997-1.041-4.948-3.33-8.19-6.13c0.661-0.658,2.336-2.087,4.268-1.89         c0,0,0.002,0.038,0.02,0.018c2.062,2.922,4.387,5.828,4.269,6.438C187.56,425.938,187.391,426.644,187.391,426.644z"
   id="path45" />
						</g>
						<g
   id="g50">
							<g
   id="g46">
								<path
   style="fill:#FFFFFF;"
   d="M179.786,403.946c-1.252-1.598-4.421-0.652-4.452-0.645          c-0.227,0.064-0.455-0.031-0.571-0.227c-0.02-0.034-0.04-0.068-0.052-0.107c-0.071-0.257,0.074-0.538,0.331-0.609          c0.143-0.05,2.943-0.882,4.771,0.308C179.799,403.03,179.789,403.462,179.786,403.946z"
   id="path46" />
							</g>
							<g
   id="g47">
								<path
   style="fill:#FFFFFF;"
   d="M179.785,406.133c-1.368-1.23-4.177-0.393-4.208-0.387c-0.227,0.064-0.455-0.031-0.571-0.227          c-0.02-0.034-0.04-0.068-0.047-0.099c-0.085-0.261,0.061-0.542,0.326-0.618c0.126-0.04,2.669-0.801,4.488,0.141          C179.779,405.32,179.784,405.72,179.785,406.133z"
   id="path47" />
							</g>
							<g
   id="g48">
								<path
   style="fill:#FFFFFF;"
   d="M179.889,408.476c-1.402-1.072-4.037-0.292-4.067-0.285c-0.227,0.065-0.464-0.026-0.58-0.222          c-0.02-0.034-0.032-0.073-0.038-0.104c-0.085-0.261,0.061-0.542,0.326-0.618c0.126-0.04,2.495-0.744,4.296,0.047          C179.839,407.689,179.861,408.078,179.889,408.476z"
   id="path48" />
							</g>
							<g
   id="g49">
								<path
   style="fill:#FFFFFF;"
   d="M180.132,410.921c-1.402-1.072-4.037-0.292-4.076-0.28c-0.218,0.059-0.455-0.031-0.571-0.227          c-0.02-0.034-0.032-0.073-0.043-0.112c-0.08-0.252,0.066-0.533,0.331-0.609c0.126-0.04,2.434-0.731,4.223,0.021          C180.033,410.128,180.074,410.529,180.132,410.921z"
   id="path49" />
							</g>
						</g>
					</g>
				</g>
				<g
   id="g60">
					<path
   style="fill:#FF3B3B;"
   d="M267.094,219.978c-1.08-10.893-7.622-27.08-11.815-36.546c-1.13-2.547-2.082-4.609-2.716-5.947       c-0.525-1.1-0.823-1.715-0.823-1.715l-16.365-0.03l-0.01,0.03h-31.282c0,0-0.555,0.605-1.467,1.715       c-1.08,1.318-2.666,3.35-4.431,5.947c-5.59,8.168-12.985,21.906-12.043,36.298c1.189,18.169,22.738,78.246,31.441,101.876       l-0.05,1.457c-11.647,8.178-43.861,59.225-43.861,59.225l14.243,12.39l36.02-33.641c0.307,0.882,0.654,1.745,1.031,2.587       c5.947,13.213,24.949,52.534,24.949,52.534l15.522-6.78l-14.065-82.894C257.588,298.699,268.402,233.171,267.094,219.978z"
   id="path52" />
					<g
   id="g58">
						<g
   id="g53">
							<path
   style="fill:#520025;"
   d="M232.333,231.333c2.041,7.804,3.933,15.645,5.771,23.498         c1.839,7.853,3.555,15.734,5.269,23.616c1.62,7.902,3.243,15.804,4.667,23.747c1.37,7.946,2.76,15.917,3.294,23.973         c-0.482-4.006-1.078-7.987-1.817-11.951c-0.684-3.97-1.459-7.925-2.233-11.88c-1.578-7.904-3.192-15.801-4.888-23.682         L232.333,231.333z"
   id="path53" />
						</g>
						<g
   id="g54">
							<path
   style="fill:#520025;"
   d="M217.833,322.5c1.41,2.923,2.723,5.887,4.018,8.857c0.023,0.053,0.032,0.109,0.027,0.164         l-0.002,0.026c-0.206,2.447-0.33,4.917-0.409,7.377c-0.057,2.462-0.09,4.927,0.023,7.385         c0.038,1.229,0.111,2.458,0.218,3.682l0.156,1.839l0.241,1.828c0.383,2.426,0.87,4.844,1.729,7.176         c-1.129-2.213-1.851-4.628-2.353-7.067c-0.532-2.441-0.775-4.928-0.938-7.413c-0.146-2.487-0.149-4.978-0.05-7.464         c0.098-2.487,0.282-4.963,0.631-7.436l0.025,0.189C220,328.613,218.868,325.577,217.833,322.5z"
   id="path54" />
						</g>
						<path
   style="fill:#520025;"
   d="M252.977,411.102l-26.627-85.38c-0.328-1.019-32.846-101.933-32.601-113.836        c0.027-1.293,0.215-2.635,0.517-3.997c0.229,0.016,0.458,0.035,0.682,0.035c11.983,0,17.906-22.081,18.159-23.047        c0.07-0.267-0.09-0.54-0.357-0.61c-0.266-0.067-0.54,0.09-0.61,0.357c-0.061,0.231-6.138,22.825-17.635,22.271        c2.827-10.809,12.637-22.562,12.751-22.698c0.178-0.212,0.151-0.527-0.06-0.705c-0.21-0.178-0.527-0.15-0.705,0.06        c-0.551,0.654-13.492,16.15-13.743,28.312c-0.249,12.07,31.306,110.001,32.647,114.159l26.625,85.375        c0.067,0.215,0.265,0.352,0.478,0.352c0.049,0,0.1-0.007,0.148-0.022C252.912,411.646,253.06,411.365,252.977,411.102z"
   id="path55" />
						<g
   id="g56">
							<path
   style="fill:#520025;"
   d="M262.499,207.268c-2.579,0-4.854-0.895-6.772-2.667c-6.348-5.865-6.714-19.273-6.727-19.84         c-0.006-0.276,0.213-0.505,0.489-0.511c0.301-0.006,0.505,0.213,0.511,0.489c0.003,0.135,0.37,13.553,6.406,19.129         c1.872,1.729,4.121,2.529,6.69,2.383c0.308-0.003,0.513,0.196,0.527,0.471c0.016,0.275-0.194,0.512-0.471,0.527         C262.934,207.262,262.715,207.268,262.499,207.268z"
   id="path56" />
						</g>
						<g
   id="g57">
							<path
   style="fill:#520025;"
   d="M234.125,223.25c-0.191,0-0.37-0.11-0.453-0.289l-6.75-14.5         c-0.029-0.062-0.045-0.13-0.047-0.198l-0.625-24.875c-0.007-0.276,0.211-0.505,0.487-0.513         c0.258,0.001,0.506,0.211,0.513,0.487l0.622,24.771l5.753,12.358v-36.616c0-0.276,0.224-0.5,0.5-0.5         c0.276,0,0.5,0.224,0.5,0.5v38.875c0,0.234-0.163,0.438-0.392,0.488C234.197,223.246,234.161,223.25,234.125,223.25z"
   id="path57" />
						</g>
					</g>
					<g
   id="g59">
						<path
   style="fill:#FFFFFF;"
   d="M255.279,183.432h-57.093c1.764-2.597,3.35-4.629,4.431-5.947h49.947        C253.197,178.823,254.149,180.885,255.279,183.432z"
   id="path58" />
						<path
   style="fill:#520025;"
   d="M228.158,177.464l6.095,0.171l-0.248,4.97l-5.574,0.834l6.096,1.803        c0.896,0.184,1.736-0.501,1.736-1.416v-6.635c0-0.897-0.808-1.577-1.692-1.424L228.158,177.464z"
   id="path59" />
					</g>
				</g>
			</g>
			<g
   id="g77">
				<g
   id="g74">
					<path
   style="fill:#FFA080;"
   d="M214.24,95.421c6.656,8.371,24.321,5.292,26.049,1.175c0.481-1.155,0.59-3.583,0.493-6.462       c-0.056-1.941-0.219-4.096-0.422-6.195c-0.306-3.355-0.719-6.62-1.014-8.765c-0.266-1.968-0.948-3.882-2.137-5.485       c-7.198-9.787-20.804-7.005-24.38-2.254C208.919,72.603,207.57,87.039,214.24,95.421z"
   id="path61" />
					<g
   id="g73">
						<path
   style="fill:#520025;"
   d="M213.46,85.085c-0.061-0.482,0.001-1.055,0.411-1.481c0.196-0.207,0.489-0.362,0.812-0.376        c0.322-0.021,0.622,0.095,0.868,0.243c0.505,0.305,0.825,0.746,1.117,1.159c0.29,0.412,0.534,0.827,0.802,1.24        c0.133,0.205,0.075,0.479-0.13,0.612c-0.174,0.113-0.397,0.088-0.542-0.046l-0.015-0.014        c-0.307-0.285-0.733-0.475-1.159-0.469c-0.213,0.003-0.357,0.034-0.468,0.133c-0.119,0.101-0.203,0.281-0.234,0.472        c-0.059,0.375,0.171,0.838,0.528,1.184c0.345,0.344,0.821,0.637,1.372,0.533c-0.491,0.32-1.174,0.139-1.657-0.176        c-0.482-0.315-0.958-0.843-0.964-1.58c-0.001-0.35,0.119-0.71,0.385-0.999c0.271-0.299,0.691-0.426,1.017-0.43        c0.662-0.017,1.325,0.222,1.798,0.694l-0.687,0.551c-0.247-0.42-0.512-0.843-0.743-1.261        c-0.237-0.404-0.491-0.789-0.799-1.045c-0.315-0.254-0.671-0.346-1.029-0.106C213.783,84.142,213.577,84.606,213.46,85.085z"
   id="path62" />
						<path
   style="fill:#520025;"
   d="M230.635,92.162c-0.487,0.143-0.997,0.128-1.496,0.045c-0.245-0.063-0.495-0.127-0.72-0.257        c-0.226-0.124-0.429-0.302-0.551-0.525c0.205,0.147,0.425,0.236,0.645,0.315c0.221,0.076,0.45,0.138,0.685,0.174        c0.23,0.06,0.469,0.086,0.708,0.126C230.145,92.075,230.387,92.12,230.635,92.162z"
   id="path63" />
						<path
   style="fill:#520025;"
   d="M230.422,79.197c0.598,1.511,0.937,3.042,1.657,4.347c0.326,0.642,0.89,1.373,0.924,2.324        c0.022,0.456-0.115,0.964-0.462,1.298c-0.328,0.319-0.844,0.474-1.22,0.273c0.411-0.007,0.717-0.262,0.879-0.551        c0.167-0.283,0.171-0.621,0.107-0.945c-0.135-0.66-0.606-1.233-1.018-1.974C230.501,82.46,230.323,80.799,230.422,79.197z"
   id="path64" />
						<path
   style="fill:#520025;"
   d="M231.8,74.657c0.627-0.354,1.214-0.538,1.862-0.672c0.639-0.12,1.299-0.158,1.952-0.087        c0.652,0.055,1.3,0.222,1.889,0.497c0.605,0.244,1.114,0.662,1.578,1.075c0.132,0.118,0.144,0.321,0.026,0.453        c-0.098,0.11-0.255,0.137-0.381,0.075l-0.031-0.015c-0.509-0.25-1.013-0.469-1.542-0.575        c-0.525-0.111-1.052-0.168-1.582-0.131c-0.527,0.037-1.051,0.119-1.565,0.256c-0.503,0.129-1.046,0.317-1.478,0.487        l-0.068,0.027c-0.396,0.156-0.845-0.038-1.001-0.434C231.318,75.25,231.469,74.843,231.8,74.657z"
   id="path65" />
						<path
   style="fill:#520025;"
   d="M226.623,76.965c-0.463-0.027-1.038-0.036-1.556-0.002c-0.531,0.03-1.054,0.116-1.566,0.245        c-0.515,0.13-0.998,0.349-1.462,0.618c-0.47,0.265-0.881,0.631-1.286,1.027l-0.024,0.024c-0.127,0.124-0.33,0.122-0.454-0.005        c-0.103-0.105-0.119-0.264-0.048-0.386c0.312-0.537,0.665-1.093,1.164-1.513c0.474-0.445,1.038-0.806,1.64-1.061        c0.598-0.272,1.237-0.441,1.882-0.527c0.658-0.076,1.273-0.083,1.979,0.057c0.418,0.083,0.689,0.489,0.606,0.907        c-0.076,0.383-0.423,0.643-0.802,0.62L226.623,76.965z"
   id="path66" />
						<g
   id="g68">
							<path
   style="fill:#520025;"
   d="M225.144,82.802c0.189,1.179,0.849,2.053,1.475,1.953c0.626-0.1,0.981-1.137,0.792-2.316         c-0.189-1.179-0.849-2.053-1.475-1.953C225.31,80.586,224.955,81.623,225.144,82.802z"
   id="path67" />
							<path
   style="fill:#520025;"
   d="M225.645,81.019c0,0-0.97,0.09-1.577-0.234c0,0,0.625,1.07,1.492,0.968L225.645,81.019z"
   id="path68" />
						</g>
						<g
   id="g70">
							<path
   style="fill:#520025;"
   d="M236.402,81.001c0.189,1.179-0.166,2.215-0.792,2.316c-0.626,0.1-1.286-0.774-1.475-1.953         c-0.189-1.179,0.166-2.215,0.792-2.316C235.553,78.948,236.214,79.822,236.402,81.001z"
   id="path69" />
							<path
   style="fill:#520025;"
   d="M235.37,79.464c0,0,0.949-0.216,1.425-0.715c0,0-0.26,1.212-1.116,1.386L235.37,79.464z"
   id="path70" />
						</g>
						<path
   style="fill:#F78E6B;"
   d="M219.338,90.264c0.316,1.975,2.173,3.32,4.149,3.005c1.975-0.316,3.32-2.173,3.005-4.149        c-0.316-1.975-2.173-3.32-4.149-3.005C220.367,86.431,219.022,88.288,219.338,90.264z"
   id="path71" />
						<path
   style="fill:#F78E6B;"
   d="M235.154,87.739c0.315,1.972,2.177,3.31,4.149,2.994c0.555-0.089,1.054-0.302,1.479-0.6        c-0.056-1.941-0.219-4.096-0.422-6.195c-0.649-0.344-1.409-0.477-2.2-0.351C236.188,83.904,234.836,85.755,235.154,87.739z"
   id="path72" />
						<path
   style="fill:#FFFFFF;"
   d="M227.229,89.118c0,0,1.208,4.894,5.576,1.518L227.229,89.118z"
   id="path73" />
					</g>
				</g>
				<g
   id="g76">
					<path
   style="fill:#520025;"
   d="M207.062,70.169c0,0,3.755-7.773,11.923-9.268c7.776-1.423,12.511-1.666,17.731,3.773       c3.243,3.379,4.514,6.532,5.588,8.01c0.48,0.66,0.169,1.593-0.612,1.828c-2.619,0.789-8.626,2.027-18.198,0.851       c0,0-2.236-3.783-5.456-3.519c0,0,3.918,7.236-1.661,10.011c0,0-3.422-1-4.251,1.14c-0.821,2.119,0.469,7.119,5.373,6.92       c0,0-2.852,6.228-7.011,4.802C206.327,93.29,201.121,75.385,207.062,70.169z"
   id="path74" />
					<path
   style="fill:#520025;"
   d="M205.047,73.483c-6.223-2.437-13.228,0.423-18.901,3.958c-5.672,3.534-11.196,7.91-17.819,8.807       c-4.852,0.657-9.738-0.653-14.419-2.087c-4.682-1.434-9.429-3.023-14.325-2.937c-4.896,0.085-10.078,2.209-12.391,6.525       c-2.108,3.934-1.29,8.769,1.125,12.611c1.812,2.883,3.412,5.901,4.45,9.145c1.093,3.416,2.578,6.646,5.104,9.161       c4.178,4.162,10.584,5.56,16.403,4.602c5.819-0.959,11.108-4.018,15.702-7.716c2.497-2.01,4.853-4.251,6.604-6.936       c1.249-1.915,2.169-4.024,3.342-5.987c1.839-3.078,4.301-5.781,7.195-7.899c3.07-2.247,6.582-3.817,9.756-5.916       c3.174-2.098,6.12-4.912,7.172-8.569C204.774,77.711,202.935,75.061,205.047,73.483z"
   id="path75" />
					<path
   style="fill:#FFD27A;"
   d="M204.672,81.635c0,0-2.621-3.052-2.256-5.997c0.366-2.944,3.716-4.484,3.716-4.484       L204.672,81.635z"
   id="path76" />
				</g>
			</g>
			<g
   id="g106">
				<g
   id="g84">
					<g
   id="g79">
						<path
   style="fill:#FFA080;"
   d="M325.701,79.743c0,0-0.466,0.816-1.284,2.278c-4.409,7.76-19.144,33.75-28.631,50.241        c-9.675-3.498-30.825-10.921-42.592-13.297c0.277,4.435,0.515,8.872,0.893,13.301c0.182,2.136,0.35,4.273,0.509,6.411        c6.991,3.851,15.955,7.849,26.711,11.175c4.156,1.292,8.581,2.48,13.261,3.519c2.444,0.548,6.779,0.534,9.388,0.464        c1.366-0.037,2.615-0.744,3.349-1.897c1.428-2.242,3.76-6.068,4.723-8.589c0.837-2.183,1.889-4.95,3.089-8.114        c5.549-14.689,14.079-37.883,17.285-49.826c0.212-0.8,0.407-1.554,0.569-2.246L325.701,79.743z"
   id="path77" />
						<g
   id="g78">
							<path
   style="fill:#520025;"
   d="M294.5,135.833c-0.164-0.727-0.039-1.354,0.153-1.956c0.222-0.592,0.514-1.161,1.097-1.627         c0.166,0.728,0.041,1.354-0.153,1.956C295.373,134.798,295.081,135.366,294.5,135.833z"
   id="path78" />
						</g>
					</g>
					<g
   id="g80">
						<path
   style="fill:#FFA080;"
   d="M339.264,77.965c-0.01-0.01-0.01-0.01-0.02-0.01c-0.654-0.565-2.022,0.01-2.022,0.01        s0.277-0.456,0.585-1.051c0.04-0.079,0.079-0.159,0.119-0.248c0.476-0.942,0.932-2.082,0.505-2.26        c-0.743-0.307-2.508,1.646-2.508,1.646s1.764-3.043,1.11-3.628c-0.615-0.565-2.419,0.922-2.587,1.061v-0.01        c0.01-0.02,0.02-0.05,0.03-0.089c0.139-0.357,0.605-1.556,0.783-2.498c0.089-0.506,0.099-0.932-0.05-1.13        c-0.188-0.238-0.605-0.218-1.051-0.109c-0.724,0.178-1.526,0.605-1.526,0.605l-0.02,1.08c-1.665,1.863-3.35,3.826-3.35,3.826        s-0.835-4.783-1.271-4.812c-0.436,0-3.586,11.671-3.586,11.671l7.989,3.39c0,0,0.01-0.01,0.02-0.02        C332.841,85.002,339.898,78.54,339.264,77.965z"
   id="path79" />
						<path
   style="fill:#520025;"
   d="M330.603,83.336L330.603,83.336c-1.123,0-2.034-0.911-2.034-2.034V61.747        c0-1.123,0.911-2.034,2.034-2.034l0,0c1.123,0,2.034,0.911,2.034,2.034v19.556C332.637,82.426,331.727,83.336,330.603,83.336z        "
   id="path80" />
					</g>
					<g
   id="g83">
						<path
   style="fill:#FFD27A;"
   d="M291.14,129.56c0,0-3.2,18.52-5.58,22.73c0,0-0.76-0.14-2.07-0.44        c-0.29-0.07-0.62-0.14-0.98-0.22c-11.27-2.65-49.33-13.28-36.91-33.96c0,0,25.14,3.08,43.43,10.95        c0.33,0.14,0.65,0.28,0.97,0.42C290.38,129.21,290.76,129.38,291.14,129.56z"
   id="path81" />
						<g
   id="g82">
							<path
   style="fill:#520025;"
   d="M290,129.04c-0.8,7.23-5.5,20.11-6.51,22.81c-0.29-0.07-0.62-0.14-0.98-0.22         c0.88-2.37,5.84-15.94,6.52-23.01C289.36,128.76,289.68,128.9,290,129.04z"
   id="path82" />
						</g>
					</g>
				</g>
				<g
   id="g85">
					
						<rect
   x="219.234"
   y="93.168"
   transform="matrix(-1 -1.224647e-16 1.224647e-16 -1 450.4626 204.6983)"
   style="fill:#FFA080;"
   width="11.994"
   height="18.363"
   id="rect84" />
					<path
   style="fill:#520025;"
   d="M231.23,100.52v2.26c-4.13,0.19-8.62-0.52-12-2.68v-1C222.9,100.68,227.36,100.98,231.23,100.52       z"
   id="path84" />
				</g>
				<g
   id="g99">
					<g
   id="g86">
						<path
   style="fill:#FFFFFF;"
   d="M224.968,172.648c-2.518,8.276-10.25,8.755-17.635,9.519        c-5.442,0.565-10.416,2.455-14.401,1.712c-3.281-0.615-5.66-3.489-5.67-6.829c-0.04-11.111,0.069-35.822,1.774-43.801        c2.23-10.408,20.072-18.833,20.072-18.833c1.427,0.04,2.894,0.902,4.371,2.409        C221.955,125.566,230.043,155.956,224.968,172.648z"
   id="path85" />
					</g>
					<g
   id="g94">
						<path
   style="fill:#FFA080;"
   d="M247.27,161.621c0.938-13.553,6.286-27.667,3.45-35.112c-2.718-7.135-13-14.93-19.244-17.376        c-1.228-0.481-2.532-0.713-3.85-0.713c-0.557,0-1.106,0.043-1.656,0.129c-4.543,0.711-13.864,2.635-18.885,6.942        c2.331,8.92,2.112,17.996,0.318,26.923c1.525,7.077,2.762,14.63,1.953,21.19c-0.618,5.008-5.276,12.168-5.276,12.168h47.659        C251.739,175.771,246.921,166.654,247.27,161.621z"
   id="path86" />
						<g
   id="g93">
							<path
   style="fill:#FFD27A;"
   d="M236.615,111.813c-10.16,3.841-19.948-1.053-19.948-1.053s-8.301,2.664-9.912,5.39         c-1.611,2.726,0,27.258,1.115,33.949c1.115,6.691-6.938,29.55-12.142,35.993c-3.103,3.841,21.522-9.368,38.037-9.169         c9.108,0.11,22.862,12.639,24.026,12.185c0.524-0.204,0.734-0.828,0.455-1.316c-2.267-3.968-11.684-20.891-10.811-26.708         c0.991-6.608,4.46-20.924,4.13-28.745C251.235,124.512,236.615,111.813,236.615,111.813z"
   id="path87" />
							<g
   id="g92">
								<g
   id="g88">
									<path
   style="fill:#520025;"
   d="M219.667,114c1.479,0.206,2.949,0.363,4.41,0.523c1.462,0.142,2.922,0.271,4.378,0.284           c1.453,0.026,2.912,0.007,4.343-0.205c1.427-0.218,2.846-0.542,4.203-1.186c-1.144,0.974-2.583,1.597-4.057,1.952           c-1.479,0.383-3.005,0.448-4.51,0.438c-1.509-0.034-3.006-0.211-4.474-0.515C222.491,114.998,221.047,114.58,219.667,114z"
   id="path88" />
								</g>
								<g
   id="g91">
									<g
   id="g89">
										<path
   style="fill:#520025;"
   d="M228.125,157.75c-0.128,0-0.256-0.049-0.354-0.146c-0.195-0.195-0.195-0.512,0-0.707            l10.375-10.375c0.195-0.195,0.512-0.195,0.707,0c0.195,0.195,0.195,0.512,0,0.707l-10.375,10.375            C228.381,157.701,228.253,157.75,228.125,157.75z"
   id="path89" />
									</g>
									<g
   id="g90">
										<path
   style="fill:#520025;"
   d="M229.25,161c-0.128,0-0.256-0.049-0.354-0.146c-0.195-0.195-0.195-0.512,0-0.707l13.5-13.5            c0.195-0.195,0.512-0.195,0.707,0c0.195,0.195,0.195,0.512,0,0.707l-13.5,13.5C229.506,160.951,229.378,161,229.25,161z"
   id="path90" />
									</g>
								</g>
							</g>
						</g>
					</g>
					<g
   id="g96">
						<path
   style="fill:#FFFFFF;"
   d="M212.279,159.377l-14.083,22.667c-1.16-1.11-1.923-2.617-2.101-4.282l10.021-16.869        c6.82-11.481,8.899-25.167,5.795-38.155l-1.028-4.299l0,0c-0.513-2.155-2.962-3.202-4.874-2.084l-0.191,0.111        c0.226-0.234,3.291-3.34,9.073-5.642c2.124-0.846,4.448,0.696,4.525,2.981l0.467,13.842l0.098,2.903        C220.324,140.71,217.644,150.743,212.279,159.377z"
   id="path94" />
						<g
   id="g95">
							<path
   style="fill:#520025;"
   d="M210.333,115.667c1.295,2.287,2.255,4.751,3.08,7.25c0.798,2.51,1.415,5.083,1.815,7.693         c0.417,2.606,0.638,5.251,0.605,7.895c0.034,2.647-0.246,5.285-0.597,7.908l-0.921-0.313c1.16-2.435,1.936-5.167,2.512-7.873         c0.576-2.725,0.874-5.503,1.088-8.286c0.207-2.786,0.202-5.587,0.091-8.385c-0.035-1.4-0.166-2.797-0.244-4.198l-0.43-4.19         c0.243,1.383,0.492,2.768,0.701,4.16c0.155,1.397,0.367,2.793,0.476,4.197c0.207,2.81,0.308,5.634,0.193,8.459         c-0.111,2.824-0.435,5.643-0.974,8.426c-0.283,1.389-0.598,2.774-1.015,4.135c-0.415,1.367-0.858,2.701-1.531,4.024         c-0.123,0.242-0.419,0.338-0.66,0.215c-0.192-0.098-0.293-0.305-0.264-0.507l0.003-0.021         c0.371-2.568,0.677-5.155,0.671-7.756c0.063-2.6-0.145-5.199-0.445-7.783c-0.303-2.587-0.843-5.146-1.528-7.664         C212.292,120.527,211.433,118.048,210.333,115.667z"
   id="path95" />
						</g>
					</g>
					<g
   id="g98">
						<path
   style="fill:#FFFFFF;"
   d="M236.615,111.813l4.828,4.64c3.354,3.224,5.622,7.401,6.526,11.965        c0.957,4.832,1.811,11.251,1.16,16.849l-1.87,17.044l0,0c0.023,1.752,0.349,3.486,0.964,5.126l0.441,0.441l4.716-31.077        c1.391-8.537-2.688-17.035-10.218-21.289L236.615,111.813z"
   id="path96" />
						<g
   id="g97">
							<path
   style="fill:#520025;"
   d="M243.25,117.5c1.696,1.74,3.004,3.832,4.107,6.003c1.069,2.194,1.901,4.507,2.486,6.886         c0.149,0.594,0.24,1.2,0.359,1.801c0.127,0.6,0.212,1.206,0.27,1.816l0.202,1.826l0.077,1.835         c0.095,1.224-0.035,2.447-0.046,3.672c-0.067,1.222-0.261,2.434-0.392,3.649l-0.912-0.285         c0.781-1.734,1.281-3.687,1.585-5.619c0.288-1.945,0.421-3.92,0.353-5.896c-0.104-1.971-0.311-3.951-0.778-5.884         c-0.167-0.983-0.495-1.924-0.749-2.889c-0.295-0.952-0.659-1.882-0.977-2.833c0.405,0.913,0.854,1.814,1.208,2.753         c0.32,0.95,0.717,1.881,0.953,2.86l0.393,1.46l0.281,1.487c0.106,0.494,0.172,0.995,0.225,1.497         c0.052,0.502,0.137,1.003,0.162,1.508c0.17,2.018,0.094,4.058-0.195,6.068c-0.296,2.017-0.755,3.984-1.592,5.913         c-0.105,0.243-0.387,0.354-0.63,0.249c-0.195-0.085-0.305-0.284-0.286-0.485l0.005-0.049c0.115-1.192,0.27-2.38,0.367-3.571         c0.026-1.194,0.172-2.39,0.094-3.585c0.013-2.397-0.339-4.772-0.772-7.123c-0.475-2.346-1.195-4.644-2.157-6.844         C245.941,121.516,244.763,119.393,243.25,117.5z"
   id="path97" />
						</g>
					</g>
				</g>
				<g
   id="g105">
					<g
   id="g100">
						<path
   style="fill:#FFA080;"
   d="M200.997,136.333c-0.927-3.613-1.829-7.232-2.707-10.856        c-6.943,9.426-15.625,24.204-23.019,43.256c-1.452,3.74-2.361,7.66-2.655,11.662c-1.018,13.881-3.491,50.066-2.666,63.673        l7.95,1.172c0,0,10.941-48.383,15.443-67.378c0,0,6.42-12.482,12.79-26.016C203.796,146.912,202.316,141.471,200.997,136.333z        "
   id="path99" />
						<path
   style="fill:#FFA080;"
   d="M169.874,241.757c0,0-5.618,7.007-4.833,11.179c0.301,1.601,1.487,0.661,1.487,0.661        s3.304-4.708,4.543-4.295c1.239,0.413,0.702,5.823,0.702,5.823s7.31-6.402,6.691-12.555L169.874,241.757z"
   id="path100" />
					</g>
					<g
   id="g104">
						<path
   style="fill:#FFD27A;"
   d="M209.85,145.58l-12.2,25.72l-0.44,0.93l-0.49,1.04c-6.63,0.31-18.4-14.07-18.4-14.07        s0.21-0.4,0.58-1.11c0.14-0.27,0.31-0.59,0.5-0.95c2.81-5.37,10.49-19.92,15.03-27.36c5.63-9.23,13.63-15.12,13.63-15.12        C212.95,117.82,209.85,145.58,209.85,145.58z"
   id="path101" />
						<g
   id="g102">
							<path
   style="fill:#520025;"
   d="M207.75,149.833c0.257-1.214,0.778-2.273,1.361-3.295c0.61-1.007,1.283-1.975,2.222-2.788         c-0.256,1.215-0.776,2.274-1.361,3.295C209.36,148.051,208.687,149.02,207.75,149.833z"
   id="path102" />
						</g>
						<g
   id="g103">
							<path
   style="fill:#520025;"
   d="M197.65,171.3l-0.44,0.93c-6.82-1.51-16.12-11.67-18.31-14.14c0.14-0.27,0.31-0.59,0.5-0.95         C180.87,158.82,190.91,170.03,197.65,171.3z"
   id="path103" />
						</g>
					</g>
				</g>
			</g>
		</g>
	</g>
	<g
   id="g109">
		<rect
   x="43"
   y="438.287"
   style="fill:#520025;"
   width="429.5"
   height="2"
   id="rect108"
   inkscape:label="rect108" />
	</g>
</g>
<g
   id="DESIGNED_BY_FREEPIK">
	<g
   id="XMLID_258_">
		<g
   id="XMLID_287_"
   style="display:none">
			<g
   id="XMLID_306_">
				<path
   id="XMLID_314_"
   style="fill:#9eb7c7"
   d="m 260.104,465.465 c -0.433,0.443 -0.804,0.932 -1.108,1.453 l -0.465,-0.241 c -0.067,-0.297 -0.35,-0.502 -0.659,-0.466 -0.331,0.039 -0.567,0.339 -0.529,0.67 0.039,0.331 0.339,0.567 0.67,0.528 0.065,-0.007 0.127,-0.025 0.184,-0.052 l 0.451,0.234 c -0.251,0.554 -0.433,1.139 -0.539,1.743 l 0.747,0.132 c 0.229,-1.306 0.85,-2.507 1.792,-3.473 z" />
				<path
   id="XMLID_313_"
   style="fill:#9eb7c7"
   d="m 265.591,463.164 c -0.171,0 -0.341,0.006 -0.509,0.017 l -0.074,-0.626 c 0.188,-0.149 0.296,-0.389 0.266,-0.645 -0.046,-0.393 -0.402,-0.674 -0.795,-0.628 -0.394,0.046 -0.675,0.402 -0.628,0.796 0.03,0.254 0.189,0.461 0.404,0.563 l 0.073,0.624 c -0.714,0.116 -1.402,0.332 -2.06,0.646 l 0.327,0.685 c 0.935,-0.447 1.941,-0.674 2.995,-0.674 0.497,0 0.993,0.053 1.476,0.158 l 0.16,-0.741 c -0.534,-0.117 -1.084,-0.175 -1.635,-0.175 z" />
				<path
   id="XMLID_312_"
   style="fill:#9eb7c7"
   d="m 272.194,465.711 c 0.331,-0.04 0.566,-0.341 0.525,-0.672 -0.04,-0.331 -0.341,-0.566 -0.672,-0.525 -0.31,0.038 -0.535,0.304 -0.53,0.608 l -0.416,0.363 c -0.418,-0.43 -0.89,-0.813 -1.407,-1.14 l -0.404,0.642 c 1.135,0.715 2.021,1.727 2.564,2.925 l 0.69,-0.313 c -0.251,-0.554 -0.567,-1.071 -0.942,-1.545 l 0.402,-0.351 c 0.061,0.012 0.124,0.016 0.19,0.008 z" />
				<path
   id="XMLID_311_"
   style="fill:#9eb7c7"
   d="m 265.044,473.372 c -0.386,0.023 -0.775,0.035 -1.157,0.035 -0.88,0 -1.733,-0.061 -2.479,-0.18 -0.391,-0.062 -0.846,-0.154 -1.271,-0.292 1.047,1.861 3.069,3.125 5.389,3.125 2.855,0 5.263,-1.916 5.949,-4.503 -0.682,0.449 -1.505,0.825 -2.458,1.122 -1.179,0.368 -2.554,0.608 -3.973,0.693 z" />
				<path
   id="XMLID_307_"
   style="fill:#9eb7c7"
   d="m 265.591,464.68 c -3.351,0 -6.079,2.666 -6.079,5.943 0,0.425 0.046,0.849 0.137,1.261 0.674,0.483 2.706,0.891 5.348,0.731 2.88,-0.174 5.297,-0.958 6.672,-2.159 -0.005,-0.194 -0.02,-0.39 -0.045,-0.581 -0.38,-2.961 -2.974,-5.195 -6.033,-5.195 z m -2.159,6.515 c -1.02,0 -1.85,-0.83 -1.85,-1.85 0,-1.021 0.83,-1.851 1.85,-1.851 1.02,0 1.85,0.83 1.85,1.851 0,1.02 -0.83,1.85 -1.85,1.85 z m 4.737,-0.908 c -0.75,0 -1.36,-0.61 -1.36,-1.36 0,-0.75 0.61,-1.36 1.36,-1.36 0.75,0 1.36,0.61 1.36,1.36 0,0.75 -0.61,1.36 -1.36,1.36 z" />
			</g>
			<path
   id="XMLID_304_"
   style="fill:#9eb7c7"
   d="m 281.595,466.547 c -0.295,-0.116 -0.806,-0.31 -1.383,-0.238 -0.551,0.069 -0.844,0.341 -0.844,1.007 v 0.866 h 2.229 v 1.717 h -2.229 v 5.455 h -1.932 v -5.455 h -1.339 v -1.717 h 1.339 v -0.889 c 0,-1.68 0.896,-2.782 2.568,-2.782 0.643,0 1.157,0.121 1.59,0.308 v 1.728 z" />
			<path
   id="XMLID_302_"
   style="fill:#9eb7c7"
   d="m 286.297,469.878 c -0.177,-0.029 -0.357,-0.046 -0.525,-0.046 -0.896,0 -1.51,0.548 -1.51,1.613 v 3.908 h -1.933 v -7.172 h 1.873 v 0.784 c 0.451,-0.673 1.14,-0.977 2.021,-0.977 0.414,0 0.848,0.128 1.095,0.337 z" />
			<path
   id="XMLID_299_"
   style="fill:#9eb7c7"
   d="m 293.965,471.757 c 0,0.222 -0.016,0.488 -0.037,0.651 h -5.085 c 0.207,1.036 0.933,1.487 1.843,1.487 0.622,0 1.295,-0.252 1.813,-0.689 l 1.133,1.243 c -0.814,0.748 -1.851,1.089 -3.057,1.089 -2.198,0 -3.724,-1.496 -3.724,-3.753 0,-2.258 1.48,-3.797 3.627,-3.797 2.065,0.002 3.48,1.534 3.487,3.769 z m -5.114,-0.666 h 3.175 c -0.178,-0.918 -0.732,-1.437 -1.561,-1.437 -0.911,10e-4 -1.444,0.549 -1.614,1.437 z" />
			<path
   id="XMLID_296_"
   style="fill:#9eb7c7"
   d="m 301.619,471.757 c 0,0.222 -0.016,0.488 -0.037,0.651 h -5.085 c 0.207,1.036 0.933,1.487 1.843,1.487 0.622,0 1.296,-0.252 1.814,-0.689 l 1.133,1.243 c -0.815,0.748 -1.851,1.089 -3.058,1.089 -2.198,0 -3.723,-1.496 -3.723,-3.753 0,-2.258 1.48,-3.797 3.627,-3.797 2.064,0.002 3.478,1.534 3.486,3.769 z m -5.115,-0.666 h 3.175 c -0.178,-0.918 -0.733,-1.437 -1.561,-1.437 -0.91,10e-4 -1.444,0.549 -1.614,1.437 z" />
			<path
   id="XMLID_293_"
   style="fill:#9eb7c7"
   d="m 309.964,471.764 c 0,2.154 -1.495,3.775 -3.472,3.775 -0.962,0 -1.644,-0.378 -2.109,-0.933 v 3.708 h -1.925 v -10.133 h 1.888 v 0.792 c 0.467,-0.585 1.154,-0.984 2.139,-0.984 1.984,0.001 3.479,1.622 3.479,3.775 z m -5.677,0 c 0,1.133 0.748,1.977 1.844,1.977 1.14,0 1.85,-0.881 1.85,-1.977 0,-1.095 -0.71,-1.976 -1.85,-1.976 -1.096,10e-4 -1.844,0.844 -1.844,1.976 z" />
			<path
   id="XMLID_290_"
   style="fill:#9eb7c7"
   d="m 313.068,465.836 c 0,0.696 -0.541,1.229 -1.236,1.229 -0.696,0 -1.229,-0.533 -1.229,-1.229 0,-0.695 0.532,-1.243 1.229,-1.243 0.695,-0.001 1.236,0.547 1.236,1.243 z m -0.26,9.518 h -1.932 v -7.172 h 1.932 z" />
			<path
   id="XMLID_288_"
   style="fill:#9eb7c7"
   d="m 316.032,470.736 2.702,-2.554 h 2.368 l -3.478,3.375 3.501,3.797 h -2.376 l -2.717,-2.901 v 2.901 H 314.1 v -10.658 h 1.932 z" />
		</g>
		<g
   id="XMLID_259_"
   style="display:none">
			<path
   id="XMLID_284_"
   style="fill:#9eb7c7"
   d="m 184.412,475.29 v -1.055 c -0.527,0.718 -1.391,1.23 -2.387,1.23 -1.846,0 -3.149,-1.406 -3.149,-3.706 0,-2.256 1.289,-3.721 3.149,-3.721 0.952,0 1.816,0.469 2.387,1.245 v -3.765 h 1.099 v 9.771 h -1.099 z m 0,-1.919 v -3.208 c -0.395,-0.615 -1.245,-1.143 -2.124,-1.143 -1.42,0 -2.27,1.172 -2.27,2.739 0,1.567 0.85,2.725 2.27,2.725 0.879,0 1.729,-0.498 2.124,-1.113 z" />
			<path
   id="XMLID_281_"
   style="fill:#9eb7c7"
   d="m 186.932,471.745 c 0,-2.051 1.465,-3.706 3.486,-3.706 2.139,0 3.398,1.67 3.398,3.794 v 0.278 h -5.727 c 0.088,1.333 1.025,2.446 2.549,2.446 0.806,0 1.626,-0.322 2.182,-0.894 l 0.527,0.718 c -0.703,0.703 -1.655,1.084 -2.812,1.084 -2.095,0 -3.603,-1.508 -3.603,-3.72 z m 3.471,-2.798 c -1.509,0 -2.256,1.274 -2.314,2.358 h 4.644 c -0.015,-1.055 -0.718,-2.358 -2.33,-2.358 z" />
			<path
   id="XMLID_279_"
   style="fill:#9eb7c7"
   d="m 194.607,474.352 0.571,-0.791 c 0.469,0.542 1.362,1.011 2.329,1.011 1.084,0 1.67,-0.513 1.67,-1.216 0,-1.714 -4.38,-0.659 -4.38,-3.281 0,-1.099 0.952,-2.036 2.636,-2.036 1.202,0 2.051,0.454 2.623,1.025 l -0.513,0.762 c -0.424,-0.513 -1.201,-0.894 -2.109,-0.894 -0.966,0 -1.567,0.483 -1.567,1.113 0,1.553 4.379,0.527 4.379,3.281 0,1.187 -0.952,2.139 -2.783,2.139 -1.157,0 -2.138,-0.351 -2.856,-1.113 z" />
			<path
   id="XMLID_276_"
   style="fill:#9eb7c7"
   d="m 201.477,466.471 c 0,-0.41 0.337,-0.747 0.732,-0.747 0.41,0 0.747,0.337 0.747,0.747 0,0.41 -0.337,0.732 -0.747,0.732 -0.395,0.001 -0.732,-0.322 -0.732,-0.732 z m 0.19,8.819 v -7.075 h 1.099 v 7.075 z" />
			<path
   id="XMLID_273_"
   style="fill:#9eb7c7"
   d="m 204.582,477.106 0.556,-0.82 c 0.586,0.703 1.289,0.967 2.3,0.967 1.172,0 2.27,-0.571 2.27,-2.124 v -1.011 c -0.513,0.718 -1.377,1.26 -2.373,1.26 -1.846,0 -3.149,-1.377 -3.149,-3.662 0,-2.271 1.289,-3.677 3.149,-3.677 0.952,0 1.802,0.469 2.373,1.245 v -1.069 h 1.099 v 6.87 c 0,2.344 -1.641,3.076 -3.369,3.076 -1.201,0 -2.022,-0.236 -2.856,-1.055 z m 5.126,-3.853 v -3.091 c -0.381,-0.615 -1.23,-1.143 -2.109,-1.143 -1.421,0 -2.27,1.128 -2.27,2.695 0,1.553 0.849,2.695 2.27,2.695 0.879,0.002 1.729,-0.54 2.109,-1.156 z" />
			<path
   id="XMLID_271_"
   style="fill:#9eb7c7"
   d="m 217.413,475.29 v -4.629 c 0,-1.245 -0.63,-1.641 -1.582,-1.641 -0.864,0 -1.685,0.527 -2.094,1.099 v 5.171 h -1.099 v -7.075 h 1.099 v 1.025 c 0.497,-0.586 1.464,-1.201 2.519,-1.201 1.48,0 2.256,0.747 2.256,2.285 v 4.966 z" />
			<path
   id="XMLID_268_"
   style="fill:#9eb7c7"
   d="m 219.932,471.745 c 0,-2.051 1.465,-3.706 3.486,-3.706 2.139,0 3.398,1.67 3.398,3.794 v 0.278 h -5.727 c 0.088,1.333 1.025,2.446 2.548,2.446 0.806,0 1.626,-0.322 2.183,-0.894 l 0.527,0.718 c -0.703,0.703 -1.655,1.084 -2.813,1.084 -2.093,0 -3.602,-1.508 -3.602,-3.72 z m 3.472,-2.798 c -1.509,0 -2.256,1.274 -2.314,2.358 h 4.643 c -0.015,-1.055 -0.718,-2.358 -2.329,-2.358 z" />
			<path
   id="XMLID_265_"
   style="fill:#9eb7c7"
   d="m 233.35,475.29 v -1.055 c -0.527,0.718 -1.392,1.23 -2.388,1.23 -1.845,0 -3.149,-1.406 -3.149,-3.706 0,-2.256 1.289,-3.721 3.149,-3.721 0.952,0 1.817,0.469 2.388,1.245 v -3.765 h 1.098 v 9.771 h -1.098 z m 0,-1.919 v -3.208 c -0.396,-0.615 -1.245,-1.143 -2.124,-1.143 -1.421,0 -2.27,1.172 -2.27,2.739 0,1.567 0.85,2.725 2.27,2.725 0.879,0 1.728,-0.498 2.124,-1.113 z" />
			<path
   id="XMLID_262_"
   style="fill:#9eb7c7"
   d="m 239.692,475.29 v -9.771 h 1.099 v 3.765 c 0.571,-0.776 1.421,-1.245 2.388,-1.245 1.845,0 3.149,1.465 3.149,3.721 0,2.3 -1.304,3.706 -3.149,3.706 -0.996,0 -1.86,-0.513 -2.388,-1.23 v 1.055 h -1.099 z m 3.208,-0.806 c 1.436,0 2.285,-1.157 2.285,-2.725 0,-1.567 -0.85,-2.739 -2.285,-2.739 -0.864,0 -1.729,0.527 -2.109,1.143 v 3.208 c 0.38,0.615 1.245,1.113 2.109,1.113 z" />
			<path
   id="XMLID_260_"
   style="fill:#9eb7c7"
   d="m 247.528,477.062 c 0.161,0.073 0.425,0.117 0.6,0.117 0.483,0 0.806,-0.161 1.055,-0.747 l 0.469,-1.069 -2.959,-7.148 h 1.187 l 2.358,5.801 2.344,-5.801 h 1.2 l -3.544,8.511 c -0.425,1.024 -1.143,1.421 -2.08,1.436 -0.234,0 -0.6,-0.044 -0.806,-0.104 z" />
		</g>
	</g>
</g>
</svg>
