<?xml version="1.0" encoding="utf-8"?>
<!-- Generator: Adobe Illustrator 27.5.0, SVG Export Plug-In . SVG Version: 6.00 Build 0)  -->
<svg version="1.1" xmlns="http://www.w3.org/2000/svg" xmlns:xlink="http://www.w3.org/1999/xlink" x="0px" y="0px"
	 viewBox="0 0 500 500" style="enable-background:new 0 0 500 500;" xml:space="preserve">
<g id="BACKGROUND">
</g>
<g id="OBJECTS">
	<g>
		<g>
			<path style="fill:#C5D3E4;" d="M443.732,380.185c-2.179-8.485-0.936-5.039-1.809-9.413c-0.498-2.417-4.331-2.883-5.3-0.299
				l-0.099-0.212c-8.479-9.243-18.168-13.826-29.4-18.325C302.728,310.02,137.84,329,68.96,367.722
				c-0.478-1.637-3.223-2.778-4.945-0.364c-14.148,19.759-13.286,41.136-3.751,63.061c20.763,47.742,66.357,30.054,102.788,24.908
				c26.91-3.399,37.692,5.812,60.385,16.628c15.337,7.347,46.741,13.087,83.186,6.63c15.668-2.783,22.103-5.485,33.542-11.958
				c7.871-4.419,14.5-8.194,23.343-8.194c15.786,0,52.305,18.678,73.625-11.465C453.232,424.306,449.602,402.568,443.732,380.185z"
				/>
			<path style="fill:#D7EAFF;" d="M433.041,134.646c-17.757-16.628-48.142-13.214-52.149-39.584
				c-1.976-16.373,4.353-46.168-45.488-60.399c-46.516-13.351-78.521-0.988-104.43,2.687c-40.358,5.209-87.391-24.92-125.41,45.103
				c-15.548,28.554-11.698,39.64-37.079,57.708c-13.183,9.485-28.694,28.141-32.367,64.023
				c-6.13,59.869,46.889,113.362,24.196,167.314c-0.198,0.712-0.097,1.447,0.192,1.997c0.066,1.466,1.318,2.661,2.79,2.661
				c398.686,0,376.371,0.543,377.656-1.09c2.427,0.03,1.716-1.161,7.397-10.283c15.964-25.838,12.517-49.871,8.468-79.608
				l-0.088,0.093c-7.064-55.283,4.069-53.051,7.088-75.985C467.412,181.521,453.38,153.712,433.041,134.646z"/>
		</g>
		<g>
			<g>
				<path style="fill:#FFFFFF;" d="M330.427,77.906c-6.627,0.75-43.132-3.105-44.012-0.465c-0.907,0.342-0.502,2.101-0.117,16.613
					c0.606,21.66,0.159,21.053,1.203,21.063c-0.012,0-0.018,0.007-0.02,0.018c0.003,0,0.005,0.001,0.008,0.001
					c0.008,0.004,0.027,0.102,0.027,0.105c0.207,0.725,0.782,0.556,1.512,0.469l0.121-0.063c12.746-1.459,24.195,0.946,37.441,1.027
					c1.141,0,2.277-0.023,3.414-0.066c0.39-0.007,0.708-0.274,0.799-0.652c0.005-0.035,0.009-0.07,0.01-0.106
					c0.003,0,0.006,0,0.009,0c0.001-0.008,0.002-0.016,0.003-0.023c1.63,0-0.105-4.021,1.031-37.488
					C331.885,77.651,330.932,77.208,330.427,77.906z"/>
				<path style="fill:#A1B0C1;" d="M336.37,74.581c0.045-1.638-1.862-2.882-3.394-1.981c-11.331-0.021-31.489-2.089-49.254-0.529
					c-1.587-0.691-3.279,0.656-3.173,2.093c1.065,14.308,0.303,28.487,1.066,43.133c0.085,1.48,1.319,2.454,2.586,2.259
					c5.967,2.249,14.644,0.73,21.252,0.984c0.997,0.038,1.985,0.148,2.98,0.219c6.574,0.418,8.533-0.033,24.442-0.184
					c0.699-0.004,1.376-0.344,1.813-0.91C338.262,119.083,335.26,117.718,336.37,74.581z M330.825,115.829
					c-0.1,1-1.043,0.848-4.234,0.848c-13.158-0.081-24.793-2.488-37.443-1.027l-0.12,0.06c-0.711,0.092-1.307,0.256-1.509-0.466
					c0-0.005-0.023-0.104-0.028-0.105c-1.074-0.119-0.649,0.642-1.205-21.524c-0.393-15.661-0.635-15.888,0.13-16.171
					c0.89-2.585,37.526,1.193,44.013,0.461c0.502-0.697,1.458-0.256,1.43,0.435C330.716,111.599,332.461,115.829,330.825,115.829z"
					/>
				<g>
					<path style="fill:#E2D5C4;" d="M332.374,92.896c-0.147-0.033-0.286-0.074-0.426-0.125c-2.138-0.977-3.647-4.388-5.738-4.244
						c0.034-2.116,0.052-4.232,0.033-6.349c-0.01-1.007-1.509-0.972-1.5,0c0.022,2.396,0,4.792-0.044,7.187
						c-0.67,0.774-1.116,1.924-1.44,2.9c-2.29-1.117-4.014-0.194-5.069,2.114c-0.551-0.366-1.166,0.097-1.146,0.617
						c0.02,0.578,0.035,1.156,0.047,1.734c0.003,0.162,0.068,0.307,0.158,0.431c-0.143,0.557-0.276,1.116-0.405,1.676
						c-2.29-0.345-3.305,0.643-4.305,1.315c0.371-18.899,0.488-18.602-0.512-18.602c-1.102,0-0.613-0.256-0.997,19.074
						c-5.386-0.32-6.949-11.864-11.958-1.163c-0.076-0.018-0.15-0.046-0.225-0.066c-0.076-5.4-0.108-10.801,0.023-16.2
						c0.027-0.946-1.471-1.032-1.5,0c-0.127,5.228-0.102,10.458-0.031,15.687c-1.523-0.613-3.306-1.632-5.088-1.535
						c0.039-1.886,0.268-3.129-0.732-3.129c-0.402,0-0.754,0.34-0.75,0.75c0.017,0.92,0.004,1.841-0.021,2.761
						c-1.197,0.569-3.449,2.867-2.232,3.583c0.769,0.453,1.068-0.425,1.588-1.123c0.96-1.192,1.737-1.44,2.833-1.329
						c0.77,0.125,1.5,0.404,2.216,0.706c-0.249-0.117,1.329,0.596,2.212,0.925c0.191,12.649-0.053,12.906,0.948,12.906
						c1.04,0,0.749-0.188,0.559-12.465c1.894,0.407,0.759-0.416,3.152-3.648c0.86-1.077,1.186-1.048,2-0.214
						c-0.112,0.592-0.141,2.031-0.133,2.639c0.01,1.006,1.509,0.972,1.5,0c-0.005-0.343,0.004-0.684,0.014-1.024
						c1.431,1.71,3.339,3.323,5.597,3.442c-0.176,8.645-0.453,9.133,0.573,9.133c1,0,0.751-0.48,0.932-9.394
						c1.674-0.712,2.077-2.096,4.704-1.43c0.387,0.09,0.828-0.117,0.922-0.523c1.118-4.714,1.77-8.101,5.191-5.887
						c0.41,0.273,0.969-0.004,1.102-0.449c0.062-0.211,0.129-0.42,0.196-0.63c-0.153,6.143-0.376,12.285-0.3,18.432
						c0.02,1.019,1.518,0.96,1.5,0c-0.089-7.118,0.224-14.229,0.365-21.343c0.687-0.213,2.45,1.946,2.958,2.463
						c1.083,1.104,3.366,2.72,3.754,1.316C333.003,93.439,332.773,92.982,332.374,92.896z"/>
					<path style="fill:#E2D5C4;" d="M292.233,85.717c-0.326-4.929-0.07-5.898-1.07-5.898c-1.036,0-0.759,0.905-0.43,5.898
						C290.804,86.775,292.295,86.646,292.233,85.717z"/>
					<path style="fill:#E2D5C4;" d="M290.998,90.975c0.009,1.004,1.509,0.975,1.5,0c-0.009-1.772,0.227-2.984-0.773-2.984
						C290.724,87.991,290.988,89.14,290.998,90.975z"/>
					<path style="fill:#E2D5C4;" d="M292.247,107.328c0.043-1.965,0.031-3.926-0.039-5.891c-0.012-0.406-0.328-0.75-0.75-0.75
						c-1.12,0-0.585,0.861-0.711,6.641C290.72,108.273,292.217,108.36,292.247,107.328z"/>
					<path style="fill:#E2D5C4;" d="M290.832,110.262c-0.057,1.425-0.264,2.797,0.738,2.797c1.003,0,0.692-1.055,0.762-2.797
						C292.368,109.321,290.872,109.223,290.832,110.262z"/>
					<path style="fill:#E2D5C4;" d="M305.729,86.949c0.063-1.367,0.082-2.738,0.063-4.109c-0.01-1.006-1.509-0.972-1.5,0
						c0.02,1.371,0,2.742-0.063,4.109C304.184,87.887,305.679,87.992,305.729,86.949z"/>
					<path style="fill:#E2D5C4;" d="M305.272,93.724c0.316-0.308,0.401-2.658,0.43-3.102c0.054-0.94-1.44-1.05-1.5,0
						c-0.055,0.859-0.121,1.715-0.207,2.57C303.933,93.796,304.784,94.227,305.272,93.724z"/>
					<path style="fill:#E2D5C4;" d="M305.556,104.39c0.107-0.852-1.371-1.141-1.5,0c-0.124,1.054-0.339,2.242,0.641,2.242
						C305.636,106.632,305.417,105.572,305.556,104.39z"/>
					<path style="fill:#E2D5C4;" d="M304.294,109.456c0.02,0.824-0.016,1.648-0.102,2.469c-0.089,0.859,1.372,1.134,1.5,0
						c0.086-0.82,0.121-1.645,0.102-2.469C305.764,108.425,304.267,108.508,304.294,109.456z"/>
					<path style="fill:#E2D5C4;" d="M318.634,84.971c0.03-1.95,0.305-3.031-0.695-3.031c-1,0-0.778,1.31-0.805,3.031
						C317.124,85.94,318.624,85.979,318.634,84.971z"/>
					<path style="fill:#E2D5C4;" d="M317.158,89.87c-0.02,0.886-0.159,1.82,0.73,1.82c0.884,0,0.75-0.94,0.77-1.82
						C318.676,88.914,317.177,88.846,317.158,89.87z"/>
					<path style="fill:#E2D5C4;" d="M316.984,101.259c-0.016,0.434-0.043,0.863-0.086,1.297c-0.061,0.585,0.776,1.043,1.277,0.527
						c0.298-0.29,0.293-1.385,0.309-1.824C318.511,100.318,317.014,100.223,316.984,101.259z"/>
					<path style="fill:#E2D5C4;" d="M316.861,104.687c0.035,1.306-0.238,2.492,0.762,2.492c0.99,0,0.771-1.268,0.738-2.492
						C318.331,103.652,316.833,103.744,316.861,104.687z"/>
					<path style="fill:#E2D5C4;" d="M316.798,109.129c0.047,0.813,0.066,1.625,0.066,2.438c0,0.987,1.5,0.991,1.5,0
						c0-0.813-0.02-1.625-0.066-2.438C318.248,108.083,316.754,108.194,316.798,109.129z"/>
				</g>
				<path style="fill:#E2D5C4;" d="M310.419,66.197c0.084-0.339-0.158-0.614-0.472-0.614c-0.086,0-0.303,0.042-0.41,0.059
					c-1.257,0.144-2.529,0.033-3.782,0.2c-0.547,0.076-0.627,0.582-0.356,0.854c-0.147,0.354,0.113,7.429,0.584,7.625
					c0.064,0.107,0.166,0.181,0.283,0.204c1.109,0.207,4,0.605,3.64-0.478C309.986,73.946,310.424,66.208,310.419,66.197z"/>
			</g>
			<g>
				<g>
					<g>
						<path style="fill:#49362E;" d="M174.313,297.116c-4.193,39.301-12.153,114.037-11.891,111.531c-0.105,1,0.883,2.25,2.25,2.25
							c1.492,0,2.248-1.286,2.254-2.286c12.76-119.678,12.345-111.966,11.227-113.085
							C176.955,294.329,174.573,294.703,174.313,297.116z"/>
						<path style="fill:#49362E;" d="M196.372,296.47c0,13.486,0,79.803,0,90.242c0,1.227,1.023,2.25,2.25,2.25
							c1.226,0,2.25-1.023,2.25-2.25c0-33.243,0-56.747,0-90.242C200.872,293.504,196.372,293.5,196.372,296.47z"/>
						<path style="fill:#49362E;" d="M222.173,298.803c0,9.107,0,67.495,0,76.672c0,2.966,4.5,2.97,4.5,0c0-8.896,0-69.401,0-76.672
							C226.673,295.837,222.173,295.833,222.173,298.803z"/>
						<path style="fill:#49362E;" d="M266.019,352.918c-1.531-1.546-4.005-0.116-3.84,1.59c1.392,14.503,5.344,55.617,5.344,55.617
							c0.326,3.431,4.741,2.499,4.5,0C266.264,350.167,266.892,353.79,266.019,352.918z"/>
					</g>
					<g>
						<g>
							<path style="fill:#FFC9A9;" d="M235.002,386.284c0.89-4.976-5.019-8.161-10.231-7.887c0.264-0.314,1.948-2.263,1.948-2.674
								c0-0.735-0.942-1.005-1.299-0.537c-5.09,6.522-10.801,12.654-15.629,19.399c-0.523,0.267-0.332,0.771-0.67,3.356l0.043-0.197
								c-0.161,1.001-0.611,3.993-0.789,5.529c-0.287,0.228-0.362,0.64-0.174,0.971c1.387,2.447,2.508,5.063,3.812,7.554
								c0.109,0.209,0.329,0.347,0.59,0.369c1.934,1.146,9.699,1.768,11.25,1.895c0.436,0,0.753-0.374,0.761-0.748
								c1.537-0.187-0.724-6.147-0.859-14.161c4.502-4.494,8.586-8.529,12.942-12.336c0.309-0.273,0.28-0.798,0-1.077
								C236.116,385.159,235.598,385.759,235.002,386.284z"/>
							<path style="fill:#FFC9A9;" d="M312.154,417.729c-0.367-0.714-5.481-3.393-7.012-4.258c-0.581-1.633-2.609-7.81-3.456-11.4
								c0.348-0.569-0.202-1.982-0.528-2.561c-0.04-0.239-0.184-1.15-0.204-1.253l-0.01,0.002c0.208-1.345-1.448-1.443-1.543-0.448
								c-0.147-0.147-1.179-0.532-2.357-0.532c-3.515,0-7.99,2.791-9.665,5.289c-0.22-0.697-0.459-1.4-0.693-2.099
								c-0.129-0.378-0.483-0.636-0.934-0.53c-1.218,0.326-0.748,0.22,8.262,26.24c0.074,0.222,0.231,0.402,0.431,0.494
								c0.059,1.038,0.867,0.474,5.192,1.024c0.001,0,0.003,0,0.004,0v0l0.121,0.005l0.001-0.01c1.783,0.27,8.275,1.469,8.275,1.469
								c0.135,0,0.256-0.032,0.369-0.098c0.17-0.099,0.297-0.265,0.348-0.455c0.05-0.175,0.025-0.385-0.067-0.562
								c0.696-0.442,3.184-4.784,3.829-9.451C312.574,418.221,312.492,417.92,312.154,417.729z"/>
						</g>
						<g>
							<path style="fill:#49362E;" d="M222.998,398.967c0.301,0.277,0.766,0.297,1.063,0c1-1-1.039-1.98-10.043-9.246
								c-0.875-0.725-1.748,0.503-1.063,1.059C216.319,393.495,219.826,396.026,222.998,398.967z"/>
							<path style="fill:#49362E;" d="M226.068,413.474c-0.022-1.432-8.557-2.143-14.298-3.581c-0.693-1.176-1.731-3.091-2.4-4.378
								c0.189-0.067,0.335-0.241,0.388-0.45c0.3-1.278,2.239-11.289,1.941-11.913c-0.071-0.4-0.431-0.646-0.786-0.646
								c-0.44,0-5.936,4.531-6.334,4.818c-0.417,0.298-0.467,0.718-0.276,1.048c0.07,0.121,0.183,0.224,0.324,0.297
								c2.346,6.402,6.027,12.425,9.516,18.297c-0.526,1.8,9.883,2.762,16.927,5.059c0.057,0.021,0.124,0.032,0.206,0.032
								c0.333,0,0.653-0.245,0.744-0.57c0.056-0.217,0.02-0.436-0.103-0.618C232.024,420.143,226.599,414.003,226.068,413.474z"/>
							<path style="fill:#49362E;" d="M291.589,418.521c4.285-1.332,8.633-2.492,12.742-4.316c0.633-0.28,0.427-1.396-0.359-1.396
								c-0.23,0-1.013,0.372-1.246,0.47c0.059-0.027,0.117-0.051,0.18-0.078c-8.83,3.685-12.668,3.211-12.238,4.793
								C290.772,418.38,291.198,418.642,291.589,418.521z"/>
							<path style="fill:#49362E;" d="M328.464,428.272c0.001-0.253-0.139-0.499-0.37-0.648c-5.405-3.52-11.032-6.997-16.312-10.804
								c-0.463-0.497-1.182-0.25-1.32,0.291c-0.413,1.638-0.996,3.34-1.781,5.202l0.096-0.172c-0.913,2.083-2.581,5.431-2.581,5.431
								c-2.056-0.121-3.865-0.27-5.52-0.464c0.583-1.45-6.095-5.457-7.912-7.306c-0.069-0.069-0.149-0.124-0.238-0.162
								c-0.579-0.568-1.479,0.013-1.287,0.746c0.597,2.187,1.607,4.313,2.297,6.294c0.084,0.232,0.248,0.416,0.451,0.506
								c0.975,2.306,28.034,2.08,34.128,2.528C328.895,429.713,329.199,428.646,328.464,428.272z"/>
						</g>
						<g>
							<path style="fill:#6C7548;" d="M296.186,337.016c0-0.001-6.833-28.594-6.834-28.595l0,0c-0.006-0.015-0.012-0.032-0.018-0.05
								l0.006-0.007l0,0c0.25-0.297,0.192-0.845-0.193-1.048c-3.397-1.615-9.921-6.219-11.113-6.219
								c-0.745,0-0.958,1.015-0.348,1.32c3.247,1.466,5.446,3.251,10.241,5.927l0,0l0.193,0.108
								c-0.488,0.891,5.052,21.762,6.02,25.777c0.113,0.441,0.076,0.297,0.172,0.672c0.244,1.01,0.28,1.134,0.461,2.18
								c0.128,0.654,0.108,1.199,0.797,1.199c0.277,0,0.49-0.138,0.621-0.344C296.34,337.651,296.245,337.357,296.186,337.016z"/>
							<path style="fill:#6C7548;" d="M263.307,324.777c0.021,0.014,0.04,0.032,0.06,0.048c-0.017-0.013-0.032-0.033-0.048-0.044
								C263.315,324.781,263.311,324.777,263.307,324.777z"/>
							<path style="fill:#6C7548;" d="M263.635,325.199c-0.014-0.116-0.105-0.225-0.205-0.317c0.588,0.616-0.144,1.263-0.694,1.919
								c0.135,0.337,0.035,0.523-0.125,0.754c2.153,12.092,5.831,22.312,6.367,34.777c0.029,0.98,1.445,0.88,1.406,0
								C269.937,349.427,265.396,336.645,263.635,325.199z"/>
							<path style="fill:#6C7548;" d="M263.43,324.882c-0.004-0.004-0.006-0.011-0.01-0.015
								C263.377,324.824,263.326,324.786,263.43,324.882z"/>
						</g>
						<path style="fill:#889555;" d="M307.871,377.165c-2.162-7.061-4.023-13.234-5.691-18.871
							c-2.071-7.021-3.842-13.199-5.414-18.887c1.298-1.327,11.318-12.45,14.414-20.505c0.842-2.163,1.161-4.032,0.973-5.716
							c0.127-0.142,0.195-0.358,0.18-0.57c-0.046-0.666-8.074-7.06-8.594-7.48c-2.762-2.224-3.322-3.082-4.047-2.583
							c-9.892-6.388-47.915-14.995-91.177-3.228l0.172,0.127c5.834,3.633-1.784-0.642,22.294,11.864
							c6.905,2.407,12.418,6.249,18.223,8.949c0.576,0.195,7.373,2.467,7.416,3.074c2.2,0.977,4.167,1.488,4.485,2.144l0.391,0.2
							c-3.311,3.093-6.052,6.913-9.034,10.383c-12.025,11.095-21.853,25.109-36.061,37.198c-0.154,0.137-0.238,0.331-0.238,0.547
							c-0.04,0.073-0.063,0.18-0.063,0.297c0,0.19,0.083,0.45,0.242,0.578c5.441,4.236,25.271,21.596,26.174,21.596
							c0.087,0,0.16-0.011,0.234-0.036c0.119-0.028,0.251-0.105,0.371-0.217c0.476-0.224,9.393-11.433,9.721-11.845
							c5.602-7.029,10.329-13.075,16.729-19.996c0.463,2.522,8.72,39.89,9.094,40.401c-0.018,0.015-0.011,0.076,0.018,0.146
							c0.283,1.072,1.043,0.321,5.718-0.318c6.012-1.036,17.435-0.493,25.426-5.22c1.536-0.887,3.178-2.234,3.178-2.234
							c0.216-0.06,0.396-0.196,0.505-0.383C313.881,395.97,313.603,395.875,307.871,377.165z M263.356,324.816
							c-0.016-0.013-0.032-0.028-0.049-0.039C263.338,324.793,263.33,324.798,263.356,324.816z M268.977,362.332
							c-0.514-12.367-4.247-22.861-6.367-34.779c0.167-0.226,0.257-0.423,0.128-0.752c0.549-0.66,1.288-1.314,0.69-1.921
							c0.197,0.179,0.199,0.253,0.225,0.422c2.051,12.516,6.288,24.367,6.734,37.03
							C270.424,363.211,269.015,363.323,268.977,362.332z M295.21,338.19c-0.34-0.208-0.327-0.491-0.397-0.891
							c-0.11-0.562-0.127-0.742-0.262-1.379c-0.067-0.293-0.173-0.74-0.316-1.321c-0.751-2.942-6.601-25.273-6.114-26.145
							c-5.001-2.779-7.152-4.555-10.434-6.037c-0.572-0.279-0.431-1.321,0.347-1.321c0.804,0,5.453,2.934,6.131,3.366
							c1.514,0.948,3.231,2.022,4.982,2.856c0.342,0.175,0.472,0.7,0.188,1.055c0.05,0.137,0.073,0.194,0.076,0.245
							c1.675,8.459,6.312,25.722,6.84,28.759C296.392,338.152,295.708,338.456,295.21,338.19z"/>
					</g>
				</g>
				<g>
					<g>
						<rect x="89.497" y="301.096" style="fill:#8D96A0;" width="10.756" height="128.065"/>
						<rect x="113.401" y="260.745" style="fill:#8D96A0;" width="10.756" height="128.064"/>
						<rect x="374.713" y="259.111" style="fill:#8D96A0;" width="10.756" height="128.064"/>
						<rect x="401.337" y="301.096" style="fill:#8D96A0;" width="10.756" height="128.065"/>
					</g>
					<g>
						<path style="fill:#9CA6B3;" d="M415.672,290.271l-0.096-0.235c0.037-0.134-0.029-0.311-0.17-0.456
							c-23.867-58.957-22.657-58.682-23.818-57.868c-1-0.032-287.693-0.813-281.701,1.154c-10.544,24.104-2.975,6.711-24.467,56.627
							c-0.52-0.017-0.764,0.596-0.365,0.995c-0.336,0.421-0.523,1.054-0.036,1.283c0.099,0.094,0.269,0.137,0.46,0.061
							c0.376-0.071,0.614-0.878,0.776-1.253l0.127,0.068c135.842,0.016,66.172,0.013,328.215,0.013l-0.018,0.122
							c0.097,0.314,0.392,0.468,0.592,0.468c0.155,0,0.416-0.125,0.517-0.326C415.863,290.685,415.762,290.518,415.672,290.271z"/>
						<rect x="85.021" y="290.604" style="fill:#AEB7C1;" width="330.764" height="12.479"/>
					</g>
				</g>
				<g>
					<path style="fill:#9A7567;" d="M207.182,250.947c-1.392,3.261-2.601,6.594-3.969,9.862c-2.045,4.823-2.819,5.243-1.945,5.759
						c1.415,0.829,2.032-2.587,7.145-14.711c-0.027,0.059-0.051,0.117-0.078,0.18c0.047-0.113,0.094-0.223,0.141-0.332
						C208.941,250.594,207.497,250.193,207.182,250.947z"/>
					<g>
						<path style="fill:#FFFFFF;" d="M208.643,271.332c-0.02,0.003-0.041,0.005-0.061,0.008
							C208.641,271.332,208.643,271.332,208.643,271.332z"/>
						<path style="fill:#FFFFFF;" d="M211.368,270.629c-0.006,0.003-0.013,0.005-0.019,0.008
							C211.357,270.634,211.368,270.629,211.368,270.629z"/>
						<path style="fill:#FFFFFF;" d="M207.8,264.935c0.025-2.415,0.013-2.889,0.04-4.126c0.002-0.131-0.05-0.257-0.146-0.354
							c-0.098-0.099-0.23-0.156-0.364-0.156c-0.13,0-0.251,0.048-0.343,0.135c-2.909-0.107-21.445-0.638-23.602,0.131
							c-0.386-0.007-0.591,0.27-0.561,0.507c0.649,5.974,0.629,15.303,6.896,19.304c1.846,1.49,4.318,2.192,5.388,2.161
							c1.737-0.09,3.002-0.137,5.314-1.306c3.437-0.91,5.711-4.869,6.577-8.303C217.798,273.019,216.83,263.574,207.8,264.935z
							 M212.501,269.994c-0.582,0.422-1.335,0.723-1.153,0.643c-0.917,0.362-1.878,0.581-2.854,0.716
							c0.195-0.035-0.28,0.052-1.173,0.074c0.327-1.858,0.399-3.458,0.443-4.959c1.824-0.335,4.618-0.294,5.397,1.385
							c0.059,0.165,0.103,0.332,0.135,0.504C213.341,268.97,213.216,269.406,212.501,269.994z"/>
					</g>
				</g>
				<g>
					<g>
						<path style="fill:#956E5E;" d="M384.362,267.541c-0.007,0.003-0.014,0.006-0.021,0.009
							C384.342,267.549,384.361,267.541,384.362,267.541z"/>
						<path style="fill:#956E5E;" d="M384.341,267.549c-0.984,0.403-1.639,0.488-2.356,0.516c0.044-0.621-0.44-1.045-0.987-1.065
							c-1.183-0.042-2.364-0.138-3.547-0.138c-0.154-2.126-0.384-4.252-0.768-6.348c-0.044-0.235-0.194-0.441-0.423-0.581
							c-1.23-1.536-18.08-0.982-19.091-0.955c-30.696,0.808-39.413-1.264-47.755,0.215c-0.634-0.234-1.313,0.215-1.344,0.947
							c-0.979,20.876-1.068,21.486-0.068,21.935c0.635,0.991,0.933,0.199,17.272,0.199c42.533,0,54.838,2.239,52.791-1.069
							c-0.279-4.098-0.27-8.15-0.488-12.343c3.277,0.018,3.733,0.395,4.219-0.295c5.344-0.099,7.886-5.54,12.053-8.822
							c-0.004,0.003-0.007,0.005-0.011,0.008c0.034-0.026,0.07-0.055,0.038-0.029c0.734-0.56,1.512-1.05,2.359-1.417
							c-0.005,0.003-0.01,0.005-0.014,0.008c1.192-0.503,2.176-0.59,2.12-0.586c0.014-0.002,0.047-0.006,0.034-0.004
							c2.009-0.235,3.974,0.145,5.65,1.384c-0.004-0.003-0.007-0.006-0.01-0.009c0.032,0.025,0.071,0.053,0.039,0.031
							c2.711,2.121,3.686,5.863,2.887,9.258c-0.089,0.334,0.407,0.443,0.48,0.133c0.113-0.477,0.191-0.957,0.242-1.445
							c0.154-1.424-0.017-3.064-0.605-4.625c-0.377-1.015-0.89-1.824-1.465-2.531c-1.383-1.681-3.52-2.76-6.136-2.76
							c-2.248,0-4.135,0.801-5.919,2.201c-3.349,2.614-5.609,6.614-9.175,8.177c0.001,0,0.002-0.001,0.003-0.001"/>
						<path style="fill:#956E5E;" d="M404.024,259.111c0.009,0.008,0.019,0.015,0.029,0.022
							C404.047,259.128,404.029,259.115,404.024,259.111z"/>
						<path style="fill:#956E5E;" d="M398.36,257.729c0.005,0,0.009-0.001,0.014-0.002
							C398.373,257.727,398.362,257.729,398.36,257.729z"/>
						<path style="fill:#956E5E;" d="M393.849,259.747c0.01-0.007,0.019-0.014,0.027-0.021
							C393.875,259.726,393.851,259.745,393.849,259.747z"/>
					</g>
					<path style="fill:#49362E;" d="M374.397,279.45c0.086-0.112,0.125-0.252,0.113-0.391c-0.389-5.317-0.192-10.71-0.449-16.023
						c-0.012-0.272-0.151-0.516-0.372-0.653c-0.619-1.913-20.597-0.332-41.789-0.972c-1.63-0.051-20.496-0.779-20.789,0.854
						c-0.156,0.145-0.237,0.34-0.219,0.53c0.471,5.171-0.293,10.393-0.25,15.562c0,0.167,0.06,0.336,0.17,0.475
						c-0.136,0.389,0.176,0.911,0.734,0.937c1.002,0.048,57.318,1.169,62.407,1.055c0.419-0.008,0.76-0.349,0.76-0.76
						C374.713,279.828,374.592,279.593,374.397,279.45z"/>
				</g>
				<g>
					<path style="fill:#49362E;" d="M417.515,166.943l-0.074,0.224c-4.058-1.531-26.293-8.099-46.449-13.301
						c-25.526-6.471-24.281-7.152-24.98-5.891c-0.117,0.109-0.199,0.242-0.242,0.395c-3.476,12.55-14.255,36.309-20.035,57.559
						c-0.446,0.585-0.083,1.445,0.488,1.57c9.339,1.975,18.305,5.168,27.23,8.344c0.027,9.307,0.297,19.096,0.297,29.75
						c-3.625,0.004-7.188,0.035-10.758,0.086c-0.377,0.005-0.62,0.387-0.5,0.699c0.016,2.262,0.074,4.168,0.305,6.121
						c-0.051,0.066-0.078,0.16-0.078,0.266c0,0.285,0.238,0.535,0.512,0.535c23.529-1.24,32.196,0.665,30.73-1.207
						c0.024-0.019-0.137-5.559-0.137-5.59c0.48-0.164,0.349-0.984-0.238-0.984c-2.988,0-5.852,0-8.621,0.008
						c-0.915-8.564-0.998-17.36-0.855-25.934c13.286,4.732,30.418,8.898,31.504,8.898c0.447,0,0.943-0.389,0.984-0.965
						c0.008-0.09,0-0.195-0.027-0.313c0.809-0.087,0.754-0.493,4.5-9.602c0.496-1.205,11.43-28.255,18.265-49.656
						C418.652,167.558,418.217,167.37,417.515,166.943z"/>
					<path style="fill:#FFFFFF;" d="M412.224,170.735c-0.576-1.491-10.108-3.639-18.016-6.152
						c-6.923-2.225-12.676-3.986-17.586-5.383c-15.391-4.394-25.901-5.969-26.901-5.969c-0.951,0-1.131,1.174-1.435,2.093
						c-12.704,37.245-11.759,35.187-13.586,39.937c-0.806,2.158-2.781,6.821-2.01,7.775c-0.149,0.443,0.157,0.973,0.68,1.171
						c11.81,4.647,24.016,7.854,35.887,11.485c9.495,2.922,23.01,8,23.01,8c1.947,1.916,2.252-4.613,13.573-33.038
						c0.119-0.303,0.106-0.268,0.152-0.391C413.583,171.082,413.491,171.198,412.224,170.735z"/>
					<g>
						
							<rect x="348.76" y="159.462" transform="matrix(0.9515 0.3077 -0.3077 0.9515 69.3885 -101.6613)" style="fill:#E2D5C4;" width="16.625" height="19.49"/>
						
							<rect x="371.13" y="169.831" transform="matrix(0.9515 0.3077 -0.3077 0.9515 71.5163 -107.4132)" style="fill:#E2D5C4;" width="10.5" height="6.5"/>
						
							<rect x="368.226" y="180.998" transform="matrix(0.9515 0.3077 -0.3077 0.9515 74.141 -106.0868)" style="fill:#E2D5C4;" width="10.5" height="2.125"/>
						
							<rect x="364.639" y="191.501" transform="matrix(0.9515 0.3077 -0.3077 0.9515 78.3657 -107.5111)" style="fill:#E2D5C4;" width="30.948" height="6.5"/>
						
							<rect x="361.735" y="202.668" transform="matrix(0.9515 0.3077 -0.3077 0.9515 80.9878 -106.182)" style="fill:#E2D5C4;" width="30.948" height="2.125"/>
					</g>
				</g>
				<g>
					<path style="fill:#E0D2C0;" d="M280.779,266.851c-0.214-0.25-2.016-0.751-2.33-0.847c-0.16-0.265-0.659-0.352-0.968-0.352
						c-11.572-1.608-12.471-3.016-13.131-1.789c-0.214,0.107-0.297,0.226-0.394,0.465c-0.95,2.375-5.645,12.524-8.413,16.543
						c-0.135,0.194-0.149,0.454-0.036,0.697c-0.087,0.454,0.18,0.859,0.743,0.912c2.934,0.307,17.19,3.118,17.46,3.118
						c0.29,0,0.525-0.167,0.643-0.397c1-0.278,5.122-10.451,7.059-17.396C281.535,267.363,281.216,266.899,280.779,266.851z"/>
					<path style="fill:#FFFFFF;" d="M294.169,263.085c-5.923-0.817-11.493-2.936-17.649-3.508c-0.111,0-0.166-0.013-0.302,0.052
						c-0.071-0.027-0.138-0.036-0.211-0.036c-0.375,0-0.597,0.223-0.736,0.557c-0.148,0.36-0.153,0.372-0.153,0.372l-0.038,0.115
						l0.009,0.004c-2.459,5.68-5.665,11.045-8.314,16.482c-0.068,0.14-0.099,0.285-0.091,0.431c-0.033,0.048-0.061,0.111-0.082,0.18
						c-0.118,0.453,0.195,0.88,0.531,0.938c6.22,0.96,17.173,4.356,18.198,3.737c0.315,0.162,0.804,0.044,0.969-0.305
						c2.727-5.757,4.993-11.847,8.23-17.37c0.091-0.155,0.121-0.337,0.087-0.526C294.906,263.77,294.593,263.14,294.169,263.085z"/>
				</g>
				<g>
					<g>
						<path style="fill:#7F8E49;" d="M141.015,205.915c2.628-3.162,10.285-14.436,11.903-18.368
							c0.497-1.169,1.932-5.287,0.627-5.287c-1,0-7.707,7.726-11.797,14.325c1.79-4.195,5.18-15.199,3.542-24.731
							c-0.059-0.251-0.334-0.426-0.537-0.426c-1,0-8.864,12.923-8.58,34.877c0.008,0.271,0.221,0.509,0.497,0.553
							c-0.296,0.554-0.525,1.308-0.719,1.905c-1.269-10.015-4.707-19.626-7.954-29.047c-0.201-0.635-1.074-0.478-1.082,0.152
							c-0.016,11.616,3.036,20.803,7.966,31.227c0.117,0.28,0.516,0.413,0.871,0.113c0.029,0.159,0.413,0.253,0.699-0.004
							c0.457-0.438,0.903-0.883,1.34-1.34c-1.16,1.383-2.09,2.853-2.856,4.481c-2.754-9.392-7.831-20.334-14.585-27.467
							c-0.257-0.239-0.567-0.201-0.799,0.015c-0.101,0.113-0.152,0.24-0.152,0.378c0.567,13.943,14.185,29.065,15.446,27.933
							c0.131,0.148,0.368,0.247,0.575,0.158c3.86-1.283,6.937-3.862,9.909-6.568c0.713-0.634,1.944-1.751,2.664-2.402
							c2.803-2.569,5.511-5.225,7.341-7.916c0.634-0.908,1.267-2.031,1.599-3.089C158.152,192.408,146.804,199.942,141.015,205.915z
							"/>
						<path style="fill:#7F8E49;" d="M155.513,204.753c-7.072,3.807-16.744,8.941-21.94,14.963
							c-2.488-5.818-11.152-17.635-18.33-19.507c-0.166-0.05-0.361-0.005-0.509,0.131c-0.115,0.115-0.2,0.333-0.132,0.511
							c4.146,10.817,18.339,21.323,19.1,20.033c6.748-1.468,21.071-8.739,22.571-15.546c0.044-0.194-0.004-0.378-0.132-0.505
							C155.994,204.679,155.747,204.626,155.513,204.753z"/>
					</g>
					<g>
						<path style="fill:#7F8E49;" d="M112.633,218.545c1.017,1.192,10.193-9.215,11.408-18.617c0.071-0.578,0.285-2.972-0.22-3.264
							c-0.193-0.11-0.413-0.104-0.629,0.079c-4.749,3.817-9.75,14.083-10.519,20.217c-3.977-3.358-15.079-7.704-20.812-6.891
							c-1.916,0.298,3.579,4.399,9.459,6.492C104.954,217.86,111.633,219.018,112.633,218.545z"/>
						<path style="fill:#7F8E49;" d="M99.72,202.3c1.448,1.222,10.086,7.661,10.579,5.854c0.041-0.138,0.022-0.286-0.052-0.406
							c-0.006-0.093,0.054-0.157,0.094-0.232c0.306-0.177,0.243-0.454,0.228-0.806c1.383-5.269,3.61-11.605,3.598-17.675
							c-0.004-1.229-0.421-6.031-1.375-6.275c-0.277-0.064-0.502,0.06-0.601,0.243c-3.495,6.437-3.206,14.135-2.81,21.443
							c-2.951-12.108-4.771-20.399-9.845-27.28c-0.313-0.506-1.031-0.21-0.991,0.268c0.941,9.558,5.381,19.719,9.923,28.137
							c0.284,0.541,1.209,0.183,0.94-0.47c0.027,0,0.053-0.05,0.063-0.074c-0.019,0.959-0.025,0.613,0.028,1.575
							c-0.048,0.203-0.029,0.127-0.082,0.337c-1.046-1.391-4.795-5.673-7.425-8.134c-4.101-3.849-8.436-5.94-9.437-5.94
							c-0.372,0-0.661,0.462-0.45,0.804C94.029,196.907,96.826,199.861,99.72,202.3z"/>
						<path style="fill:#7F8E49;" d="M110.881,211.653c-9.099-8.563-22.431-11.773-13.348-4.359
							c2.508,2.043,5.805,3.555,8.878,4.646c0.443,0.158,4.214,1.395,4.648,1.395c0.236,0,0.442-0.156,0.502-0.379
							c7.607-10.777,8.073-23.044,6.471-23.044c-0.175,0-0.343,0.097-0.45,0.258C113.351,196.326,111.545,204.27,110.881,211.653z"
							/>
						<path style="fill:#7F8E49;" d="M125.983,207.492c-0.202-0.05-0.373,0.007-0.506,0.135
							c-4.527,4.128-10.822,13.359-10.315,19.239c-5.178-4.094-15-7.377-21.59-5.991c-1.486,0.311,1.284,3.188,9.176,4.879
							c1.15,0.247,1.735,0.371,4.414,1.109c1.568,0.433,9.057,2.565,8.735,0.965c0.353-0.039,0.364-0.411,0.324-0.761
							c4.22-2.966,9.455-10.52,10.168-16.646C126.465,209.78,126.615,207.665,125.983,207.492z"/>
					</g>
					<g>
						<path style="fill:#A67538;" d="M110.778,209.257c-1.293-4.57-1.197-5.088-1.807-5.088c-0.333,0-0.568,0.333-0.478,0.635
							c1.044,3.588,0.417,1.699,2.605,9.063c2.712,9.139,5.359,18.313,7.723,27.551c0.158,0.622,1.137,0.389,0.961-0.266
							C116.195,227.1,111.899,213.166,110.778,209.257z"/>
						<path style="fill:#A67538;" d="M136.595,204.172c-2.867,15.508-6.348,24.034-6.766,37.395c-0.009,0.644,0.99,0.675,1,0
							c0.047-2.637,0.274-5.262,0.625-7.875c-0.004,0.043-0.012,0.086-0.016,0.133c1.322-9.708,3.985-17.713,6.121-29.387
							C137.688,203.693,136.697,203.587,136.595,204.172z"/>
					</g>
					<path style="fill:#926B5B;" d="M138.1,235.391c-1.635-1.626-5.247-2.262-7.558,1.974c-1.686-2.67-5.295-2.607-6.025,0.48
						c-4.326-5.261-11.345-3.888-10.836,4.761c0.052,0.911,0.847,1.431,1.587,1.212c7.138,7.142,15.226,8.856,22.742,1.919
						c0.745,0.348,1.678-0.153,1.741-1.151l0.047-0.735C139.96,241.393,140.26,237.524,138.1,235.391z"/>
					<path style="fill:#D38E37;" d="M140.934,253.01c0.18-0.96,0.35-1.84,0.51-2.63c0.19-0.98,0.38-1.85,0.54-2.61
						c1.06-4.88,1.43-5.58,0.29-5.58c-0.23,0-0.45,0.11-0.59,0.27c-11.03,0.17-20.1-1.32-30.47-0.77c-0.48-0.5-1.17-0.23-1.31,0.32
						c-0.25,0.3-0.24,0.75,0.08,1.05c0.14,1.35,0.28,2.69,0.43,4.04c0.09,0.83,0.18,1.67,0.28,2.5c0.12,1.12,0.25,2.24,0.38,3.36
						c-2.45-0.51-9.06,1.56-6.95,6.03c1.42,3.01,7.1,3.85,8.1,3.5c0.01,0.1,0.12,0.99,0.29,2.32c0.09,0.74,0.19,1.62,0.32,2.57
						c0.1,0.89,0.22,1.84,0.35,2.8c0.1,0.82,0.21,1.66,0.31,2.48c0.48,3.63,0.95,6.88,1.09,7.03c0.13,0.13,0.3,0.21,0.48,0.22
						c0.68,0.84,20.32,0.59,21.37,0.58c0.53-0.01,0.89-0.54,0.71-1.02c0.01-0.02,0.35-2.53,0.75-5.59c0.11-0.79,0.23-1.63,0.34-2.47
						c0.18-1.32,0.35-2.65,0.52-3.86c0.12-0.92,0.23-1.76,0.32-2.47c0.19-1.34,0.3-2.21,0.3-2.22
						C149.604,264.41,150.354,252.16,140.934,253.01z M105.394,256.67c0.81-1.66,2.86-1.87,3.86-2.11c0,0,0.67-0.1,2-0.08
						c0.06,0.56,0.13,1.12,0.2,1.68c0.09,0.83,0.19,1.66,0.3,2.49c0.09,0.79,0.18,1.58,0.28,2.38
						C106.674,260.74,104.674,258.48,105.394,256.67z M139.584,261.37c0.11-0.75,0.23-1.48,0.34-2.19c0.13-0.86,0.26-1.68,0.39-2.48
						c0.12-0.74,0.24-1.45,0.36-2.15C148.384,253.78,147.614,262.33,139.584,261.37z"/>
				</g>
				<g>
					<path style="fill:#A06B29;" d="M141.984,247.77c-0.16,0.76-0.35,1.63-0.54,2.61c-7.02,0.19-21.75-1.01-30.75-0.78
						c-0.1-0.83-0.19-1.67-0.28-2.5C120.934,246.7,131.444,248.26,141.984,247.77z"/>
					<path style="fill:#A06B29;" d="M140.314,256.7c-0.13,0.8-0.26,1.62-0.39,2.48c-5.2,0.45-16.82-0.92-28.17-0.53
						c-0.11-0.83-0.21-1.66-0.3-2.49C121.064,255.81,130.684,256.8,140.314,256.7z"/>
					<path style="fill:#A06B29;" d="M139.074,265.08c-0.09,0.71-0.2,1.55-0.32,2.47c-13.76-0.64-21.58-0.28-25.92-0.17
						c-0.13-0.95-0.23-1.83-0.32-2.57C121.354,264.71,130.224,264.7,139.074,265.08z"/>
					<path style="fill:#A06B29;" d="M138.234,271.41c-0.11,0.84-0.23,1.68-0.34,2.47c-8.12-0.63-16.26-1.55-24.4-1.22
						c-0.1-0.82-0.21-1.66-0.31-2.48C121.544,269.81,129.904,270.77,138.234,271.41z"/>
				</g>
				<g>
					<path style="fill:#56423A;" d="M254.467,235.464c-6.533,0.187-28.357,4.397-38.189,6.726c-0.289,0.068-0.531,0.079-0.672,0.319
						c-0.204,0.347,0.036,0.768,0.445,0.768c-0.064,0.023-0.111,0.076-0.145,0.137c-0.136,0.232-0.067,0.57,0.18,0.697
						c1.607,0.823,3.249,1.284,4.912,1.739c0.052,0.039,0.117,0.072,0.203,0.101c21.261,7.695,21.238,8.255,21.474,7.255
						c0.001-0.001,1.144-1.559,1.475-1.988l-0.013,0.014c3.767-4.845,7.866-8.509,9.589-14.729c0.593-0.02,1.258,0.06,1.258-0.534
						C254.984,235.607,254.566,235.365,254.467,235.464z"/>
					<g>
						<path style="fill:#FFC19C;" d="M244.311,111.896c-0.051-0.168-0.188-0.305-0.359-0.352c-0.066-0.121-0.188-0.176-0.281-0.211
							c-4.422-1.624-9.512-6.974-12.395-10.676c-0.078-0.098-0.238-0.152-0.359-0.152c-0.172-0.078-0.289-0.129-0.414-0.129
							c-0.355,0-2.042,1.679-2.301,1.922c-6.723,6.297-11.7,11.119-17.035,13.434c-0.004,0-0.004,0.004-0.004,0.004l-0.086,0.047
							l-0.004-0.012c-1.99,0.817-2.398,0.71-3.398,0.977v0.008c-0.264,0.005-0.84,0.006-1.051,0.164
							c-8.622-3.815-9.343,3.797-5.297,7.938c2.08,2.111,3.001,2.769,5.867,7.58c2.07,2.508,4.113,4.988,6.019,7.625
							c1.006,1.22,2.553,2.396,2.563,3.283c0.07,0.043,0.156,0.078,0.266,0.078c-0.033,2.873,0.085,5.704,0.105,8.824
							c0,0-3.35,1.446-5.168,1.977c-0.215,0.066-0.371,0.266-0.375,0.484c-1.008,1.479,3.953,11.311,6.285,17.719
							c2.719,7.277,6.199,13.684,7.199,13.684c1.119,0,12.64-29.408,11.977-30.32c0.051-0.188-0.016-0.453-0.234-0.555
							c-0.273-0.129-0.512-0.215-0.75-0.27c-0.039-0.012-0.082-0.02-0.129-0.02c-0.07,0-0.137,0.016-0.207,0.047
							c-1.039-0.413-3.249-1.142-4.707-2.418c0.125-2.069,0.037-4.036,0.103-6.401c0.583-0.123-0.09,0.064,0.65-0.153
							c0.016,0,0.032,0.003,0.048,0.003c-0.002-0.027,0-0.009,0-0.018c0.464-0.14,0.743-0.251,1.088-0.401
							c0.016,0.001,0.033,0,0.048,0.005c0.361-0.183,2.614-1.347,2.803-1.707C243.904,137.558,248.403,126.368,244.311,111.896z"/>
						<path style="fill:#D08628;" d="M274.314,230.14c-0.01,0.06-0.04,0.12-0.08,0.17c-0.01,0.28-0.22,0.5-0.51,0.51
							c-8.5,0.37-14.86,0.8-19.86,1.21c-0.48,0.04-0.95,0.08-1.4,0.12c-0.98,0.09-1.91,0.18-2.78,0.26
							c-1.82,0.18-3.43,0.35-4.89,0.52c-1.35,0.14-2.57,0.29-3.72,0.42c-0.51,0.06-1,0.12-1.49,0.18c-0.81,0.09-1.59,0.18-2.36,0.26
							c-1.64,0.17-3.24,0.31-4.98,0.41c-1.74,0.09-3.63,0.15-5.83,0.15c-0.65,0-1.26-0.01-1.84-0.03c-0.51,0-0.99-0.02-1.45-0.04
							c-0.81-0.02-1.59-0.06-2.37-0.1c-1.51-0.07-3.04-0.16-4.93-0.23h-0.11c-2.12-0.08-5.24-0.08-8.52-0.11
							c-1.67-0.01-3.37-0.03-5-0.06c-5.33-0.11-9.89-0.41-9.84-1.28c-0.5-0.75-0.99-12.04-1.29-20.71c-0.19-5.16-0.31-9.4-0.32-9.94
							c-1.11,2.51-2.92,5.77-4.45,9.07c-2.62,5.67-4.41,11.46-0.34,13.79c0.09-0.07,0.19-0.1,0.3-0.1c0.05,0,0.09,0.01,0.13,0.02
							c0.26,0.07,0.44,0.36,0.36,0.63c-0.9,2.91-2.11,5.91-3.7,9.19c-0.06,0.12-0.42,0.84-0.91,1.82c-0.36,0.71-0.79,1.56-1.24,2.42
							c-0.39,0.75-0.79,1.51-1.16,2.2c-0.8,1.45-1.47,2.57-1.67,2.59c-0.3,0.29-2.36-0.03-3.39-0.2c-0.23-0.05-0.41-0.08-0.5-0.1
							c-1.56-0.32-2.98-0.74-4.26-1.28c-0.52-0.2-1.01-0.43-1.48-0.67c-0.5-0.26-0.98-0.53-1.44-0.82
							c-2.23-1.42-3.93-3.23-5.17-5.34c-4.11-6.92-3.36-17.12-0.5-27.51c0.04-0.16,0.09-0.34,0.14-0.52c0.94-3.23,3-9.12,5.31-15.28
							c0.26-0.7,0.53-1.41,0.8-2.11c0.46-1.22,0.92-2.44,1.39-3.64c1.23-3.16,2.44-6.2,3.52-8.77c1.37-3.27,2.52-5.79,3.19-6.85
							c0.55-0.87,1.12-1.68,1.72-2.42c0.67-0.84,1.37-1.6,2.1-2.26c0.11-0.1,0.21-0.2,0.32-0.29c0.35-0.31,0.74-0.61,1.16-0.91
							c1.18-0.84,2.63-1.64,4.25-2.4c1.5-0.7,3.14-1.37,4.86-1.99c0.53-0.2,1.07-0.39,1.62-0.58c0.53-0.18,1.08-0.36,1.62-0.53
							c2.11-0.67,4.26-1.28,6.34-1.82c1.74-0.45,3.42-0.85,4.99-1.2c0.57-0.13,1.11-0.25,1.64-0.36c0.51-0.11,1.01-0.21,1.48-0.3
							c0.82-0.17,1.59-0.31,2.28-0.43c-0.03-0.16-0.01-0.28,0.05-0.39c0.07-0.12,0.18-0.2,0.31-0.24c0.04-0.01,0.09-0.02,0.13-0.02
							c0.21,0,0.45,0.13,0.5,0.38l0.07,0.2c0.28,0.17,0.32,0.55,0.12,0.77c0.43,2,1.05,4.06,1.79,6.13
							c1.62,4.48,3.82,8.99,5.91,13.02c0.61,1.16,1.21,2.29,1.78,3.36c0.55,1.03,1.08,2,1.56,2.92c0,0,0,0,0.01,0.01
							c0.72,1.37,1.36,2.59,1.87,3.65c1.62-4.96,3.91-9.69,6.11-14.44v-0.01c0.73-1.59,1.46-3.19,2.14-4.8l0.01,0.01
							c0.2-0.59,1.44-3.9,2.61-6.92v-0.01c0.62-1.57,1.22-3.07,1.65-4.07c0.15-0.37,0.29-0.67,0.39-0.88
							c0.19-0.37,0.81-0.32,0.92,0.11c1.08,0.22,2.16,0.48,3.24,0.79c1.7,0.48,3.38,1.06,5.03,1.74c0.53,0.21,1.06,0.43,1.58,0.66
							c0.54,0.23,1.07,0.48,1.6,0.73c1.23,0.58,2.43,1.21,3.58,1.86c0.74,0.42,1.44,0.82,2.1,1.23c2.03,1.22,3.73,2.42,5.2,3.87
							c0.67,0.67,1.3,1.39,1.88,2.19c0,0.01,0,0.01,0,0.01c0.62,0.83,1.2,1.75,1.73,2.8v0.01c1.52,2.9,2.78,6.75,4.05,12.19
							c0.13,0.57,4.14,16.38,3.81,16.87C273.724,207.61,276.064,220.96,274.314,230.14z"/>
						<g>
							<path style="fill:#FFAB42;" d="M207.194,233.84v0.33c0,1.35-1.13,2.5-2.5,2.5c-1.36,0-2.5-1.15-2.5-2.5v-0.39
								c-0.02-25.55-2.37-51.04-2.53-76.59c1.74-0.45,3.42-0.85,4.99-1.2C204.754,181.96,207.174,207.87,207.194,233.84z"/>
							<path style="fill:#FFAB42;" d="M220.824,225.57c-0.02,4.3,0,6.92-0.07,8.61c-0.09,2.16-0.3,2.76-0.86,3.32
								c-1.7,1.68-4.4,0.18-4.27-1.77c0.03-0.51,0.06-1.11,0.09-1.78c0.21-5.38,0.11-15.28,0.04-19.3
								c-0.32-17.66-1.44-34.97-2.73-52.92c1.62,4.48,3.82,8.99,5.91,13.02c0.87,13.12,1.59,26.61,1.82,39.9
								C220.814,218.29,220.844,221.93,220.824,225.57z"/>
							<path style="fill:#FFAB42;" d="M237.224,233.79c-1.64,0.17-3.24,0.31-4.98,0.41c-1.47-24.54-1.63-43.69-1.98-63.95v-0.01
								c0.73-1.59,1.46-3.19,2.14-4.8l0.01,0.01c0.2-0.59,1.44-3.9,2.61-6.92C235.644,184.69,235.414,203.5,237.224,233.79z"/>
							<path style="fill:#FFAB42;" d="M249.684,232.41c-1.82,0.18-3.43,0.35-4.89,0.52c-1.49-13.82-3.16-52.42-3.57-78.46
								c1.7,0.48,3.38,1.06,5.03,1.74C246.654,181.63,247.804,207.05,249.684,232.41z"/>
							<path style="fill:#FFAB42;" d="M262.614,220.19c-0.27,3.69-5.22,2.88-5,0c1.46-19.88-1.65-39.66-2.5-59.5
								c2.03,1.22,3.73,2.42,5.2,3.87C261.354,183.1,263.974,201.6,262.614,220.19z"/>
							<path style="fill:#FFAB42;" d="M191.284,210.76c0.01,0.36-0.07,0.71-0.22,1.03c-0.19-5.16-0.31-9.4-0.32-9.94
								c-1.11,2.51-2.92,5.77-4.45,9.07c-0.01-0.05-0.01-0.11-0.01-0.16c-0.42-16.21,0.02-32.46-1.06-48.65
								c1.5-0.7,3.14-1.37,4.86-1.99C191.334,176.97,190.844,193.89,191.284,210.76z"/>
							<path style="fill:#FFAB42;" d="M179.734,240.89c-0.8,1.45-1.47,2.57-1.67,2.59c-0.3,0.29-2.36-0.03-3.39-0.2
								c0.16-14.53-1.74-37.72-2.19-66.04c1.37-3.27,2.52-5.79,3.19-6.85c0.55-0.87,1.12-1.68,1.72-2.42
								c0.08,19.36,0.99,38.44,1.87,58.16c0.16,3.63,0.37,7.27,0.44,10.9C179.734,238.32,179.744,239.6,179.734,240.89z"/>
							<path style="fill:#FFAB42;" d="M166.994,240.41c-2.23-1.42-3.93-3.23-5.17-5.34c-0.3-9.34-0.41-18.69-0.36-28.03
								c0.94-3.23,3-9.12,5.31-15.28C166.654,198.88,165.864,212.96,166.994,240.41z"/>
						</g>
						<g>
							<path style="fill:#FFAB42;" d="M169.914,241.9c-0.52-0.2-1.01-0.43-1.48-0.67c0.56-17.19-0.34-34.3-0.86-51.58
								c0.46-1.22,0.92-2.44,1.39-3.64C169.464,204.57,170.554,223.3,169.914,241.9z"/>
							<path style="fill:#FFAB42;" d="M182.134,236.27c-0.36,0.71-0.79,1.56-1.24,2.42c-2.68-23.92-1.37-48.61-1.4-72.98
								c0.11-0.1,0.21-0.2,0.32-0.29c0.35-0.31,0.74-0.61,1.16-0.91C181.054,188.41,179.774,212.75,182.134,236.27z"/>
							<path style="fill:#FFAB42;" d="M194.934,230.44c-0.04,1.04-1.53,0.94-1.5,0c0.5-14.51-1.23-27.75-1.08-42.81
								c0.1-9.43,0.55-18.85-0.65-28.09c0.53-0.18,1.08-0.36,1.62-0.53c1.07,7.27,0.12,27.53,1.28,51.67
								C194.914,217.26,195.164,223.85,194.934,230.44z"/>
							<path style="fill:#FFAB42;" d="M210.864,232.95c0.03,0.94-1.46,1.04-1.5,0c-0.21-7.16-2.13-52.52-3.07-77.32
								c0.51-0.11,1.01-0.21,1.48-0.3C208.284,169.16,210.054,211.1,210.864,232.95z"/>
							<path style="fill:#FFAB42;" d="M224.604,234.1c0,0.08-0.01,0.15-0.03,0.22c-0.19,0.71-1.3,0.68-1.45-0.04
								c-0.01-0.06-0.02-0.12-0.02-0.18c0.08-18.8-2.11-37.32-2.39-55.99c0.55,1.03,1.08,2,1.56,2.92c0,0,0,0,0.01,0.01
								c0.08,3.45,0.25,7.88,0.57,13.59C223.594,207.78,224.664,220.92,224.604,234.1z"/>
							<path style="fill:#FFAB42;" d="M241.074,233.35c-0.51,0.06-1,0.12-1.49,0.18c-1.19-13.87-1.99-26.92-2.46-39
								c-0.53-13.24-0.71-26.5-0.52-39.75c0-0.12,0.03-0.23,0.07-0.33c0.3-0.66,1.45-0.51,1.43,0.33
								C237.804,179.29,238.584,204.31,241.074,233.35z"/>
							<path style="fill:#FFAB42;" d="M253.874,231.91c0,0.04,0,0.08-0.01,0.12c-0.05,0.54-0.8,0.89-1.28,0.42
								c-0.04-0.04-0.08-0.14-0.12-0.3c-0.97-3.66-2.62-37.83-2.68-39.11c-0.98-21.32-1.68-31.4-1.95-36.17
								c0.54,0.23,1.07,0.48,1.6,0.73C250.674,170.41,251.194,205.42,253.874,231.91z"/>
							<path style="fill:#FFAB42;" d="M267.114,205.01c0.04,0.62-0.79,1.03-1.28,0.54c-0.15-0.15-0.21-0.33-0.22-0.54
								c-1.47-19.59-2.83-31.48-3.42-38.25c0.62,0.83,1.2,1.75,1.73,2.8v0.01C264.734,181.41,266.224,193.11,267.114,205.01z"/>
						</g>
						<g>
							<path style="fill:#573C31;" d="M236.322,151.336c-0.508,0-0.938,0.563-0.755,1.022c2.649,7.428,0.948,18.474-0.922,25.775
								c-1.533,5.947-4.539,14.424-9.434,18.096c-3.726-5.028-6.971-10.758-9.629-17.027l-0.015,0.211
								c-2.313-5.736-3.765-10.8-4.421-15.486l-0.056-0.113c-0.366-3.13-0.382-5.851-0.046-8.314l-0.12,0.161
								c0.287-1.333,0.554-2.427,0.835-3.34c0.062-0.199,0.037-0.41-0.071-0.594c-0.33-0.622-1.248-0.556-1.467,0.158
								c-4.185,13.474,5.409,34.053,13.724,45.395c-1,0.839-1.917,3.31-0.526,4.685c1.715,1.634,5.465,0.171,3.02-4.719
								c3.615-2.648,6.247-8.221,7.809-12.433c0.68-1.833,1.293-3.795,1.871-5.997C240.213,163.245,238.208,151.336,236.322,151.336
								z"/>
							<path style="fill:#573C31;" d="M213.213,154.474c0-0.989-1.5-0.989-1.5,0C211.713,155.463,213.213,155.463,213.213,154.474z"
								/>
							<path style="fill:#573C31;" d="M213.196,157.58c0-0.989-1.5-0.989-1.5,0C211.696,158.569,213.196,158.569,213.196,157.58z"/>
							<path style="fill:#573C31;" d="M211.649,159.414c0,0.35,0.253,0.635,0.581,0.715c-0.454,1.093,1.442,1.5,1.442,0.282
								c0-0.35-0.253-0.636-0.581-0.715C213.556,158.577,211.649,158.234,211.649,159.414z"/>
							<path style="fill:#573C31;" d="M213.253,162.644c0.109-0.523-0.292-0.896-0.72-0.896c-0.803,0-1.051,1.115-0.29,1.44
								c-0.01,0.049-0.03,0.094-0.03,0.146c0,0.989,1.5,0.989,1.5,0C213.713,163.027,213.522,162.759,213.253,162.644z"/>
							<path style="fill:#573C31;" d="M213.345,166.365c-0.136,0.136-0.221,0.323-0.221,0.528c0,0.989,1.5,0.989,1.5,0
								c0-0.4-0.324-0.727-0.72-0.744c0.479-0.48,0.123-1.278-0.529-1.278C212.411,164.871,212.37,166.324,213.345,166.365z"/>
							<path style="fill:#573C31;" d="M213.258,169.655c0,0.989,1.5,0.989,1.5,0C214.758,168.666,213.258,168.666,213.258,169.655z"
								/>
							<path style="fill:#573C31;" d="M214.688,172.039c0.989,0,0.989-1.5,0-1.5S213.699,172.039,214.688,172.039z"/>
							<path style="fill:#573C31;" d="M215.646,173.193c0.989,0,0.989-1.5,0-1.5S214.657,173.193,215.646,173.193z"/>
							<path style="fill:#573C31;" d="M216.14,175.598c0.989,0,0.989-1.5,0-1.5C215.151,174.098,215.151,175.598,216.14,175.598z"/>
							<path style="fill:#573C31;" d="M216.959,177.523c0.989,0,0.989-1.5,0-1.5S215.97,177.523,216.959,177.523z"/>
							<path style="fill:#573C31;" d="M217.778,180.106c0.989,0,0.989-1.5,0-1.5S216.789,180.106,217.778,180.106z"/>
							<path style="fill:#573C31;" d="M218.841,181.579c0.989,0,0.989-1.5,0-1.5C217.851,180.079,217.851,181.579,218.841,181.579z"
								/>
							<path style="fill:#573C31;" d="M219.34,183.256c0.989,0,0.989-1.5,0-1.5C218.351,181.756,218.351,183.256,219.34,183.256z"/>
							<path style="fill:#573C31;" d="M220.623,185.101c-0.469,1.122,1.442,1.464,1.442,0.284c0-0.52-0.534-0.901-1.034-0.692
								c0.209-0.5-0.172-1.034-0.692-1.034C219.146,183.66,219.517,185.563,220.623,185.101z"/>
							<path style="fill:#573C31;" d="M223.61,186.378c0-0.989-1.5-0.989-1.5,0C222.11,187.368,223.61,187.368,223.61,186.378z"/>
							<path style="fill:#573C31;" d="M225.109,187.014c0-0.989-1.5-0.989-1.5,0C223.609,188.004,225.109,188.004,225.109,187.014z"
								/>
							<path style="fill:#573C31;" d="M226.641,187.75c1.119,0.467,1.467-1.442,0.284-1.442c-0.253,0-0.468,0.137-0.604,0.333
								c-0.5-0.209-1.034,0.172-1.034,0.692C225.287,188.046,226.202,188.38,226.641,187.75z"/>
							<path style="fill:#573C31;" d="M229.128,186.178c0-0.989-1.5-0.989-1.5,0S229.128,187.167,229.128,186.178z"/>
							<path style="fill:#573C31;" d="M230.26,184.588c0-0.989-1.5-0.989-1.5,0C228.76,185.577,230.26,185.577,230.26,184.588z"/>
							<path style="fill:#573C31;" d="M231.579,182.959c0-0.41-0.34-0.75-0.75-0.75s-0.75,0.34-0.75,0.75
								C230.079,183.948,231.579,183.948,231.579,182.959z"/>
							<path style="fill:#573C31;" d="M232.555,181.19c0-0.989-1.5-0.989-1.5,0C231.055,182.18,232.555,182.18,232.555,181.19z"/>
							<path style="fill:#573C31;" d="M232.984,178.289c0-0.989-1.5-0.989-1.5,0C231.484,179.278,232.984,179.278,232.984,178.289z"
								/>
							<path style="fill:#573C31;" d="M234.053,176.547c0-0.989-1.5-0.989-1.5,0S234.053,177.536,234.053,176.547z"/>
							<path style="fill:#573C31;" d="M234.483,174.416c0-0.989-1.5-0.989-1.5,0C232.983,175.406,234.483,175.406,234.483,174.416z"
								/>
							<path style="fill:#573C31;" d="M235.07,172.988c0-0.989-1.5-0.989-1.5,0C233.57,173.977,235.07,173.977,235.07,172.988z"/>
							<path style="fill:#573C31;" d="M235.482,170.905c0-0.41-0.34-0.75-0.75-0.75c-0.41,0-0.75,0.34-0.75,0.75
								C233.982,171.895,235.482,171.895,235.482,170.905z"/>
							<path style="fill:#573C31;" d="M234.935,169.273c0.41,0,0.75-0.34,0.75-0.75c0-0.41-0.34-0.75-0.75-0.75
								C233.946,167.773,233.946,169.273,234.935,169.273z"/>
							<path style="fill:#573C31;" d="M235.592,167.234c0.989,0,0.989-1.5,0-1.5C234.602,165.734,234.602,167.234,235.592,167.234z"
								/>
							<path style="fill:#573C31;" d="M235.841,165.308c0.989,0,0.989-1.5,0-1.5C234.852,163.808,234.852,165.308,235.841,165.308z"
								/>
							<path style="fill:#573C31;" d="M236.638,162.132c0-0.989-1.5-0.989-1.5,0C235.138,163.121,236.638,163.121,236.638,162.132z"
								/>
						</g>
						<path style="fill:#4F3327;" d="M256.048,118.975c-3.079-13.573-4.154-15.128-9.138-22.109
							c-2.68-3.734-8.961-13.451-16.024-9.995c-3.482-3.45-10.283-0.828-14.641,1.422c-28.308,14.529-19.085,36.484-21.919,43.509
							c-0.552,1.263-1.346,2.447-2.194,3.544c-1.105,1.416-2.24,2.657-3.507,4.089c-2.129,2.432-3.538,4.191-4.404,6.327
							c-0.807,1.995-0.873,4.653,0.769,6.054c1.657,1.444,0.706,2.296,0.938,4.708c0.118,1.181,0.399,2.053,0.778,2.948
							c0.137,0.321,0.297,0.633,0.469,0.939c-0.161,0.33,0.202,0.779,0.636,0.661c8.438-1.852,14.967-3.88,19.75-5.352
							c0.563-0.181,0.348-0.112,1.008-0.324c2.065-0.656,8.989-2.33,8.232-3.671c0.131-0.062,0.216-0.221,0.208-0.382
							c-0.049-1.026-0.198-8.441-0.743-8.805c-3.053-1.727-13.938-17.781-14.854-18.698c-3.551-4.833-1.695-7.783,2.062-7.366
							c0.276,0.039,3.793,0.882,4.021,0.784c7.911-0.599,20.408-13.778,23.409-16.427c3.041,6.677,11.064,10.181,13.148,11.489
							c0.078,0.132,0.58,3.751,0.601,3.903c1.42,10.572,0.323,19.23-8.707,26.295c-1.771,1.349-3.708,2.47-5.875,3.068
							c-0.285,0.077-0.406,0.341-0.406,0.65c-1.633,19.797,4.393,14.538,8.311,19.761c0.477,0.636,0.749,1.018,1.333,1.537
							c0.97,0.841,2.491,1.675,3.82,1.538c0.859-0.098,1.502-0.515,2.111-1.081c1.038-0.999,1.91-2.639,3.191-3.667
							c1.264-0.921,2.251-0.552,3.735-1.029c2.016-0.63,2.599-2.416,2.985-3.531c0.347-1,0.566-1.633,2.255-3.902
							C262.762,148.744,262.608,147.786,256.048,118.975z"/>
						<path style="fill:#FFC5A3;" d="M246.571,247.371c-1.404-2.648-3.264-5.227-4.608-8.069c-0.055-0.117-0.165-0.201-0.311-0.236
							c-0.123-0.3-0.201-0.535-0.565-0.535c-0.134-0.31-1.652-1.036-1.952-1.194c-0.074-0.115-3.887-1.823-4.02-1.887
							c-0.885-0.436-1.634-0.873-2.296-1.339c-0.143-0.104-0.33-0.095-0.487-0.012c-4.739-2.19-1.934-1.229-5.313-2.044
							c-8.839-2.094-39.205-7.329-40.205-7.035c-0.538,0-0.53,0.329-0.569,0.747c-0.135,0.169-1.4,3.302-1.309,3.166
							c-0.679,1.56-5.119,11.447-6.822,14.064c-0.068,0.106-0.088,0.236-0.057,0.367c0.056,0.235,0.258,0.401,0.493,0.401
							c0.034,0,0.068-0.003,0.102-0.01c4.405,1.201,6.13,0.808,25.205,0.808c7.903,0,12.099-0.41,15.204-0.807
							c1.745-0.223,3.55-0.454,5.34-0.473c0.065,0,0.124-0.012,0.176-0.036c1.225,0.403,2.715,0.292,3.999,0.325
							c2.909,3.848,7.928,6.992,8.578,6.992c2.278,1.591,2.725,2.311,3.245,1.79c0.153,0.128,0.448,0.13,0.637-0.059
							c0.8-0.769,1.167-0.704,2.019-0.704c0.33,0,0.608-0.335,0.468-0.709c1-0.587,1.924-1.596,3.285-2.359
							c0.095-0.053,0.17-0.139,0.211-0.243C247.543,247.893,247.083,247.158,246.571,247.371z"/>
						<g>
							<path style="fill:#5B4136;" d="M218.294,125.39c-0.004-0.005-0.008-0.011-0.012-0.016
								C218.286,125.381,218.287,125.381,218.294,125.39z"/>
							<path style="fill:#5B4136;" d="M223.237,123.873c-0.832,3.079-3.453,3.339-4.942,1.518c0.011,0.015,0.022,0.03,0.032,0.045
								c-0.013-0.018-0.065-0.086-0.078-0.102c0.011,0.013,0.023,0.027,0.034,0.041c-0.42-0.584-0.621-1.103-0.768-1.759
								c-0.062-0.265-0.362-0.419-0.617-0.348c-1.451,0.399,1.93,6.494,5.746,3.477c0.812-0.656,1.301-1.609,1.555-2.606
								C224.372,123.481,223.393,123.249,223.237,123.873z"/>
							<path style="fill:#5B4136;" d="M242.483,124.414c-0.255,0.867-0.642,1.498-1.455,1.885c-1.31,0.515-2.806-0.12-3.279-1.975
								c-0.167-0.633-1.139-0.392-0.965,0.266c0.207,0.809,0.613,1.555,1.254,2.102c0.647,0.532,1.261,0.735,2.008,0.785
								c1.423,0.079,2.895-0.898,3.398-2.797C243.624,124.045,242.655,123.776,242.483,124.414z"/>
							<path style="fill:#5B4136;" d="M216.585,116.386c-0.344,0.023-0.637,0.117-0.887,0.367c-0.234,0.23-0.363,0.551-0.363,0.883
								c0,2.088,2.329,0.729,6.562,1.219c1,0.149,2.233,0.63,2.594-0.672C225.131,115.813,219.101,116.202,216.585,116.386z"/>
							<path style="fill:#5B4136;" d="M243.762,117.631c-1.888-0.48-3.856-0.649-5.844-0.57c-1.745,0.06-1.548,2.553,0,2.5
								c2.278-0.092,3.815,0.131,5.18,0.48C244.756,120.463,245.308,118.024,243.762,117.631z"/>
						</g>
						<path style="fill:#C07E67;" d="M231.066,135.761c-0.003,0-0.942,0.217-1.337,0.277c-1.801,0.205-3.513-0.167-4.784-1.439
							c-0.486-0.486-1.327-0.137-1.314,0.558c0,1,3.417,3.368,7.642,2.115C232.129,137.034,231.952,135.761,231.066,135.761z"/>
						<g>
							<path style="fill:#C3967D;" d="M232.614,119.553c0.023-0.27-0.246-0.5-0.5-0.5c-0.251,0-0.472,0.169-0.5,0.5
								c-0.353,3.87,0.426,8.145-0.212,11.681c-0.956,1.019-1.96,0.757-2.829-0.31c0.005,0.008,0.011,0.016,0.016,0.023
								c-0.179-0.231-0.254-0.427-0.556-0.427c-0.42,0-0.63,0.476-0.437,0.752c1.528,2.165,3.575,1.898,4.638,0.544
								c0.038-0.039,0.104-0.157,0.117-0.23c0.042-0.151,0.023-0.102,0.02-0.148C233.082,127.183,232.238,123.699,232.614,119.553z"
								/>
							<path style="fill:#C3967D;" d="M202.507,119.667c0.495-0.511,1.076-0.611,1.781-0.541c0.397,0.054,0.746,0.16,0.876-0.303
								c0.264-0.978-1.97-0.827-2.859-0.281c-1.797,1.059-1.674,4.31-0.641,4.02c0.551-0.15,0.227-0.592,0.29-1.592
								c0.479,1.059,1.133,2.171,2.733,3.587c0.534,0.472,1.173-0.295,0.707-0.707C204.065,122.676,203.035,121.366,202.507,119.667
								z"/>
						</g>
						<g>
							<path style="fill:#936D5C;" d="M226.151,100.536c-3.197,2.768-5.886,5.246-9.23,7.848c0.002-0.002,0.004-0.003,0.006-0.005
								c-3.105,2.382-6.109,4.296-9.642,5.799c-0.578,0.231-0.518,0.748-0.176,0.937c0.552,0.34,5.143-2.329,5.699-2.668
								c5.012-3.045,9.662-7.403,14.051-11.203c0.203-0.176,0.18-0.523,0-0.707C226.658,100.335,226.358,100.357,226.151,100.536z"
								/>
							<path style="fill:#936D5C;" d="M216.927,108.379c0.008-0.006,0.015-0.011,0.022-0.017
								C217.021,108.306,216.982,108.331,216.927,108.379z"/>
							<path style="fill:#936D5C;" d="M227.046,96.217c-1.507,0.518-1.803,0.572-3.516,1.34
								c-7.867,3.541-14.788,10.833-20.473,16.668c-0.469,0.479,0.256,1.168,0.707,0.707c4.034-4.137,7.902-8.16,12.422-11.676
								c-0.002,0.002-0.004,0.003-0.006,0.005c4.613-3.538,7.688-4.893,11.131-6.079c0.258-0.09,0.422-0.34,0.348-0.613
								C227.589,96.313,227.303,96.132,227.046,96.217z"/>
							<path style="fill:#936D5C;" d="M216.181,103.261c-0.005,0.003-0.009,0.007-0.014,0.01
								C216.1,103.324,216.128,103.305,216.181,103.261z"/>
							<path style="fill:#936D5C;" d="M201.232,115.091c1.037-2.378,2.488-4.523,4.064-6.576c2.732-3.533,5.063-5.784,3.577-5.784
								c-0.121,0-0.277,0.047-0.355,0.145c-1.755,2.266-9.528,11.504-7.969,12.395C200.806,115.426,201.146,115.299,201.232,115.091
								z"/>
							<path style="fill:#936D5C;" d="M200.809,104.999c-0.81,0.232-3.475,4.93-3.512,10.965c0,0.658,1,0.661,1,0
								c0.036-4.413,1.391-7.328,1.391-7.328c0.011-0.025,0.022-0.05,0.033-0.075c0.352-0.839,0.959-1.919,1.65-2.827
								C201.617,105.426,201.273,104.872,200.809,104.999z"/>
							<path style="fill:#936D5C;" d="M199.727,108.547c-0.002,0.005-0.004,0.009-0.006,0.014
								C199.698,108.615,199.706,108.598,199.727,108.547z"/>
							<path style="fill:#936D5C;" d="M246.998,109.676c-3.329-0.496-7.066-3.541-9.179-6.231c0.004,0.005,0.008,0.01,0.011,0.016
								c-0.088-0.116-0.002-0.003-0.078-0.102c0.006,0.007,0.012,0.013,0.017,0.02c-0.259-0.346-0.504-0.701-0.728-1.067
								c-0.097-0.155-0.266-0.247-0.438-0.247c-2.22,0,4.665,7.745,10.13,8.575C247.52,110.75,247.558,109.748,246.998,109.676z"/>
							<path style="fill:#936D5C;" d="M237.819,103.445c-0.016-0.022-0.033-0.045-0.05-0.066
								C237.799,103.42,237.796,103.417,237.819,103.445z"/>
							<path style="fill:#936D5C;" d="M246.931,114.456c0.612,8.237,1.231,15.721-1.34,23.223c-0.206,0.592,0.735,0.942,0.961,0.266
								c0.641-1.859,1.098-3.766,1.402-5.707c0.944-5.984,0.398-12.109-0.023-17.781
								C247.88,113.739,246.887,113.839,246.931,114.456z"/>
							<path style="fill:#936D5C;" d="M250.862,112.834c-2.658-2.658,2.541,14.011,0.639,28.72c-0.344,2.538-0.906,5.042-1.74,7.471
								c-0.194,0.583,0.737,0.939,0.965,0.266c0.995-2.883,1.558-5.716,1.891-8.684c0.336-2.984,0.371-6,0.258-9
								C252.778,129.075,251.373,113.345,250.862,112.834z"/>
							<path style="fill:#936D5C;" d="M255.357,140.559c-0.066,2.66-0.5,5.285-0.82,7.922c-0.049,0.378,0.504,0.699,0.852,0.352
								c0.369-0.369,0.955-7.729,0.969-8.273C256.375,139.929,255.377,139.866,255.357,140.559z"/>
							<path style="fill:#936D5C;" d="M241.949,143.02c-1.939,4.859-4.172,9.678-2.352,14.594c0.538,1.452,1.194,2.651,1.465,4.266
								c0.072,0.583-0.029,1.238,0.558,1.238c1.702,0-1.296-5.722-1.638-7.877c-0.477-3.989,1.417-8.155,2.931-11.955
								c0.047-0.121,0.008-0.281-0.051-0.387C242.674,142.575,242.15,142.51,241.949,143.02z"/>
							<path style="fill:#936D5C;" d="M243.796,155.161c0.306,0.964,0.55,1.943,0.704,2.944c0.155,1.159-0.056,1.935,0.621,1.935
								c0.266,0,0.508-0.23,0.5-0.5c-0.055-1.586-0.383-3.137-0.859-4.645C244.55,154.224,243.607,154.561,243.796,155.161z"/>
							<path style="fill:#936D5C;" d="M234.428,149.217c0.027-0.21-0.191-0.5-0.5-0.5c-0.251,0-0.461,0.159-0.5,0.5
								c-0.195,1.549-0.308,6.746,0.961,6.387c0.262-0.07,0.418-0.352,0.348-0.613C234.227,153.105,234.188,151.103,234.428,149.217
								z"/>
							<path style="fill:#936D5C;" d="M211.51,143.162c-0.204,2.873-0.713,5.67-1.508,8.414c-0.176,0.622,0.782,0.912,0.965,0.266
								c0.82-2.832,1.336-5.742,1.543-8.68C212.554,142.542,211.562,142.449,211.51,143.162z"/>
							<path style="fill:#936D5C;" d="M207.272,135.518c-0.588,6.143-0.837,12.13-2.969,17.832c-0.206,0.565,0.706,0.959,0.965,0.27
								c2.16-5.789,2.418-12.016,3.004-18.102C208.322,134.928,207.336,134.771,207.272,135.518z"/>
							<path style="fill:#936D5C;" d="M195.968,134.537c-0.031,0.066-0.044,0.102-0.008,0.02
								C195.963,134.551,195.965,134.544,195.968,134.537z"/>
							<path style="fill:#936D5C;" d="M197.141,124.956c0.456,3.829,0.036,6.647-1.173,9.581c0.002-0.004,0.003-0.007,0.005-0.011
								c-2.33,5.502-4.957,7.038-6.371,12.367c-0.43,1.625-0.699,3.289-1.055,4.934c-0.152,0.689,0.83,0.877,0.965,0.266
								c0.879-4.078,1.082-6.581,3.191-9.832c3.888-6.016,6.312-9.99,5.438-17.305C198.028,124.164,197.072,124.404,197.141,124.956
								z"/>
							<path style="fill:#936D5C;" d="M196.48,144.081c-1.567,4.623-2.806,8.288-3.211,13.098c-0.045,0.627,0.959,0.711,1,0
								c0.428-4.745,1.635-8.295,3.176-12.832C197.645,143.748,196.704,143.409,196.48,144.081z"/>
							<path style="fill:#936D5C;" d="M200.978,144.28c-0.216,0.216-0.489,3.466-0.512,3.762c-0.044,0.617,0.949,0.717,1,0
								c0.086-1.141,0.234-2.273,0.367-3.406C201.871,144.234,201.311,143.947,200.978,144.28z"/>
							<path style="fill:#936D5C;" d="M243.695,100.398c0.331,0.568,1.196,0.066,0.863-0.504c-2.15-3.717-5.394-6.24-8.344-8.582
								c-0.27-0.212-0.532-0.174-0.707,0c-0.215,0.215-0.182,0.562,0,0.707C238.75,94.593,241.703,96.963,243.695,100.398z"/>
							<path style="fill:#936D5C;" d="M239.085,98.531c-0.47,0-0.664,0.594-0.355,0.855c0.953,0.797,1.914,1.578,2.723,2.527
								c0.392,0.471,1.179-0.154,0.707-0.707C241.852,100.847,239.556,98.531,239.085,98.531z"/>
							<path style="fill:#936D5C;" d="M213.456,94.385c-0.005,0.004-0.01,0.007-0.015,0.011c0.02-0.016,0.088-0.068,0.102-0.078
								c-0.003,0.003-0.007,0.006-0.01,0.008c2.818-2.142,6.142-4.118,9.596-4.309c0.693-0.04,0.632-1.001,0.024-1.001
								c-3.877,0-8.339,2.951-11.348,5.419c-0.215,0.172-0.18,0.527,0,0.707C212.239,95.596,212.918,94.805,213.456,94.385z"/>
							<path style="fill:#936D5C;" d="M213.456,94.385c0.026-0.018,0.052-0.038,0.076-0.059
								C213.472,94.372,213.515,94.339,213.456,94.385z"/>
						</g>
						<path style="fill:#936731;" d="M250.912,203.884c-0.835-14.848-0.22-14.974-1.365-14.974c-1.049,0-0.991-0.042-0.018,17.846
							c0.927,17.247,0.049,17.744,1.342,17.744C251.871,224.5,252.068,224.608,250.912,203.884z"/>
					</g>
					<g>
						<path style="fill:#3C271F;" d="M261.482,200.171c-0.047-0.059-0.109-0.106-0.177-0.138c-0.045,0.004-0.429,0.042-0.473,0.033
							c-0.041,0.024-7.321,18.464-7.338,18.508c-4.777,12.402-7.399,22.73-11.887,33.801c-0.016,0.043-0.023,0.09-0.02,0.156
							c-1.056,1.357,6.311,1.535,7.57,1.535c5.879,0,9.143-0.824,18.301-1.012c19.686-0.441,14.045,1.007,41.375-1.82
							c0.133-0.297,0.27-0.59,0.41-0.883c-0.023-0.02-0.047-0.039-0.074-0.055c1.129-5.082,11.42-40.19,13.57-48.258
							C324.331,199.538,266.33,200.158,261.482,200.171z"/>
						<path style="fill:#936D5C;" d="M288.262,220.781l0.001,0c-0.222-1.697-0.345-3.093-0.387-4.394
							c-0.011-0.39-0.411-0.626-0.737-0.454c-0.197-0.013-0.43,0.128-0.505,0.369c-0.706,2.238-1.702,4.166-3.257,7.041
							c-0.249,0.462-2.712,4.99-2.528,5.481c-0.001,0.731,0.555,0.467,4.261,0.827c3.012,0.293,3.858,0.301,3.858,0.301
							c0.278,0,0.51-0.238,0.51-0.51C289.672,229.124,288.312,221.151,288.262,220.781z"/>
					</g>
				</g>
			</g>
		</g>
	</g>
</g>
<g id="DESIGNED_BY_FREEPIK">
	<g>
		<g id="XMLID_319_">
			<g id="XMLID_338_">
				<path id="XMLID_346_" style="fill:#1D262D;" d="M260.104,465.465c-0.432,0.443-0.803,0.931-1.108,1.453l-0.465-0.241
					c-0.067-0.298-0.349-0.503-0.659-0.466c-0.331,0.039-0.568,0.339-0.529,0.67c0.039,0.331,0.339,0.568,0.67,0.529
					c0.066-0.008,0.127-0.026,0.184-0.052l0.451,0.234c-0.251,0.554-0.433,1.139-0.539,1.744l0.747,0.132
					c0.23-1.306,0.85-2.507,1.792-3.473L260.104,465.465z"/>
				<path id="XMLID_345_" style="fill:#1D262D;" d="M265.592,463.163c-0.171,0-0.341,0.006-0.51,0.017l-0.074-0.626
					c0.188-0.149,0.296-0.389,0.266-0.645c-0.046-0.393-0.402-0.674-0.795-0.628c-0.393,0.046-0.674,0.402-0.628,0.795
					c0.03,0.254,0.189,0.461,0.404,0.564l0.074,0.624c-0.714,0.116-1.403,0.332-2.06,0.646l0.327,0.684
					c0.934-0.447,1.942-0.673,2.995-0.673c0.496,0,0.993,0.053,1.475,0.158l0.161-0.741
					C266.692,463.222,266.142,463.163,265.592,463.163z"/>
				<path id="XMLID_344_" style="fill:#1D262D;" d="M272.194,465.711c0.331-0.04,0.566-0.341,0.526-0.672
					c-0.04-0.331-0.341-0.566-0.672-0.526c-0.309,0.038-0.535,0.304-0.53,0.609l-0.416,0.363c-0.418-0.43-0.889-0.813-1.408-1.139
					l-0.404,0.641c1.134,0.715,2.021,1.726,2.563,2.925l0.69-0.313c-0.251-0.554-0.567-1.072-0.942-1.545l0.402-0.351
					C272.065,465.716,272.129,465.719,272.194,465.711z"/>
				<path id="XMLID_343_" style="fill:#1D262D;" d="M265.044,473.372c-0.386,0.023-0.775,0.035-1.157,0.035
					c-0.88,0-1.733-0.061-2.478-0.179c-0.39-0.062-0.846-0.155-1.27-0.292c1.046,1.861,3.069,3.125,5.388,3.125
					c2.855,0,5.262-1.916,5.95-4.504c-0.682,0.449-1.505,0.825-2.459,1.123C267.839,473.047,266.463,473.286,265.044,473.372z"/>
				<path id="XMLID_339_" style="fill:#1D262D;" d="M265.592,464.68c-3.352,0-6.08,2.666-6.08,5.943
					c0,0.426,0.046,0.849,0.137,1.261c0.673,0.483,2.706,0.89,5.348,0.731c2.879-0.173,5.297-0.957,6.672-2.159
					c-0.006-0.195-0.021-0.39-0.045-0.582C271.244,466.913,268.65,464.68,265.592,464.68z M263.432,471.194
					c-1.02,0-1.85-0.83-1.85-1.85c0-1.02,0.83-1.85,1.85-1.85c1.02,0,1.85,0.83,1.85,1.85
					C265.282,470.365,264.452,471.194,263.432,471.194z M268.17,470.286c-0.75,0-1.36-0.61-1.36-1.36s0.61-1.361,1.36-1.361
					c0.75,0,1.361,0.61,1.361,1.361S268.92,470.286,268.17,470.286z"/>
			</g>
			<path id="XMLID_336_" style="fill:#1D262D;" d="M281.595,466.547c-0.295-0.116-0.805-0.309-1.382-0.237
				c-0.551,0.069-0.844,0.341-0.844,1.007v0.866h2.228v1.717h-2.228v5.455h-1.932v-5.455h-1.34v-1.717h1.34v-0.888
				c0-1.68,0.896-2.783,2.568-2.783c0.643,0,1.157,0.122,1.59,0.308L281.595,466.547z"/>
			<path id="XMLID_334_" style="fill:#1D262D;" d="M286.298,469.879c-0.177-0.03-0.358-0.046-0.526-0.046
				c-0.896,0-1.51,0.548-1.51,1.614v3.908h-1.932v-7.172h1.873v0.785c0.451-0.673,1.14-0.977,2.021-0.977
				c0.414,0,0.848,0.128,1.094,0.337L286.298,469.879z"/>
			<path id="XMLID_331_" style="fill:#1D262D;" d="M293.965,471.757c0,0.222-0.015,0.489-0.037,0.651h-5.085
				c0.207,1.036,0.933,1.488,1.843,1.488c0.622,0,1.295-0.252,1.813-0.688l1.133,1.243c-0.814,0.748-1.85,1.088-3.057,1.088
				c-2.198,0-3.723-1.495-3.723-3.753c0-2.258,1.48-3.797,3.627-3.797C292.544,467.99,293.958,469.522,293.965,471.757z
				 M288.851,471.091h3.175c-0.177-0.918-0.733-1.436-1.562-1.436C289.554,469.655,289.021,470.203,288.851,471.091z"/>
			<path id="XMLID_328_" style="fill:#1D262D;" d="M301.618,471.757c0,0.222-0.015,0.489-0.037,0.651h-5.085
				c0.207,1.036,0.932,1.488,1.843,1.488c0.622,0,1.295-0.252,1.814-0.688l1.132,1.243c-0.814,0.748-1.85,1.088-3.057,1.088
				c-2.198,0-3.723-1.495-3.723-3.753c0-2.258,1.48-3.797,3.627-3.797C300.197,467.99,301.611,469.522,301.618,471.757z
				 M296.504,471.091h3.175c-0.178-0.918-0.733-1.436-1.562-1.436C297.207,469.655,296.674,470.203,296.504,471.091z"/>
			<path id="XMLID_325_" style="fill:#1D262D;" d="M309.964,471.764c0,2.154-1.495,3.775-3.471,3.775
				c-0.962,0-1.643-0.378-2.109-0.933v3.708h-1.924v-10.133h1.887v0.792c0.466-0.585,1.155-0.984,2.139-0.984
				C308.469,467.99,309.964,469.61,309.964,471.764z M304.287,471.764c0,1.132,0.747,1.976,1.843,1.976
				c1.14,0,1.85-0.881,1.85-1.976c0-1.095-0.71-1.976-1.85-1.976C305.035,469.788,304.287,470.632,304.287,471.764z"/>
			<path id="XMLID_322_" style="fill:#1D262D;" d="M313.068,465.836c0,0.696-0.54,1.229-1.236,1.229
				c-0.696,0-1.229-0.533-1.229-1.229c0-0.696,0.533-1.243,1.229-1.243C312.527,464.592,313.068,465.14,313.068,465.836z
				 M312.809,475.354h-1.932v-7.172h1.932V475.354z"/>
			<path id="XMLID_320_" style="fill:#1D262D;" d="M316.032,470.736l2.701-2.554h2.368l-3.479,3.375l3.501,3.797h-2.376
				l-2.716-2.901v2.901H314.1v-10.658h1.932V470.736z"/>
		</g>
		<g>
			<path style="fill:#1D262D;" d="M184.412,475.289v-1.055c-0.527,0.718-1.391,1.23-2.388,1.23c-1.846,0-3.149-1.406-3.149-3.706
				c0-2.256,1.289-3.721,3.149-3.721c0.952,0,1.816,0.469,2.388,1.245v-3.765h1.099v9.77H184.412z M184.412,473.37v-3.208
				c-0.395-0.615-1.245-1.143-2.124-1.143c-1.421,0-2.27,1.172-2.27,2.739c0,1.567,0.85,2.724,2.27,2.724
				C183.168,474.483,184.017,473.986,184.412,473.37z"/>
			<path style="fill:#1D262D;" d="M186.932,471.744c0-2.051,1.465-3.706,3.486-3.706c2.139,0,3.398,1.67,3.398,3.794v0.279h-5.727
				c0.088,1.333,1.025,2.446,2.549,2.446c0.805,0,1.626-0.322,2.182-0.894l0.527,0.718c-0.703,0.703-1.655,1.084-2.812,1.084
				C188.44,475.465,186.932,473.956,186.932,471.744z M190.403,468.947c-1.509,0-2.256,1.274-2.314,2.358h4.643
				C192.718,470.25,192.015,468.947,190.403,468.947z"/>
			<path style="fill:#1D262D;" d="M194.607,474.351l0.571-0.791c0.469,0.542,1.362,1.011,2.329,1.011c1.084,0,1.67-0.513,1.67-1.216
				c0-1.714-4.38-0.659-4.38-3.281c0-1.098,0.952-2.036,2.636-2.036c1.201,0,2.051,0.454,2.622,1.026l-0.513,0.762
				c-0.424-0.513-1.201-0.894-2.109-0.894c-0.967,0-1.567,0.483-1.567,1.113c0,1.552,4.38,0.527,4.38,3.281
				c0,1.187-0.952,2.138-2.783,2.138C196.306,475.465,195.325,475.113,194.607,474.351z"/>
			<path style="fill:#1D262D;" d="M201.477,466.471c0-0.41,0.337-0.747,0.732-0.747c0.41,0,0.747,0.337,0.747,0.747
				c0,0.41-0.337,0.732-0.747,0.732C201.814,467.203,201.477,466.881,201.477,466.471z M201.667,475.289v-7.075h1.099v7.075H201.667
				z"/>
			<path style="fill:#1D262D;" d="M204.582,477.105l0.556-0.82c0.586,0.703,1.289,0.967,2.3,0.967c1.172,0,2.27-0.571,2.27-2.124
				v-1.011c-0.513,0.718-1.377,1.26-2.373,1.26c-1.845,0-3.149-1.377-3.149-3.662c0-2.27,1.289-3.677,3.149-3.677
				c0.952,0,1.802,0.469,2.373,1.245v-1.069h1.098v6.87c0,2.344-1.641,3.076-3.369,3.076
				C206.237,478.16,205.417,477.926,204.582,477.105z M209.709,473.253v-3.091c-0.381-0.615-1.23-1.143-2.109-1.143
				c-1.421,0-2.27,1.128-2.27,2.695c0,1.553,0.849,2.695,2.27,2.695C208.478,474.41,209.328,473.868,209.709,473.253z"/>
			<path style="fill:#1D262D;" d="M217.413,475.289v-4.629c0-1.245-0.63-1.641-1.582-1.641c-0.865,0-1.685,0.527-2.095,1.099v5.17
				h-1.099v-7.075h1.099v1.025c0.498-0.586,1.465-1.201,2.519-1.201c1.48,0,2.256,0.747,2.256,2.285v4.966H217.413z"/>
			<path style="fill:#1D262D;" d="M219.932,471.744c0-2.051,1.465-3.706,3.486-3.706c2.139,0,3.398,1.67,3.398,3.794v0.279h-5.727
				c0.088,1.333,1.025,2.446,2.549,2.446c0.806,0,1.626-0.322,2.183-0.894l0.527,0.718c-0.703,0.703-1.655,1.084-2.812,1.084
				C221.441,475.465,219.932,473.956,219.932,471.744z M223.404,468.947c-1.509,0-2.256,1.274-2.314,2.358h4.643
				C225.718,470.25,225.015,468.947,223.404,468.947z"/>
			<path style="fill:#1D262D;" d="M233.35,475.289v-1.055c-0.527,0.718-1.392,1.23-2.388,1.23c-1.846,0-3.149-1.406-3.149-3.706
				c0-2.256,1.289-3.721,3.149-3.721c0.952,0,1.817,0.469,2.388,1.245v-3.765h1.098v9.77H233.35z M233.35,473.37v-3.208
				c-0.396-0.615-1.245-1.143-2.124-1.143c-1.421,0-2.27,1.172-2.27,2.739c0,1.567,0.849,2.724,2.27,2.724
				C232.105,474.483,232.954,473.986,233.35,473.37z"/>
			<path style="fill:#1D262D;" d="M239.692,475.289v-9.77h1.098v3.765c0.572-0.776,1.421-1.245,2.388-1.245
				c1.845,0,3.149,1.465,3.149,3.721c0,2.299-1.304,3.706-3.149,3.706c-0.996,0-1.86-0.513-2.388-1.23v1.055H239.692z
				 M242.9,474.483c1.436,0,2.285-1.157,2.285-2.724c0-1.568-0.85-2.739-2.285-2.739c-0.864,0-1.728,0.527-2.109,1.143v3.208
				C241.171,473.986,242.036,474.483,242.9,474.483z"/>
			<path style="fill:#1D262D;" d="M247.528,477.061c0.161,0.073,0.425,0.117,0.601,0.117c0.483,0,0.805-0.161,1.055-0.747
				l0.469-1.069l-2.959-7.148h1.187l2.358,5.8l2.344-5.8h1.201l-3.545,8.51c-0.425,1.025-1.143,1.421-2.08,1.435
				c-0.234,0-0.601-0.044-0.805-0.103L247.528,477.061z"/>
		</g>
	</g>
</g>
</svg>
